<svg id="Btn-Start-Shadow" xmlns="http://www.w3.org/2000/svg" viewBox="0 0 362 120"><defs><style>.cls-1{fill:#853e3f;}.cls-2{fill:#ff8285;}</style></defs><title>btn_Start_shadow</title><path class="cls-1" d="M333.48,112.82H287.84c-9.13,8.1-19.27-1.91-30.09,0-10.82-3.09-151.3,1.8-156.33,0-5-7.57-9.85.92-14.41,0-9.13,2-17.24,3.64-24,0-6.76-3.39-12.17-5.52-15.89,0-3.72-1-5.75-5-5.75,0-3.53,2-6.73-4-9.06-3a9.31,9.31,0,0,1-3.77-7.23V32.36c0-5.63,5.77-10.24,12.83-10.24,0,0,2,3.31,5.75,0,3.72,0.35,9.13,1.74,15.89,0,6.76,3.76,14.88.19,24,0,9.13,3.88,218.08,1.09,224.84,0,6.76-3.54,12.17,2.77,15.89,0,3.72-.11,5.75.48,5.75,0,3.53-1.42,6.73,4.32,9.06,3a9.31,9.31,0,0,1,3.77,7.23v70.22C346.31,108.21,340.54,112.82,333.48,112.82Z"/><path class="cls-2" d="M334.57,115.15c-1.37,0-.88.41-1.08,0.49C335.82,115.46,334.49,115,334.57,115.15Z"/><polygon class="cls-2" points="347.76 100.09 347.92 100.44 347.51 97.53 347.76 100.09"/><path class="cls-2" d="M347.76,81.67c-0.7,1.74.11,6.67-.14,10l-0.16.54L348,93.65C347.94,89.66,347.57,84.48,347.76,81.67Z"/><path class="cls-2" d="M349.27,71.85c-0.27.61-.23-2.12-0.08,2.29l0.07-.41C349.25,73.32,349.25,72.78,349.27,71.85Z"/><path class="cls-2" d="M349.25,73.72c0,1.94.23-1.27,0,0h0Z"/><path class="cls-2" d="M349.1,64.76l0.24,2.56c0.16-.53.2-2.81,0.31-2C349.52,62.73,349.36,63.27,349.1,64.76Z"/><path class="cls-2" d="M348.59,62.34l0.1,1.32A2.49,2.49,0,0,0,348.59,62.34Z"/><path class="cls-2" d="M348.91,66.47l-0.22-2.81a1.12,1.12,0,0,0,.08,1.29C348.56,64.72,348.76,65.28,348.91,66.47Z"/><path class="cls-2" d="M348.8,68.06c-0.15,1.43-.25,3.29-0.49.72C348.41,73.67,348.9,73,348.8,68.06Z"/><path class="cls-2" d="M347,80.73l-0.2,1.92,0.23,1.66C347,83.47,347.26,80.61,347,80.73Z"/><path class="cls-2" d="M349.46,48.84c-0.15-.16-0.39.86-0.58,1L349,51.78A12,12,0,0,1,349.46,48.84Z"/><path class="cls-2" d="M348.87,49.89l-0.25-2.82C348.59,49.59,348.71,50.05,348.87,49.89Z"/><polygon class="cls-2" points="347.82 61.88 348.35 66.52 347.81 60.99 347.82 61.88"/><polygon class="cls-2" points="349.48 38.06 349.82 39.66 349.3 36.81 349.48 38.06"/><path class="cls-2" d="M349.24,30.36c0.27,0.79.31,0.22,0.31-.36s-0.07-1.15.23-.29A10.93,10.93,0,0,0,346,23.9,10.21,10.21,0,0,1,349.24,30.36Z"/><path class="cls-2" d="M341.8,23.33a0.48,0.48,0,0,1,0,.16,0.59,0.59,0,0,0,0,.09,0.72,0.72,0,0,0,0,.21,0.17,0.17,0,0,0-.05-0.09l2.69-1A15.74,15.74,0,0,1,346,23.9a11.15,11.15,0,0,0-1.53-1.19l-2.73,1a0.17,0.17,0,0,1,.06.11,0.73,0.73,0,0,1,0-.22,0.6,0.6,0,0,1,0-.1A0.5,0.5,0,0,0,341.8,23.33Z"/><path class="cls-2" d="M348.69,42.26a5.63,5.63,0,0,0,.42-2.22l-0.42,1.11v1.11Z"/><path class="cls-2" d="M348.69,41.19v0l0-2.4Z"/><path class="cls-2" d="M348.69,42.54V42.26A0.3,0.3,0,0,0,348.69,42.54Z"/><path class="cls-2" d="M348.19,54.48c-0.23-1.66-.48-5.12-0.84-1.77C347.64,53.9,347.84,52,348.19,54.48Z"/><path class="cls-2" d="M348.17,43.92l-0.1,3c0.11-.06.27-0.6,0.39,0.22Z"/><polygon class="cls-2" points="348.04 42.45 348.17 43.92 348.2 42.81 348.04 42.45"/><path class="cls-2" d="M347.45,27A16.9,16.9,0,0,0,344,23.32l-2.24.4,0,0,0,0,2.24-.39a13.65,13.65,0,0,1,3.63,4.83,1,1,0,0,0,.38.32A2.59,2.59,0,0,0,347.45,27Z"/><path class="cls-2" d="M348.73,34.44l0-.29C348.67,34.33,348.66,34.47,348.73,34.44Z"/><path class="cls-2" d="M326.32,20.27h0l1.3-.45,0.19,0,0.06-.07h-0.25l-1.32.46h0Z"/><path class="cls-2" d="M347.68,28.51a26,26,0,0,1,.88,3.4,11.45,11.45,0,0,0-.95-3.76C347.5,28.05,347.46,28,347.68,28.51Z"/><path class="cls-2" d="M339.32,20.85L341,22.33c-0.2-.21-0.52-0.55-0.87-0.86A3.13,3.13,0,0,0,339.32,20.85Z"/><path class="cls-2" d="M348.82,33.72l0,0.19C348.93,33.49,348.89,33.54,348.82,33.72Z"/><path class="cls-2" d="M348.82,33.72c0-.33-0.07-0.63-0.12-0.91l-0.15-.9,0.07,1.23,0.08,1A3,3,0,0,1,348.82,33.72Z"/><path class="cls-2" d="M323,22.8a4.11,4.11,0,0,1,1.65-.06,5.13,5.13,0,0,0,3-.73l0,0h0a12.21,12.21,0,0,1,1.7.15c1.44-.1,1.73-0.45,1.32-0.93a6.22,6.22,0,0,0-2.89-1.34,0.28,0.28,0,0,1-.18.16l-1.19.41a0.72,0.72,0,0,1-.19.32,3.19,3.19,0,0,1-.36.23,2.73,2.73,0,0,1-.81.14,2.31,2.31,0,0,0,1.79-.11l0.53-.29,0.25,0c1.53,0.12,2.7.35,1.25,0.51l-1.23.06h-0.26l-0.19.14a2.06,2.06,0,0,1-1.71.46c-0.38-.09-0.63-0.19-1.35-0.43,0.67,0.36-.44.38-1.8,0.17s-2.81-.36-2.48.1c0,0,.84.16,1.68,0.36l1.16,0.25,0.53,0.1C323.34,22.62,322.07,22.46,323,22.8Z"/><path class="cls-2" d="M333.32,22.12h0l-0.66-2c0.32-.11.65-0.22,1-0.31a6.58,6.58,0,0,1,1-.12,6.78,6.78,0,0,0-1.06.06q-0.51.1-1,.24l0.71,2.17a0,0,0,0,1,0,0,0.16,0.16,0,0,1-.09-0.12,1.3,1.3,0,0,1-.12-0.31,1,1,0,0,1,0-.17c0-.07,0-0.19-0.06-0.29a4.79,4.79,0,0,1-.07-0.61V20.31s0-.16,0-0.24V19.94s0,0,0,0l0,0-0.54-.13-1.68-.38c-2.19.09-2.65,0.29-2.79,0.41,1,0,2,0,3,.08L332.33,20l0.58,0H333s0,0.13,0,.2v0.18a4.79,4.79,0,0,0,0,.65,2.86,2.86,0,0,0,.21.9,0.21,0.21,0,0,0,.09.14s0,0,0,0L332.64,20l0.67-.2-0.65.25,0.66,2h0Z"/><path class="cls-2" d="M340.76,22.45a13.91,13.91,0,0,1-2-.78c-0.68-.25-1-0.28-0.31.44a9.28,9.28,0,0,0,2.42,1.42c0.18,0,.34.07,0.51,0.08l0.27,0,0.09,0s0.06,0,0,0,0,0-.07,0a0.44,0.44,0,0,1-.18-0.05,2.11,2.11,0,0,1-.39-0.19A2.85,2.85,0,0,1,340.7,23c-0.12-.1.09,0,0.33,0.08a0.81,0.81,0,0,0,.5.08s0-.07-0.11-0.17l-0.66-.52a5.11,5.11,0,0,0,1,.49c0.14,0.12.08-.22,0,0.47a0.66,0.66,0,0,0,0,.31c0,0.1,0,0,0,0l0-.05,0,0.06v0l0-.07a0.65,0.65,0,0,1,0-.31,2.51,2.51,0,0,1,0-.41l0-.1h0l-0.07-.05a7.06,7.06,0,0,1-.75-0.55l0.07,0.08h0c0.14,0.15.18,0.21,0,.07l-0.09,0a0.44,0.44,0,0,1-.27,0c-1.25-1-.11-0.21.27,0a0.26,0.26,0,0,0,.08,0h0l-0.18-.1L340.42,22c-0.45-.29-1.07-0.72-1.82-1.15a9.41,9.41,0,0,0-2.48-1,7.06,7.06,0,0,0-1-.15,1.61,1.61,0,0,0-.41,0,7.34,7.34,0,0,1,3.09.87A31.17,31.17,0,0,1,340.76,22.45Z"/><path class="cls-2" d="M346.45,49.62c0-.18.07-0.17,0.1-0.19C346.5,49.06,346.46,48.92,346.45,49.62Z"/><path class="cls-2" d="M346.71,47.24a7.56,7.56,0,0,1,.18,2.14c-0.13,1.19-.2,0-0.34.06,0.11,0.82.3,2.88,0.51,0.3L347,49.33a21.87,21.87,0,0,1,.73-4.92A9.65,9.65,0,0,0,346.71,47.24Z"/><path class="cls-2" d="M347.53,33.75l0-.75,0-.79a10,10,0,0,0-.11-1,9.89,9.89,0,0,0-.82-2.58,9,9,0,0,1,.28,1.34,10.11,10.11,0,0,1,.08,1.34l0.2-.16a15.34,15.34,0,0,0,.16,2.26A1.38,1.38,0,0,0,347.53,33.75Z"/><path class="cls-2" d="M326.06,20.18a1.79,1.79,0,0,0-.09-0.43l1.68-.59h0l-1.66.38,0,0.21a0.84,0.84,0,0,1-.73.74h0.21a2.55,2.55,0,0,1,.33-0.09A1,1,0,0,0,326.06,20.18Z"/><path class="cls-2" d="M321.82,19.51l0.34-.3-0.86-.13L320.4,19l0.73,0.28Z"/><path class="cls-2" d="M30.85,86L31,87.42C30.92,86.75,30.89,86.32,30.85,86Z"/><path class="cls-2" d="M30.87,75.76l-0.19-.25C30.79,76,30.87,76.17,30.87,75.76Z"/><path class="cls-2" d="M167.62,21.68c-2.06-.36-4.36-0.92-4.12-0.48l0.63,0.42A23,23,0,0,1,167.62,21.68Z"/><path class="cls-2" d="M62.77,22.27a0.66,0.66,0,0,1,.52.24c0.46,0,.93.18,1.37,0.18a6,6,0,0,1-.93-0.26l-0.48-.15L63,22.2A0.58,0.58,0,0,0,62.77,22.27Z"/><path class="cls-2" d="M61.71,24.3l-0.45,0c-0.27,0-.63.05-1,0.06-0.72,0-1.45,0-1.45,0A15.67,15.67,0,0,0,61.71,24.3Z"/><path class="cls-2" d="M59.25,108.06l0.91,0.14,0.9,0.15C58.48,107.26,59.53,108,59.25,108.06Z"/><path class="cls-2" d="M257.25,21.08c-1.78-.14-3.2-0.19-4.44-0.19C255,21.1,256.69,21.44,257.25,21.08Z"/><path class="cls-2" d="M26.36,82a1.89,1.89,0,0,0,.26,1.21C26.54,82.29,26.46,81.79,26.36,82Z"/><path class="cls-2" d="M247.67,21L248.61,21c1.3-.09,2.61-0.16,4.2-0.16A18.67,18.67,0,0,0,247.67,21Z"/><path class="cls-2" d="M258,110.36h0.53A0.66,0.66,0,0,0,258,110.36Z"/><path class="cls-2" d="M316.28,114.67c-0.58,0-1.53,0-2.43,0A24,24,0,0,0,316.28,114.67Z"/><path class="cls-2" d="M296.15,20c1.33-.06.21-0.05,0,0h0Z"/><path class="cls-2" d="M302.64,21.55a0.76,0.76,0,0,0-.52.22A1,1,0,0,1,302.64,21.55Z"/><path class="cls-2" d="M234.47,23.75h-0.11A0.49,0.49,0,1,0,234.47,23.75Z"/><path class="cls-2" d="M298.15,20.19c-0.5,0-1.07-.07-1.7-0.08C296.72,20.13,297.24,20.16,298.15,20.19Z"/><path class="cls-2" d="M297.87,20H299C299.2,19.93,299,19.89,297.87,20Z"/><path class="cls-2" d="M294.3,20.11c0.76,0,1.47,0,2.15,0-0.26,0-.37,0-0.3-0.06Z"/><path class="cls-2" d="M149.57,111.52l0.29,0C151.19,111.36,150.6,111.4,149.57,111.52Z"/><path class="cls-2" d="M133,26l0.15,0-0.2,0Z"/><path class="cls-2" d="M128.27,26.23a12.56,12.56,0,0,1,4.73-.3l-1.57-1.24Z"/><path class="cls-2" d="M33.54,107.67a9.2,9.2,0,0,1-.78-1,6.86,6.86,0,0,1-.56-1.1,11,11,0,0,0,2.13,1.75L31,106.82a5.56,5.56,0,0,1,1.69-.42,7.57,7.57,0,0,1,1.2.06,7.54,7.54,0,0,0,.88.17,0.85,0.85,0,0,0-.57-0.31,4.05,4.05,0,0,0-1.19-.26,5.12,5.12,0,0,0-2.19.28l0,0,3.83,0.51c-0.26.2-.89-0.06-1.53-0.67a5.22,5.22,0,0,1-1.43-2.58,5.51,5.51,0,0,1-.11-0.76c0-.15,0-0.2,0-0.42v-0.58c0-.76,0-1.48-0.09-2.1-0.1-1.24-.27-2.11-0.6-2.23l0.28-2.21c0,0.63.07,0.73,0.05,1.36,0.63-4.29-1-3.19-.77-8.72,0.1-1.93.29-3.27,0.45-2l-0.33-4.3c0-1.25.26-.94,0.23,0.3l-0.11-6.55,0,0c-0.21-.93-0.53-3.05-0.67-4.09,0.19-1.66.14,0.84,0.31,0.41L30,68.2c0.34-1.48.68,1.53,0.63,4,1.32-3.39-.33-3,0.44-10.32l0.17,3.43c0.75-2.21.48-4.88,0.95-8.76-0.24.92-1.18,7.76-1.51,3.82a21.08,21.08,0,0,0-.12-4.7c0.47,0,.36-2.09.33-4.69l0.62,0.18c-0.18-2.81-.5-2.58-0.78-4.24,0.06-3.13.54-3.78,1-4.51,0.1-5-.77,3.46-0.89-2.47a55.13,55.13,0,0,0,0-5.73c0-.92-0.11-2-0.12-2.66A7,7,0,0,1,31.33,29,2.08,2.08,0,0,1,32,28.34c0.09,0,.07.07,0,0.21s-0.23.72,0,.42a1.36,1.36,0,0,1,.11-0.3L32.42,28l0.37-.64A1.61,1.61,0,0,1,33,27.1c0.41-.34.37-0.11,0.36,0a1.57,1.57,0,0,0,.63-1c0.06-.22.19-0.57,1.54-1.33a1.1,1.1,0,0,1,.65-0.46A5.51,5.51,0,0,1,37.5,24a16.79,16.79,0,0,1,3.86-.1L39.88,23a5.14,5.14,0,0,0,.57.78,5.37,5.37,0,0,0,.65.61,4.75,4.75,0,0,0,1.67.83,4.34,4.34,0,0,0,3.31-.54c1.37-.45-0.46.64,0,0.68a7,7,0,0,0,1-.6l0.17-.13,0.05-.06,0.1-.11a1,1,0,0,0,.2-0.29,26.22,26.22,0,0,1,2.89.06,34.55,34.55,0,0,0,4-.15s1,0.16,2.11.23,2.15,0.09,2.15.09c-3.19-.3.9-0.87,4-2.16-1,0-2,0-2.58,0,0,0,.32-0.06.8-0.19,0.25-.07.49-0.12,0.84-0.22l1.09-.32,0.14,0,0.13,0.05,0.25,0.11,0.5,0.21a5.89,5.89,0,0,0,.86.32l0.76,0.21c0.54,0.3,0,.34-0.89.3l1,0.18c0.87,0.34,1.07.53,0.86,0.65a3.45,3.45,0,0,1-1.57.09c-0.29-.17-0.61-0.34-0.87-0.52l-0.75-.58-0.22,0a0.23,0.23,0,0,0-.22,0l-0.4.24a7.42,7.42,0,0,0-.62.44c-0.4.28-.62,0.51-0.44,0.67,0.15-.07.47-0.15,0.69-0.23l0.67-.23c-0.24.16-.36,0.28-0.27,0.33a0.58,0.58,0,0,0,.34-0.11l0.73,0.13,0.09,0.16s0,0.1.09,0.16l0.19,0.2,0.53,0.56,0.4-.15,0.32,0.12L66,25.09a8.83,8.83,0,0,0,1.21.3,13.55,13.55,0,0,0,1.4.24c1,0.14,1.9.18,2.61,0.21H72.4c2.34-.47,4.37-1.18,6.64-1.87a38.47,38.47,0,0,1,8-1.67l-0.08,0a13.52,13.52,0,0,0,2.45.37c-2,.23-0.55.76-0.74,1.35-0.26-.11-0.56-0.22-0.91-0.33l-0.55-.16-0.68-.23L87,23.41c-2.16,0-5,.84-8.08,1.2,2.12-.24,1.69.11,1.17,0.29A59.15,59.15,0,0,1,87,23.66l-0.64-.12,0.15,0c-0.1.1,0,.21,0.19,0.35a2.85,2.85,0,0,0,.43.2l0.48,0.15c0.74,0.21,1.67.34,2.65,0.54-0.69-.57.73-0.56,2.67-0.5s4.42,0.19,5.92.11c0.17,0.33-.56.65-4.22,0.36,4,1,5.26-.88,9.18-0.11a4.83,4.83,0,0,0-1.73.06c2.09-.21,7.16.16,6,0.41l-0.89,0c5.91,0.3,18,.36,18.87-0.47a3.4,3.4,0,0,1-1.14,1.15l10.55-2.69c-0.93.71,2.61,2.43-2.28,2.79a34.4,34.4,0,0,0,6.11,0c-1-.11-2.38-1-1.07-1.1A64.37,64.37,0,0,0,145.15,26c-1.44-.16.17-1.27,2.43-1.22-0.35.17,0.18,1.1-.65,1.22l5.65-1.08c-1.41.19-.25,0.93,1,1.24-0.59-.21,4.89,0,6.39-0.08l-2.39-.26c6.38,0.17,6.3-1.54,12.63-1.49-0.77.23-1.89,1.4,1.33,1.53a43.22,43.22,0,0,1,12.12-3.17L184.75,23l4.29-.39c-2.67.86-10.17,2.67-14.27,3.37,2.39,0.25.67,0.38,4.24,0.34,1.26,0.3-1.95.46-3,.48L184.35,27c-0.37-.65,6.36-0.69,6-1.23l-9,.72c-0.37-.65,5.22-1.88,11.12-1.79,1.5,0.25-1.12,1.17-1,1.39a33.73,33.73,0,0,1,6.14-.31l-2.5.37c3.28,0.23,5.35-.9,9.3-0.3,1.36,0,4.07.81,4.3,0.42-2.23-.73-2.68-3-1.2-3.62,0.48,0,7.15.66,8.71,1,2.25,0.57-3.35,1.43-1.44,1.91a5.56,5.56,0,0,1,1.83-.49c1.43,0.14-.59.56,2.52,0.45,0.51-.67,6.32,0,1.46-0.58,3-.22,3.23.11,6.8,0-1.14-.42,3.19-1.49,6.23-1.72-0.18.17,0.51,0.38,0.84,0.48,6.23,0,9.58.25,15.38,0.18,0.54,0.15,3.34.31,2.15,0.61a18.58,18.58,0,0,1,3.39-.4c3.48,0.53-4,.14-1.34.8,0.22-.39,4.63-0.6,7.17-0.88-0.79-.58-5.9,0-8.45.24,0-.82,4.41-1.74,10.48-2.21,4.82-.28,2.1.5,2.93,0.37,9.06,0,7.69-1.56,15.23-1.1,3,0.47.15,1,.82,1.41-3.93.27-6-.22-8.7-0.16l3.28,0.19a28.21,28.21,0,0,1-5.3.24c2.51,0.43,15.31-.17,22.31.1,1.24-.2,3.38-0.44,2.36-0.62l-2.21.13c-2-.38,4.15-0.68,1.34-0.81A64.77,64.77,0,0,1,305.77,21l0.8,0.57a12.3,12.3,0,0,0-3.9,0c1.72-.31,6.44.62,8.26-0.3l-1.45-.12L308,21c0.74-.11,1.52-0.24,2.31-0.38l0.59-.11a2.15,2.15,0,0,0,.38-0.11,1,1,0,0,0,.29-0.18,1.37,1.37,0,0,1,.25-0.15l0.35-.19a11.89,11.89,0,0,1,1.5-.59,14.48,14.48,0,0,1,1.63-.34,10.59,10.59,0,0,1,3.27.17,3.32,3.32,0,0,0-1.6-.45l-0.83-.05c-0.4,0-.94-0.13-1.82-0.15,0.76,0.11.37,0.26-.51,0.46l-1.6.51-0.81.36a0.64,0.64,0,0,1-.29.09l-1.28.09c-0.45,0-.85.06-1.12,0.1-0.54.08-.58,0.2,0.33,0.38-2.7-.68-4.65-0.16-8.19-0.75C301,19.87,302.14,20,299,20a5.18,5.18,0,0,1-.68.19h-0.21l0.17,0c-0.13,0-.15,0,0.06,0a7.1,7.1,0,0,1,1.59.26c-1.53.5-6.47,0.6-8.13,0.87-1.84-.05.77-0.24-0.24-0.43l-2.49.4c-0.26-.43-4.91-0.63-0.58-1l-3.91.06a44,44,0,0,0-7.42,0c-1.84-.06-4.65.56-3,0.19l-6.13.37L268,20.83c-6,0-12.44.91-19.37,0.21a71.94,71.94,0,0,1-7.55.21l-0.67-.37c-2.61.16-7.86-.29-9,0.12-2.83-1-12.69-.1-17.29-0.24l-0.17.5c-3.17,0-6.2.16-10.13,0.39l0.24,0.44c-3.39.38-8.71-.25-14.07-0.18a8.62,8.62,0,0,1,2.69,0c-6.41-1-13.5.78-19.31,0.07a15.11,15.11,0,0,1-3.51,0l0.36,0h-0.59l-2-.23c0.61,0.11,1.19.19,1.69,0.23-1.12,0-2.81.07-4.47,0.18l-0.71-.47h-0.38c-1.63-.17-1.31.22-0.44,0.58-0.83.08-1.6,0.17-2.19,0.28-1.32-.76-4.35.25-6.16-0.56-1.12.39-8.34,0.27-9.23,1.1-0.06-.11-0.54-0.16.35-0.16a29.23,29.23,0,0,0-5.36,0l-0.78-.6-4,.78c-2.45-.38-3.46-0.6-1-1-5.89.66-4.77,0.22-9.78,0.87l0.25-.38c-1.79,0-4.65.47-5.72,0.13-2-.4-6.94-0.5-12.65-0.68s-12.26-.41-17.16-1.29c0.54,0.4.34,0.48-.21,0.39-0.26,0-.63-0.13-1-0.24l-0.55-.18a0.63,0.63,0,0,0-.37-0.12L87,20.32c-1.28-.08-2.5,0-2.64.33-0.64-.22-2.14-0.23-0.43-0.62-5.39.81-8,.75-11.35,1.76-0.59-.22,1-0.49.51-0.61a5.43,5.43,0,0,1-2,.21c-0.49-.14.69-0.25,1.44-0.42a36,36,0,0,0-4.46.47,2.16,2.16,0,0,0-1.32.87c-0.59-.21-1.08-0.45-1.52-0.66l-0.33-.14-0.42-.21-0.83-.4-0.4-.17a1.57,1.57,0,0,0-.44.1l-0.85.29-0.41.15-0.31.13-0.64.29c-1-.13-2.43-0.15.65-0.74a29.5,29.5,0,0,1-6.06.35c-2.5-.09-4.89-0.41-5-0.1a6.39,6.39,0,0,0-1.4-.27,13.33,13.33,0,0,0-2-.12l-0.21.2-0.58.46a6,6,0,0,1-.52.36,4.11,4.11,0,0,1-.61.31,2.17,2.17,0,0,1-.91.14A1.73,1.73,0,0,1,43.14,22a2.4,2.4,0,0,1-.35-0.27,2.54,2.54,0,0,1-.3-0.33L42,20.75l-0.62,0a19.8,19.8,0,0,0-2.49.21l0.62,0c0.31,0,.62,0,0.62,0a10,10,0,0,1-2.82.83,12.34,12.34,0,0,0-4,1.5l0-.12A11.27,11.27,0,0,0,30,25.67a7,7,0,0,0-1,1.45c-0.22.4-.44,0.79-0.8,1.58a11.9,11.9,0,0,0-.58,1.58,9.65,9.65,0,0,0-.26,1.16c-0.06.43-.13,1-0.16,1.4l0.47-.41c1,0.7-.59,6.66-0.21,11l0.27-1.58c0.34,2.38-1.37,6.66-1.49,9.06-0.09.52-.14-0.82-0.21-1.55-0.59,6.27.61,0.81,0.76,5.48-0.33.86-.84-1.11-0.9,2-0.27,1.57,1.07,9.12.44,13.41,0.25-.95.51-1.88,0.7,0.29,0.09,3.33-1,9-.16,12a0.9,0.9,0,0,1-.2.6c0.21,2.54.34,8.26,0.78,9.79-0.81,1.17-.61,5.12-0.4,8.77,0,0.45,0,.89.1,1.44a10.49,10.49,0,0,0,.28,1.48,12.09,12.09,0,0,0,.94,2.4c0.68,1.31,1.23,2.08.93,2.31a13,13,0,0,0,1.92,1.85l1.7-.12a2.05,2.05,0,0,1,0,.36c0,0.1,0,0,0,0l0.1,0,0.37,0.18c0.16,0.1.3,0.17,0.47,0.3,0.69,0.46,1.3,1,2.57,1.79l-0.32,0c3.64,2.6,6.91.69,7-.55,0-.44,0-0.86,0-1.25l0-.28a1.1,1.1,0,0,0-.09-0.19v0l-0.58-.39,0,0L42.32,111a0.53,0.53,0,0,1-.15-0.15,0.12,0.12,0,0,1,0,0,0.64,0.64,0,0,1,0,.12,2.44,2.44,0,0,1,0,.27c0,0.11,0,.21-0.08.4l0,0.12s0,0,0,0h0a0.77,0.77,0,0,1,.33,0c0.82,0.62.1,0.34,0,.36l0.56,0.39,0.29,0.2,0.4,0.27a13.35,13.35,0,0,0,1.56.89,14.62,14.62,0,0,0,1.45.57,2.14,2.14,0,0,0,1.25.23c0.39-.49.72-1,1.11-1.4a8.86,8.86,0,0,1,.93-1,4.06,4.06,0,0,1,.62-0.49,3.47,3.47,0,0,1,.63-0.38,7,7,0,0,1,4.17-.56l0.22,0.3,0.22,0.32c0.76,0,3.06,1.08,5.89,2.69l1.16,0.63a10.68,10.68,0,0,0,1.32.63,12,12,0,0,0,1.42.53,12.8,12.8,0,0,0,1.48.41,19.19,19.19,0,0,0,6,.38,1.48,1.48,0,0,1-.84.22,132.18,132.18,0,0,0,15.28-1.88H86.54a6.87,6.87,0,0,0,3.51-.26,10.47,10.47,0,0,0,2.2-1,6.73,6.73,0,0,0,2.17-1.89,7.55,7.55,0,0,1,2-.84l0.36-.08h0.65L97.69,111c0.17,0,.32.06,0.43,0.1l0.16,0.08a1.12,1.12,0,0,0-.4-0.21l-0.35-.15c-0.22-.08-0.42-0.08-0.58-0.13-0.33-.08-0.56,0-0.66-0.08s0-.18.28-0.32c0.61-.24,1.9-0.23.57-0.57l0.51,0c0.17,0,.33.12,0.5,0.18a2.88,2.88,0,0,1,.5.22l0.44,0.32a3,3,0,0,1,.73.7,4.82,4.82,0,0,1,.52.68,1.91,1.91,0,0,1,.37.85,0.45,0.45,0,0,1-.27-0.2l-0.29-.31-0.18-.21-0.2-.18-0.28-.39c-0.35,0-.2.32,0.21,0.82,0.25,0.39.59,0.86,1,1.37l0.15,0.19,0.25,0.05,0.51,0.11a8,8,0,0,0,1.08.17l1,0.08c0.3,0,.57,0,0.85.05l1.5,0.1c0.88,0.07,1.45.15,1.4,0.31,13.6,0.1,26.78.31,39.47,0.17l-1.47-.69,4.42,0c1.16,0.15,1.57.53-1.59,0.55a13.4,13.4,0,0,0,5.37-.58c6.18,0.18-2.4.87-.5,0.86l2.57-.1-0.58-.07a24.6,24.6,0,0,1,6.05-.67c2.4,0.1,1.24.42,2.18,0.43a3.83,3.83,0,0,0,1.45,0l5.57,0-2.24-.53c2.46-.32,5.24-0.06,2.66-0.65,3.79,0.92,20.79,0,23.11.29a83.29,83.29,0,0,1,11.09-.5c-1.05-.1-1.69-0.73,2-0.69-1.32,1.32,6.68.49,9.64,1.42-2.64-.61,10.36-0.22,6.23-1.08,3,0.09.19,0.49,2.5,0.79,7.23-.51,16,0.29,24.82.47,0.15-.17-1.33-0.49.59-0.66l0.73,0.16L253,114c1.16,0.27,2.23.62,2.23,0.62a4.1,4.1,0,0,0,1-.07l0.35-.07a1.46,1.46,0,0,1,.51,0c0.22,0,.45,0,0.7,0l0.41-.07,0.46-.06a5,5,0,0,1,1.69.07c-0.41-.14-1.06-0.36,0-0.42,4.07,0.1,8.14,1.62,12.56,2.74a25.1,25.1,0,0,0,7.09.89,13.79,13.79,0,0,0,7.14-2.31l1.08-.84a0.57,0.57,0,0,1,.47-0.1h3.95q3.38,0,6.75.07c4.5,0.09,9,.29,13.44.68-2.41-.33-0.8-0.37,1-0.38-1.2-.08,0-0.42-0.21-0.66l7.46,0.65c1.36-.65,8,0,8.78-0.66l-2.36.11c3.14-.73-4.4-1.62-3.94-2.55-3.52.83-9.27-1.23-15,0-1.27-.19,1.09-0.3.41-0.52a20.51,20.51,0,0,1-6.5.3l0.37-.1c-4.6,0-7.88,0-11.31-.14l-2.72-.1-1,0h-0.52a3.36,3.36,0,0,0-.43.29l-1.48,1.05a10.25,10.25,0,0,1-5.31,1.55l0.34,0.22c0.18,0.12.35,0.21,0.35,0.21a10,10,0,0,1-3.29-.39c-0.6.08-.56,0.18-0.17,0.29a15.79,15.79,0,0,0,1.82.22c0.7,0,1.43,0,1.82,0s0.52,0.07,0,.35c-0.69-.16-1.89-0.21-3.38-0.44a48.87,48.87,0,0,1-5.09-1.15l-5.13-1.46a14.36,14.36,0,0,1-3.2-1.13c-3.71-.37,1,0.6-2.66.3l-1-.29s-0.94.36-.94,0.39l-0.87.06-0.39,0H258a0.76,0.76,0,0,1-.5-0.2,2,2,0,0,1-1-.59l1.14,0.18a0.57,0.57,0,0,0,.3-0.05,0.22,0.22,0,0,0-.14,0,0.4,0.4,0,0,1-.15-0.07,10.56,10.56,0,0,0-1.54-.28c-1-.12-2-0.2-2.92-0.22-1.87-.08-3.44,0-3.95-0.12l1.66,0.16c0.82,0.07,1.67.18,1.67,0.18-4.75-.15-9.93-0.25-15.09-0.29s-10.26,0-14.76.34l0.69,0.21c-6.88.44-5.51-.21-13.07,0l0.27-.05a38.43,38.43,0,0,1-5.59.36c1.9-.28-3.59-0.45-1.1-0.77-7.46.53-3.69,0.38-8.6,1.26l-1.14-.35a21.77,21.77,0,0,1-5.58.68c3.09-.36-2.42-0.51,1-1-7.93-.67-11.74,1-15.39-0.11-3.62,1.06,6.86.44,4.83,0.69,1.71,0.3-3,.8-5.47.74s-4.32-1.21-10.68-1.08c0.63,0,.67-0.08,1.31-0.09-2.38-.21-4.66.43-7.58,0.06-1.63.63-3.79,0-4.25,0.81l5.83-.28c-3.3.26-6.39,1.22-11.84,0.87a23.15,23.15,0,0,1,3.15-.53c-1.6-.2-3.06.2-4.72,0,0.46-.78,7.08-0.28,10.62-0.93-1.71-.3-6.69.67-4.92-0.19-2.54,1.11-6.27,0-10.56.85l0.28-.47a27.72,27.72,0,0,1-3.34.33l2.26-.63c-3.48.56-6.72-.35-10.06,0,7-.1,1.58.54,4.54,0.84-8.62.73-5-1.13-14.63-.83,1.3-.07,4.91.24,2.86,0.47a44.13,44.13,0,0,1-5.39-.48c-6.38.11,1,.47-1.74,0.76-2.18-.56-3.13.23-5.93,0.39v-0.47c-3.62-.2-4.07,0-4.47.22a1.63,1.63,0,0,1-.89.25H103.1l-0.41,0-0.52-.11-0.42-.63L102,111l0.23,0.13a0.36,0.36,0,0,0,.13.06l0.17,0a3,3,0,0,0,.76-0.24,3.15,3.15,0,0,1-.79,0c-0.31-.34-0.58-0.65-0.74-0.77a1.05,1.05,0,0,0,.42.06,2.31,2.31,0,0,0,.29-0.06l-1-.81c-0.21-.17-0.38-0.33-0.59-0.47l-0.67-.39-0.63-.35c-0.23-.09-0.46-0.17-0.69-0.25l-0.68-.22a6.24,6.24,0,0,0-.69-0.1,9.86,9.86,0,0,0-5.39,1.1c0.51-.06.45,0.19-0.06,0.65A10.87,10.87,0,0,1,89.36,111c-0.88.19-.68,0-0.7-0.08s-0.3.11-1.29,0.07l-0.64,0-0.12,0-0.34.08,0.32-.17h0.8a7.8,7.8,0,0,1,2.37-.73c0.1-.22.69-0.67,0.81-0.92l-1.94.75a4.39,4.39,0,0,1-1.1.21H86.44c-1,.24-1.89.47-2.5,0.6a17.66,17.66,0,0,1,1.76-.26l-3.15,1c-1.57.49-3.14,0.91-3.14,0.91-1,0-.26-0.28.5-0.55a37.42,37.42,0,0,1-4,.88c0.45-.45.28-0.77,2.9-1.35,0,0-1.48.36-2.95,0.61s-2.92.4-2.92,0.4c-0.2-.06-0.93-0.2-1.52-0.32s-1-.29-0.64-0.33a32.44,32.44,0,0,1-5.15-.9c-0.47-.14-0.92-0.34-1.42-0.53l-1.71-.73c-1.12-.49-2.28-1-3.42-1.53a16.39,16.39,0,0,1-1.87-.43,12.61,12.61,0,0,0-6.25-.67,8.3,8.3,0,0,0-3.34,1.39l-0.68.52a0.8,0.8,0,0,0-.15.13l-0.06.07a1.55,1.55,0,0,0-.23.32,0.36,0.36,0,0,1-.06.09h-0.1l-0.21,0-0.48-.1-0.08-.17a7.71,7.71,0,0,0-.71-0.74,4.61,4.61,0,0,0-1.53-1L43,107.34l-0.38-.08-0.37,0h-0.4a3.4,3.4,0,0,0-.83.13,3.66,3.66,0,0,0-1.07.55,4,4,0,0,0-.69.66c-0.09.11-.13,0.18-0.2,0.28l0,0.07v0a0.14,0.14,0,0,0,0,0,0.27,0.27,0,0,0,0,.08,0.24,0.24,0,0,0,.34.16s0,0,.26-0.26a3.19,3.19,0,0,1,.83-0.65,1.23,1.23,0,0,1,1-.25,3.66,3.66,0,0,1-.44.23,3.19,3.19,0,0,0-1,.79,1.06,1.06,0,0,0-.25.4v0.11c0,0.08,0,.18,0,0.3v0.49c0,0.06,0,.15,0,0.17a1,1,0,0,1-1,.09,0.4,0.4,0,0,1-.24-0.35,0.92,0.92,0,0,0-.11-0.68,1.13,1.13,0,0,1-.36,0l-0.11,0a0.41,0.41,0,0,1-.2-0.08L37,109.1c-0.48-.28-1.07-0.64-1.82-1l-0.64-.28c-0.27-.09-0.56-0.17-0.84-0.23a5.71,5.71,0,0,0-1.08-.07,5.18,5.18,0,0,0-1.21.3l2.21,0.3a5.61,5.61,0,0,1-2.06-2.75A9.94,9.94,0,0,0,33.54,107.67ZM30.67,60.49c0.1,1,.4,2.9.13,3.61C30.25,63,30.51,62.14,30.67,60.49ZM69.84,24.83a7.23,7.23,0,0,1-3.23-.45l1.53,0.23Zm211.78-4.09-0.1,0C279.35,20.61,280.11,20.67,281.62,20.73Zm4.49,0.12c0.45-.07.42-0.14,0.23-0.2a10.37,10.37,0,0,1-2.47.14A5.46,5.46,0,0,0,286.11,20.85Zm-122.3,93.6-0.88-.11C164.9,114.17,164.35,114.3,163.8,114.45Z"/><path class="cls-2" d="M61.87,24.06a0.69,0.69,0,0,1-.48-0.17C61,24,61,24.13,61.87,24.06Z"/><path class="cls-2" d="M58.91,108l0.16,0.06a0.42,0.42,0,0,0,.19,0Z"/><path class="cls-2" d="M216.57,25.78a10.19,10.19,0,0,1-1.79-.23C214.74,25.67,215.16,25.76,216.57,25.78Z"/><path class="cls-2" d="M309.8,19.4l-2.82.25a16.17,16.17,0,0,1,2.56,0C309.46,19.58,308.93,19.45,309.8,19.4Z"/><path class="cls-2" d="M334.27,22a3.6,3.6,0,0,1,1.29,0l-0.06-.25-0.72-.08-0.62.07a3.65,3.65,0,0,0-.72.28l-0.14.08,0.07,0s0,0.1.08,0l0,0h0C333.59,22.09,333.85,22,334.27,22Z"/><path class="cls-2" d="M312,20.61c0.36,0.23,2.2-.67,4.47-0.71h-0.4c0.33-.27-0.11-0.4-1-0.32A8.82,8.82,0,0,0,312,20.61Z"/><path class="cls-2" d="M317,19.91a10.65,10.65,0,0,1,2,.25C319.31,20,318.24,19.91,317,19.91Z"/><path class="cls-2" d="M291.8,20.47c1,0.08.59-.52,1.13-0.37C294,19.57,286.58,20.85,291.8,20.47Z"/><path class="cls-2" d="M314.08,21.28l-0.41-.14L313.24,21a2.87,2.87,0,0,0-.49.38l-0.45.41s0.43-.18.87-0.32Z"/><path class="cls-2" d="M298.33,22.29l3.22,0a1.41,1.41,0,0,1,.86-0.19A27.5,27.5,0,0,0,298.33,22.29Z"/><path class="cls-2" d="M302.41,22.15A20.82,20.82,0,0,0,305,22C304.44,22,303.23,22.06,302.41,22.15Z"/><polygon class="cls-2" points="309.85 22.41 308.89 22.36 306.62 22.41 309.85 22.41"/><path class="cls-2" d="M263.71,22.85l-3.51.19c-0.36.17,0.6,0.26,1.91,0.18C262.94,23.09,264.25,23,263.71,22.85Z"/><path class="cls-2" d="M274.36,24a5.33,5.33,0,0,1-1.56-.35l-0.1.61Z"/><path class="cls-2" d="M264.11,24.32c-0.35.17-5.1,0.56-.64,0.45C263.82,24.61,267.34,24.41,264.11,24.32Z"/><polygon class="cls-2" points="211.12 24.16 212.02 24.15 211.88 23.15 211.12 24.16"/><path class="cls-2" d="M164.43,26.75c4.17,0.24,1-.61,4.76-0.32,1-.24-3.08-0.24-2.08-0.44C164.6,26.23,163.27,26.09,164.43,26.75Z"/><path class="cls-2" d="M167.11,26c0.4,0,.83-0.09,1.28-0.15A12.71,12.71,0,0,0,167.11,26Z"/><polygon class="cls-2" points="326.1 115.21 328.78 115.41 327.05 115.08 326.1 115.21"/><path class="cls-2" d="M331.24,114.47l0.63,0.63,1.61-.57A9.58,9.58,0,0,1,331.24,114.47Z"/><path class="cls-2" d="M31.94,53l-0.15-.2a7.8,7.8,0,0,0-.2,2.3Z"/><polygon class="cls-2" points="31.47 89.38 31.48 88.76 30.91 89.92 31.47 89.38"/><path class="cls-2" d="M38.59,108.72s-0.08.1-.14,0a1.09,1.09,0,0,1,.17.29C38.72,109.15,38.76,109.15,38.59,108.72Z"/></svg>