<svg id="氣息左邊" xmlns="http://www.w3.org/2000/svg" viewBox="0 0 130 46"><defs><style>.cls-1{opacity:0.4;}.cls-2{fill:#fff;}.cls-3{opacity:0.13;}</style></defs><title>fufubro_breath-30</title><g class="cls-1"><path class="cls-2" d="M128.23,13.41a0.43,0.43,0,0,0-.15-0.33l0,0.05-0.31-.42,0.06,0.13c0,0.1.11,0.21,0.17,0.31A0.63,0.63,0,0,0,128.23,13.41Z"/><path class="cls-2" d="M126.94,15.93l-0.05-.34-0.07.47-0.1.46,0.12-.29Z"/><path class="cls-2" d="M124.22,16.57c0.58,1.36,1-.45,1.55-0.07l0.16,0.3-0.07-1.17C125.34,15.93,124.76,16.89,124.22,16.57Z"/><path class="cls-2" d="M122.16,13.81c0.19,0.53-.23.53,0.37,0.11a1.2,1.2,0,0,1-.09-0.13A0.66,0.66,0,0,1,122.16,13.81Z"/><path class="cls-2" d="M122.44,13.79c0.28-.09-0.27-0.42,0,0h0Z"/><path class="cls-2" d="M121.17,14.34l0.31-.55a1.1,1.1,0,0,1-.4-0.59C120.72,13.53,120.85,13.84,121.17,14.34Z"/><path class="cls-2" d="M121,15.42l0.17-.24C121.07,15.06,121,15,121,15.42Z"/><path class="cls-2" d="M121.49,14.69l-0.36.5c0.09,0.22.17,0.68,0.17-.19C121.33,15.42,121.36,15,121.49,14.69Z"/><path class="cls-2" d="M121.77,14.86c0.26,0.27.58,0.41,0.27,1C122.75,15.49,122.46,14.53,121.77,14.86Z"/><path class="cls-2" d="M124.37,18l0.39,0.35,0.16-.52C124.84,18.14,124.26,17.61,124.37,18Z"/><path class="cls-2" d="M118.64,14a11.14,11.14,0,0,0,.31,1.17l0.24-.39A1.34,1.34,0,0,1,118.64,14Z"/><path class="cls-2" d="M119,15.13l-0.38.57C119,15.72,119,15.45,119,15.13Z"/><polygon class="cls-2" points="121.13 17 121.68 15.81 120.99 17.04 121.13 17"/><polygon class="cls-2" points="116.96 14.11 117.13 13.39 116.8 14.49 116.96 14.11"/><path class="cls-2" d="M115.86,14.36c0.12-.6-0.35-1-0.19-1.33a2.3,2.3,0,0,0-.69,1.12C115.2,13.88,115.47,13.93,115.86,14.36Z"/><path class="cls-2" d="M114.64,14.84a3.64,3.64,0,0,0,.33-0.69A1.91,1.91,0,0,0,114.64,14.84Z"/><path class="cls-2" d="M117.8,15.64a1.56,1.56,0,0,0-.45-0.82l0.27,0.83h0.18Z"/><path class="cls-2" d="M117.63,15.67v0h-0.38Z"/><path class="cls-2" d="M117.84,15.63h0C117.83,15.72,117.84,15.74,117.84,15.63Z"/><path class="cls-2" d="M119.85,16.4c-0.19.51-.68,1.1,0,1.74C119.91,17.54,119.56,17.17,119.85,16.4Z"/><path class="cls-2" d="M118.19,16.67l0.5,0.14a1.52,1.52,0,0,1-.06-0.79Z"/><polygon class="cls-2" points="117.99 16.97 118.19 16.67 118 16.62 117.99 16.97"/><path class="cls-2" d="M115.53,15.57a0.83,0.83,0,0,1-.64.52,1.6,1.6,0,0,0,.85.18C115.75,16,115.82,15.51,115.53,15.57Z"/><path class="cls-2" d="M116.56,15.69l0,0.05C116.55,15.82,116.58,15.84,116.56,15.69Z"/><path class="cls-2" d="M112.37,16.3l0.05,0.15V16.3h-0.05Z"/><path class="cls-2" d="M115.8,16.43c0.22,0.14.32-.08,0.41-0.36a1.08,1.08,0,0,1-.47.2C115.73,16.39,115.74,16.47,115.8,16.43Z"/><path class="cls-2" d="M114,15.3a2.88,2.88,0,0,0,.4.44C114.25,15.48,114,15.08,114,15.3Z"/><path class="cls-2" d="M116.42,15.52l0,0C116.36,15.3,116.38,15.39,116.42,15.52Z"/><path class="cls-2" d="M116.42,15.52a2.39,2.39,0,0,0-.21.55,1.1,1.1,0,0,0,.31-0.32A1.48,1.48,0,0,1,116.42,15.52Z"/><path class="cls-2" d="M112,21.82c0-.8.49-1.55,1-0.75,0.43-.63-0.09-3.2-0.6-4.62a1.36,1.36,0,0,1-.41,1.16c0.2,0.43,1.14.93,0.79,1.68-0.61.46-.55-0.24-0.89-0.64,0.34,1-.72,1.49-0.48,2.92L112,21A1.45,1.45,0,0,0,112,21.82Z"/><path class="cls-2" d="M113.33,16.45l0.19-.12a2.52,2.52,0,0,1-.76-1,1.59,1.59,0,0,0-.34,1l1,0Z"/><path class="cls-2" d="M114.39,16.26c-0.07.87-.52,1.28-0.15,2.18,0.58-.11.34-0.75,0.65-1.15-0.91.29,0.22-.5-0.49-0.93a1.13,1.13,0,0,1,.48-0.27,2.45,2.45,0,0,1-.51-0.35l0,0.05h0c0,0.1.07,0.17,0,.11l0,0a2.47,2.47,0,0,1,0,.33c-0.28-.15-0.06-0.22,0-0.33V15.8h0l-0.88.55A1.17,1.17,0,0,0,114.39,16.26Z"/><path class="cls-2" d="M119.55,20.06a0.54,0.54,0,0,1-.06-0.19C119.45,20,119.43,20.05,119.55,20.06Z"/><path class="cls-2" d="M119.09,19.59c0.05-.13.07-0.47,0.3-0.41a0.91,0.91,0,0,1,.1.69,0.74,0.74,0,0,0-.08-1l-0.05.13a3,3,0,0,1-1-1.39A10.46,10.46,0,0,0,119.09,19.59Z"/><path class="cls-2" d="M116.71,18.17l-0.73.51,0.47,0.7-0.07-.44C116.85,19.05,116.69,18.52,116.71,18.17Z"/><polygon class="cls-2" points="112.25 15.88 112.29 14.96 111.94 16.27 112.25 15.88"/><polygon class="cls-2" points="111.26 16.05 111.24 15.26 111.01 15.75 111.26 16.05"/><path class="cls-2" d="M53.9,12.42l-0.29.13A0.74,0.74,0,0,0,53.9,12.42Z"/><path class="cls-2" d="M55.43,13.08l0.18-.35C55.46,12.91,55.37,13,55.43,13.08Z"/><path class="cls-2" d="M87.28,15.63c-0.1-.77-0.08-1.93-0.27-1.06l-0.13.86C87.09,15.3,87.2,15.42,87.28,15.63Z"/><path class="cls-2" d="M70,14.18v0.28l0.54-.67Z"/><path class="cls-2" d="M68.33,17.38l-0.19-.69A1.89,1.89,0,0,0,68.33,17.38Z"/><path class="cls-2" d="M46.63,11.35l-0.27.88C46.75,12.23,46.59,11.78,46.63,11.35Z"/><path class="cls-2" d="M101,16.74a1.37,1.37,0,0,0-.71-0.52C100.6,16.72,100.88,17.46,101,16.74Z"/><path class="cls-2" d="M57.89,4.1a0.72,0.72,0,0,0-.38.42A0.59,0.59,0,0,0,57.89,4.1Z"/><path class="cls-2" d="M99.44,16.22a2.36,2.36,0,0,0,.15.2,0.84,0.84,0,0,1,.67-0.21C100,15.85,99.72,15.62,99.44,16.22Z"/><path class="cls-2" d="M17.29,17.23l-0.11,0C17.24,17.28,17.27,17.27,17.29,17.23Z"/><path class="cls-2" d="M4.37,17.3a1.33,1.33,0,0,1,.24-0.38A0.43,0.43,0,0,0,4.37,17.3Z"/><path class="cls-2" d="M107.2,15.89c0.21-.07,0-0.1,0,0h0Z"/><path class="cls-2" d="M108.41,19.28a1,1,0,0,0-.07.43A1.28,1.28,0,0,1,108.41,19.28Z"/><path class="cls-2" d="M97.21,21.59h0C97.25,21.76,97.24,21.73,97.21,21.59Z"/><path class="cls-2" d="M107.54,16.28a1,1,0,0,0-.28-0.25A1.1,1.1,0,0,0,107.54,16.28Z"/><path class="cls-2" d="M107.48,15.87l0.19,0.08C107.69,15.8,107.66,15.71,107.48,15.87Z"/><path class="cls-2" d="M106.91,16a0.57,0.57,0,0,1,.35.08,0.17,0.17,0,0,1-.05-0.13Z"/><path class="cls-2" d="M31.66,9.32L31.6,9.25C31.46,9.64,31.54,9.57,31.66,9.32Z"/><path class="cls-2" d="M79.28,22.3l0,0,0,0Z"/><path class="cls-2" d="M78.3,22.59c0.73-.87.86-0.67,1-0.36L80,19.82Z"/><path class="cls-2" d="M50.2,11.31l0.22,0.9c-1,1-1.24.45-1.17,1.64,0.94-2.55,1.9.37,2.93-2.12l0.13,0.66c-0.08-.06-0.16.08-0.24,0,0.17,1.46,1.17-1.66,1.86-1a0.7,0.7,0,0,1,0,1l0.89-.37c0.17,0.12-.05.54-0.22,0.42l1.07,0.19,0,0.07a9.51,9.51,0,0,1,1.13-1c0.11,0.46-.23.22-0.3,0.56l0.8-.39a0.9,0.9,0,0,1-1.09.95c-0.51,2.72.71-.45,1.22,1.47l-0.65.11c-0.25,1.56.36,1.21,0.58,2.34,0.06-.52-0.25-2.72.6-3.1,0.09,0.26.27,0.44,0.8,0.07-0.37.89,0,.8,0.45,0.91L58.64,15.8a4,4,0,0,0,1.25-1.21c0.43,0.31.14,1.27-.07,2.09,0.68,0.5.09-1.68,1.08-1.53,0.44,0.72,1.09.42,2.14,0,0.27,0.59-.38.69-0.37,1.09l0.79-.77a0.62,0.62,0,0,1-.14.48c0.48-.22.53-1.17,1.18-1.27,0.69-1.24.26,2.35,1.53,1.15A4.67,4.67,0,0,1,65.51,17a7,7,0,0,0,2.34-1.37l0.29,1c-0.08-1.08,1-1.87,1.83-2.52,0-.5,0-0.93,0-1.15l1.08-.28a2.13,2.13,0,0,1-.58,1l0.27-.22a2.4,2.4,0,0,1-.83,1.74l0-.85a7.65,7.65,0,0,0-1.29,2,0.71,0.71,0,0,1,.4-0.2,1.29,1.29,0,0,0-.27.46c0,0.14.17-.09,0.43-0.33l-0.38,1.39,0.27-.5,0.71,1.28c1.33-1,2.82-2.65,4.26-2.68a9.27,9.27,0,0,0-1.24,2.68c0.19-1.35-1.16.11-1.68-.4a0.76,0.76,0,0,1-.2.93l1.59-.62c-0.42.92-.06,0.8,0.07,1.31,0.57-1.94,1.36-.87,2.05-1.24-0.24.63-.61,1.22-1.11,0.83,0,1.65,1.71-1.82,1.81-.39-0.14,0-.18-0.17-0.36.12a0.55,0.55,0,0,1,.73.81l-0.14,0c0.81,0.6,2.75,1.18,3.54-.34-0.08.21-.91,1.84-1.1,2.14l3.81-4.62c-0.7,1.29-1.47,4.74-2.54,5.19a0.62,0.62,0,0,0,1,.33A4.56,4.56,0,0,1,81,20.45,8.76,8.76,0,0,0,81.22,23c-0.11-.38,1-2.41,1.31-2.2a23,23,0,0,1-1,2.29l0.87-.87,0.86-.88a4.83,4.83,0,0,0-.72,2.44c0-.23.23-0.14,0.46,0a1.55,1.55,0,0,0,.82.27l-0.34-.66c1.28,0.78,2.08-2.68,3.08-2.35-0.21.43-.92,2.73-0.36,3.13,0.54-1,2.07-5.26,3-6l0.08,0.67L90,18.13a30.91,30.91,0,0,1-3.28,6.42c0.35,0.58,0,.78.66,0.81a0.75,0.75,0,0,1-.7.89l1.5,0.6c0.1-1.34,1.33-1.18,1.38-2.32,0,0-.43.31-0.88,0.6l-0.91.58c0.13-1.35,1.42-3.64,2.36-3.33,0.2,0.55-.42,2.37-0.45,2.81,0.18-.45,1.05-0.8,1.12-0.46l-0.5.68c0.54,0.55,1.08-1.7,1.66-.36,0.23,0.11.59,1.77,0.68,1a29.89,29.89,0,0,1,.26-7.43,11.89,11.89,0,0,1,1.29,2.29c0.32,1.22-.7,2.84-0.44,3.88a2.49,2.49,0,0,1,.36-0.95c0.23,0.33-.16,1.13.38,1,0.15-1.36,1.07.17,0.3-1.14,0.53-.36.54,0.31,1.14,0.26a5.43,5.43,0,0,1,1.13-3.36,3.3,3.3,0,0,0,.12,1c1,0.15,1.58.78,2.55,0.79a1.85,1.85,0,0,1,.36,1.32,1.19,1.19,0,0,1,.57-0.74c0.58,1.18-.67.18-0.22,1.6,0-.79.78-1.09,1.2-1.59-0.14-1.22-1-.23-1.41.26A5.8,5.8,0,0,1,102,19c0.78-.43.36,1.09,0.49,0.84,1.5,0.26,1.2-3,2.45-1.78,0.52,1.06.08,2.14,0.21,2.91-0.64.42-1-.66-1.45-0.61l0.55,0.5c-0.2.36-.63,0.64-0.87,0.34,0.43,1,2.54.14,3.73,1a1.4,1.4,0,0,0,.34-1.18l-0.36.17c-0.37-.85.63-1.23,0.16-1.61,0.46-.63,1-1.61,1.66-1.15l0.19,1.22c0-.36-0.48-0.71-0.66-0.33,0.25-.55,1.14,1.61,1.36,0l-0.52-.82c0.45-.65,1-2,1.58-1.64-0.35-1.19-.13.15-0.64-1.24,0.47,1.74-1.52,0-.83,1.84-0.52-1.61-.79-0.66-1.43-2,0,0.4.24,0.76-.27,0.59a2.33,2.33,0,0,1-.09.36l0,0,0,0c0,0.06,0,.07,0,0a1.63,1.63,0,0,1,.28.6c-0.21.94-1,.94-1.26,1.44-0.31-.18.11-0.47-0.07-0.89l-0.38.74c-0.07-.9-0.84-1.46-0.16-2l-0.63,0c-0.39-.5-0.9-0.68-1.2-0.3-0.3-.19-0.73,1-0.48.3l-1,.58V16.55c-1-.09-2,1.5-3.11-0.12a1.06,1.06,0,0,1-1.21.24l-0.09-.78c-0.42.26-1.23-.81-1.42,0-0.39-2.09-2-.51-2.68-0.93L94.1,16a2.65,2.65,0,0,0-1.62.55l0,0.9c-0.59.69-1.31-.75-2.14-0.73,0.09-.34.29-0.23,0.42,0-0.41-1-.91-0.75-1.45-0.37s-1.13.82-1.39,0c-0.24.28-.37,0.14-0.45-0.1a0.07,0.07,0,0,0,.06,0l-0.07,0c-0.05-.17-0.1-0.36-0.16-0.52a1.88,1.88,0,0,0,.11.51,1.18,1.18,0,0,0-.66.23l0.14-1-0.05,0a0.21,0.21,0,0,0,0-.09h0l-0.31,1.2h0l0-.17,0.14-.6,0.06-.25a0.7,0.7,0,0,0,0-.13l0,0.05,0,0.15a6.27,6.27,0,0,0-.17,1,2.52,2.52,0,0,0-.39.48c0.3-1.54-.59.37-0.35-1.32-0.44.7-1.39,0.12-2.17,1.64,0.07-.21,0-0.34.18-0.3-0.21-.29-0.41-0.59-0.84-0.24l0.34-1.18L82,16.93a2,2,0,0,1,.65-2c-1.44,1-.93.2-2.24,1.21l0.34-.72c-0.28-.09-1.13.71-1,0C79.7,13.8,76.8,14,75.79,12c-0.61,2.27-.31-1.27-1.09.36a1.69,1.69,0,0,1,.47-1.26c-1,.16-0.85-1.32-2-0.15,0.13-.55.49-0.67,0.54-1-0.11.08-.44,0.33-0.4,0a0.82,0.82,0,0,1,.52-0.54c-0.85-.26-1.6,1.26-2.29,2.7-0.12-.87-0.36-0.86-1.07,0,0.06-.54,0-1.15.62-1.1-0.26-.19-1.44-1.45-2-0.28,0-.34-0.36-0.26-0.49-0.15a3.54,3.54,0,0,0-1.3-.63l0.09,0.27c-0.85,1.31-.66.09-1.24,0l0.08-.14c-0.73-1.52-.71.28-1.37-1.38l-0.31.91C63.66,11.5,64,8.09,63,8.54l0,0.61c-0.64.5,0.06-3-.21-3.41,0-.2.24-0.21,0.4-0.29-0.5-1.53-.61,1.11-1.44,1.08,0.13-.68.83-1.52,0.39-1.84,0-.61-2.25,1.46-2.42,0A1.4,1.4,0,0,1,59.2,6c-0.58,0-.67-2.39-1.75-1.05a1,1,0,0,1,.06-0.42C57,4.74,55.95,4.66,55.39,5.4c0.8-3.25-3.06.58-2-2.29,0,0-1.34-.3-1.38-0.29l0.13-.29c-0.87-.46-1.41.12-2,0.75a0.55,0.55,0,0,1,.09-0.64,7.12,7.12,0,0,0-.91-0.45C49.2,2.14,49.07,2.12,49,2.08a1.36,1.36,0,0,0-.33,0c-0.51.09-.79,0.51-1.38,1.33l-0.08-1C46.89,3,45.38.83,44.15,2a1,1,0,0,1,.13-0.44c-1.35,1.19-3.44-2.66-3.81,1L39.6,3.4C40.78,3.62,39.51,5,40,5.55c-0.43.24-1.23-1-.68-1.23l0.1,0.17c0.1-1.89-1.49-.56-1.55-1.84a18.7,18.7,0,0,1-3.5-.12,13.91,13.91,0,0,0-3.45-.09l0.5,1.4-0.77.06c-0.26-.3-0.47-1.08.09-1.12C30.31,2,29.95,3.63,30,3.95c-1.18-.38.1-1.75-0.23-1.73l-0.43.19,0.13,0.15c-0.25.65-.15,1.28-0.82,1.33-0.47-.21-0.4-0.84-0.58-0.86,0-.1-0.09-0.14-0.26,0l-1,.12,0.65,1c-0.29.66-.9,0.16-0.16,1.33A1.91,1.91,0,0,0,25,4.89c-0.85.26-1.61,0.68-1.91,0.44a1.83,1.83,0,0,1-1.61,1.33c0.26,0.16.81,1.34,0.17,1.41-0.75-2.58-1.5-.66-2.75-2.24,0.93,1-1.58,1.08-.15,2.42-0.58,0-.45-0.9-1.1-1.29A2.29,2.29,0,0,1,15.74,8a4.55,4.55,0,0,0-2.3.84,2.22,2.22,0,0,1,.66,1.26l-0.83-.5-0.84-.49c-0.18.33,0.88,1.85-.29,1.17a0.85,0.85,0,0,1,.48.71,4.12,4.12,0,0,0-2.26,1,12.07,12.07,0,0,0-1.73,1.74,12,12,0,0,1-.86.87,5.76,5.76,0,0,1-.94.78,4.9,4.9,0,0,1-1.19.57,6.23,6.23,0,0,1-1.51.33c0.81,0.1.67,0.37,0.47,0.65a3.22,3.22,0,0,1,1.05.84l-0.94.09c-0.48,0-.94.11-0.94,0.11,0.9,1-.8,1.22.14,2.08L4,19.56c0.88,1.31,3.11,1.38,4.57,2.63-0.51-.74.21-0.65,0.89-0.61s1.28,0,.65-1.13c0.42,0.11.36,0.53,0.76,0.75-0.48-.71-0.42-1,0.2-1.14l0.11,0.18a2.59,2.59,0,0,1,1.39-1,16.7,16.7,0,0,0,1.89-.56L13.72,18a1.14,1.14,0,0,1,.84.15c-0.31-.67-0.5-0.54-0.72-0.43S13.43,18,13,17.3a1.26,1.26,0,0,0,1.72-.09,1.09,1.09,0,0,1,1.7.21c0.42-.26-0.76-0.81-0.33-1.08l0.45,0.41-0.33-.7a1.68,1.68,0,0,1,1.19.85,0.5,0.5,0,0,0-.15.32c0.73,0.36.82-.85,1.08-0.73,0,0-.59-0.05-0.59-0.05,0.86-1.2,2.66-1.31,3.37-2.94l-0.28-.36c0.61-1.21,1,.08,1.87-0.69v0.11a0.89,0.89,0,0,1,.57-0.89c-0.08.6,0.86,0.75,0.71,1.43,0.73-1.25.27-.84,0.46-2.66l0.4,0.65c0-.72,0-1.06.47-1.43-0.28.76,0.69,1,.43,1.93,1.58,1.17,1.3-2.09,2.46.07,0-2.12-1.32-.85-1.13-1.35-0.44-.58.06-1.6,0.51-1.49,0.41-.06,1.3,2.38,2.22,2.11-0.1,0-.07.17-0.16,0.18,0.46,0.41.56-.83,1.17-0.09,0-1.26.59,0,.37-1.61L30.39,10c0.42-.5.58-2.41,1.6-1.69a3.11,3.11,0,0,1-.33,1.05c0.33,0.41.42-.39,0.76,0,0.19,1.58-1,.54-1.35,1.83,0.38,0.61.8-1.32,0.84,0.42,0-2.21,1,.08,1.37-1.65l0.1,0.94a1.08,1.08,0,0,1,.43-0.63l-0.17,1.26c0.38-1.11,1.15.78,1.57,0.15-1.05.16-.38-1.1-0.93-1.73,1.19-1.43,1.08,2.36,2.48,1.73-0.18.15-.8-0.47-0.54-1a2.13,2.13,0,0,1,.93,1c1-.27-0.24-1,0.13-1.57,0.44,1.13.45-.51,0.87-0.91l0.08,1c1.18,0.53.16-2,1.25-1.36l-0.35,1.37,0.51-.39,0,1.1c0.53-.86.73-0.66,1.31-0.36-0.16-.68,0-1.75.52-1.8,0.37,0.56-.16.92,0.56,0.76-0.15.61-.3,1.37-0.64,0.49,0,0.32-.14.61-0.16,0.92,0.39,0.65.93,0.13,1.19,0.11a0.44,0.44,0,0,1-.29-0.22l1-1.36a1,1,0,0,1-.08.94,3.36,3.36,0,0,1,.66-0.65,3.18,3.18,0,0,1-.47,2l1-.9A3.24,3.24,0,0,1,44.57,12c0.54,0.47,1.35-1.5,2.08-.88a0.69,0.69,0,0,1,.28-0.41,2.58,2.58,0,0,1,.63.32l0.29,0.17a0.32,0.32,0,0,0,.16.09c0.08,0,.15-0.06.32-0.45,0,0,0,.35-0.07.7l-0.07.47a1.39,1.39,0,0,0,0,.22,1.57,1.57,0,0,0,.29-1A1.12,1.12,0,0,1,49,10.15c0.74-.25-0.11,1.22,0,1.65,0.45-.62,1.57-1.74,1.82-0.45A0.88,0.88,0,0,1,50.2,11.31Zm7.69,2.31c-0.22.13-.75,0.59-0.64,0C57.83,12.68,57.76,13.23,57.89,13.62Zm12.46,2.74c-0.24.25-.34,0-0.39-0.39A0.39,0.39,0,0,1,70.35,16.36Zm34.54,0.4,0,0C104.52,16.45,104.65,16.59,104.89,16.77Zm0.74,0.4a0.55,0.55,0,0,0,0-.4,0.25,0.25,0,0,1-.39.2C105.32,17.22,105.42,17.39,105.63,17.17ZM28.06,3.4l0.2,0.21C28,4,28,3.7,28.06,3.4Z"/><path class="cls-2" d="M68.52,17a2.53,2.53,0,0,1,.14-0.51A0.52,0.52,0,0,0,68.52,17Z"/><path class="cls-2" d="M46.68,11.18h0a1.11,1.11,0,0,0,0,.17Z"/><path class="cls-2" d="M94.06,25.29a1.07,1.07,0,0,1-.28-0.51A0.43,0.43,0,0,0,94.06,25.29Z"/><path class="cls-2" d="M109.38,15.36l-0.45.28a0.44,0.44,0,0,1,.43.29C109.34,15.7,109.24,15.38,109.38,15.36Z"/><path class="cls-2" d="M113.84,21c0.06-.12.15,0,0.2-0.15L114,20.43C113.7,20.49,113.52,20.86,113.84,21Z"/><path class="cls-2" d="M110,18.53c0.08,0.81.36,0.51,0.68,0.34h-0.06C110.64,17.74,110.32,18.13,110,18.53Z"/><path class="cls-2" d="M110.75,18.84a0.42,0.42,0,0,1,.3,0C111.06,18.34,110.92,18.71,110.75,18.84Z"/><path class="cls-2" d="M106.53,16.59c0.16,0.2.06-1,.16-0.71C106.82,14.84,105.71,17.17,106.53,16.59Z"/><polygon class="cls-2" points="110.42 21.18 110.24 20.19 110.1 21.01 110.42 21.18"/><path class="cls-2" d="M107.75,20.58l0.54,0.25a0.4,0.4,0,0,1,.13-0.35C108.1,20.47,107.73,20.29,107.75,20.58Z"/><path class="cls-2" d="M108.42,20.49a0.39,0.39,0,0,0,.42-0.18A0.79,0.79,0,0,0,108.42,20.49Z"/><polygon class="cls-2" points="109.71 21.53 109.54 21.33 109.16 21.28 109.71 21.53"/><path class="cls-2" d="M102,20.56l-0.58.29c-0.06.34,0.1,0.55,0.32,0.42A0.8,0.8,0,0,0,102,20.56Z"/><path class="cls-2" d="M103.86,23.27a2,2,0,0,1-.27-0.76v1.24Z"/><path class="cls-2" d="M102.14,23.59c-0.05.34-.85,1-0.1,0.91C102.1,24.17,102.69,23.87,102.14,23.59Z"/><polygon class="cls-2" points="93.32 21.84 93.47 21.84 93.56 19.8 93.32 21.84"/><path class="cls-2" d="M84.4,25.64c0.73,0.65.48-1.18,1.09-.43,0.29-.43-0.5-0.61-0.21-1C84.69,24.62,84.49,24.29,84.4,25.64Z"/><path class="cls-2" d="M85.28,24.23A2,2,0,0,0,85.59,24,1,1,0,0,0,85.28,24.23Z"/><polygon class="cls-2" points="2.39 18.05 1.75 18.2 2.49 18.35 2.39 18.05"/><path class="cls-2" d="M3,19.7L1.92,19,2.7,20C2.72,19.83,2.76,19.6,3,19.7Z"/><path class="cls-2" d="M58,16.5l0.15-.28A0.4,0.4,0,0,0,58,15.7Z"/><polygon class="cls-2" points="52.94 13.41 53.02 13.47 53.27 12.31 52.94 13.41"/><path class="cls-2" d="M48.27,13.33c0.12,0.09.35-.12,0.47,0C48.39,13.42,48.64,11.91,48.27,13.33Z"/></g><g class="cls-3"><path class="cls-2" d="M45.59,35.26c17-2.58,33.47,7.35,50.82,5.56a52.61,52.61,0,0,0,14.27-3.88c2.61-1,5.21-2.16,6.79-3.63s1.95-3.39.09-4.78c-2.69-2-8.4-2.09-13.22-2-16.46.3-33.1,0-49.1-2-7.63-.95-15.2-2.29-23.06-2.29-6,0-13.14,1.38-14,4.38-0.52,1.85,1.73,3.69,4.76,4.77a50.59,50.59,0,0,0,10.31,2q26.09,3.34,52.52,5.94"/><path class="cls-2" d="M86,34.48c0.36,0.11.31-.73,0.38-0.88A0.66,0.66,0,0,0,86,34.48Z"/><polygon class="cls-2" points="79.7 35.69 79.84 35.36 78.86 36.09 79.7 35.69"/><path class="cls-2" d="M74,35c0.39,1.48,2.08,0,3,.62L77.19,36l0.57-1.09C76.52,34.95,74.84,35.52,74,35Z"/><path class="cls-2" d="M71.31,31.62c0.13,0.57-.71.4,0.69,0.25a1.12,1.12,0,0,1-.11-0.15A2.8,2.8,0,0,1,71.31,31.62Z"/><path class="cls-2" d="M71.88,31.71c0.6,0-.34-0.51,0,0h0Z"/><path class="cls-2" d="M69.09,31.72l0.84-.4c-0.13-.34-0.82-0.5-0.54-0.71C68.56,30.79,68.69,31.13,69.09,31.72Z"/><path class="cls-2" d="M68.23,32.67l0.43-.16C68.6,32.36,68.5,32.3,68.23,32.67Z"/><path class="cls-2" d="M69.57,32.16l-0.91.34c0.09,0.24.05,0.7,0.41-.11C69,32.8,69.17,32.42,69.57,32.16Z"/><path class="cls-2" d="M70,32.44c0.41,0.36,1,.62.12,1C71.69,33.43,71.57,32.41,70,32.44Z"/><path class="cls-2" d="M73.57,36.46l0.55,0.48,0.56-.42C74.4,36.74,73.58,36,73.57,36.46Z"/><path class="cls-2" d="M64.26,30.43a6.21,6.21,0,0,0,.19,1.23l0.62-.28A1.53,1.53,0,0,1,64.26,30.43Z"/><path class="cls-2" d="M64.45,31.66l-0.93.42C64.3,32.22,64.47,32,64.45,31.66Z"/><polygon class="cls-2" points="67.92 34.23 69.47 33.3 67.64 34.21 67.92 34.23"/><polygon class="cls-2" points="60.94 30.02 61.52 29.37 60.52 30.33 60.94 30.02"/><path class="cls-2" d="M58.73,29.89c0.43-.54-0.39-1,0-1.35a3.37,3.37,0,0,0-1.69.87A1.55,1.55,0,0,1,58.73,29.89Z"/><path class="cls-2" d="M56.23,30a4.52,4.52,0,0,0,.85-0.56A2.34,2.34,0,0,0,56.23,30Z"/><path class="cls-2" d="M62.06,31.76a1.3,1.3,0,0,0-.59-0.94l0.25,0.89Z"/><path class="cls-2" d="M61.73,31.74v0L61,31.58Z"/><path class="cls-2" d="M62.15,31.77H62.06C62.08,31.85,62.1,31.88,62.15,31.77Z"/><path class="cls-2" d="M65.72,33.2C65.15,33.62,64,34,65,34.85,65.41,34.31,64.87,33.83,65.72,33.2Z"/><path class="cls-2" d="M62.45,32.88l0.9,0.3a0.83,0.83,0,0,1,.16-0.78Z"/><polygon class="cls-2" points="61.97 33.1 62.45 32.88 62.12 32.77 61.97 33.1"/><path class="cls-2" d="M57.72,30.95a2.11,2.11,0,0,1-1.38.31,5.34,5.34,0,0,0,1.57.44C58,31.43,58.29,31,57.72,30.95Z"/><path class="cls-2" d="M59.66,31.4l-0.09,0C59.61,31.52,59.65,31.55,59.66,31.4Z"/><polygon class="cls-2" points="51.47 30.7 51.53 30.86 51.57 30.72 51.47 30.7"/><path class="cls-2" d="M58,31.86a0.7,0.7,0,0,0,.9-0.21,3.72,3.72,0,0,1-1,0C57.85,31.81,57.84,31.89,58,31.86Z"/><path class="cls-2" d="M54.82,30.22a4.27,4.27,0,0,0,.63.54C55.29,30.47,54.92,30,54.82,30.22Z"/><path class="cls-2" d="M59.46,31.19l0.06,0C59.41,31,59.42,31.06,59.46,31.19Z"/><path class="cls-2" d="M59.46,31.19a2.44,2.44,0,0,0-.59.46,2.41,2.41,0,0,0,.69-0.21A1,1,0,0,1,59.46,31.19Z"/><path class="cls-2" d="M49.35,36a1.18,1.18,0,0,1,2.1-.44c1-.49.68-3.14,0.08-4.68-0.07.34-.11,0.66-1.08,1,0.27,0.47,1.91,1.23,1.06,1.86-1.26.27-1-.39-1.5-0.87,0.39,1-1.71,1.25-1.62,2.72l1.13-.39C49.51,35.43,49.08,35.74,49.35,36Z"/><path class="cls-2" d="M53.27,31.14l0.39-.06a3.27,3.27,0,0,1-1.18-1.21,1.37,1.37,0,0,0-.91.85L53.41,31Z"/><path class="cls-2" d="M55.34,31.27c-0.39.82-1.34,1.09-.89,2.07,1.11,0.07.86-.63,1.56-0.92-1.81,0,.57-0.42-0.66-1.05a3.48,3.48,0,0,1,1-.12,5.44,5.44,0,0,1-.88-0.49l0,0.06h0c0.06,0.12.08,0.18,0,.11h0a1.36,1.36,0,0,1-.12.31C54.85,31,55.29,31,55.46,31a1.19,1.19,0,0,0,0-.12h0l-1.84.27A4.28,4.28,0,0,0,55.34,31.27Z"/><path class="cls-2" d="M63.82,36.58a0.32,0.32,0,0,1,0-.21C63.66,36.47,63.61,36.54,63.82,36.58Z"/><path class="cls-2" d="M63.15,36a0.64,0.64,0,0,1,.7-0.3c0.34,0.3,0,.41-0.06.69,0.28-.2,1-0.51.21-1l-0.14.1a3.14,3.14,0,0,1-1.35-1.65A6.75,6.75,0,0,0,63.15,36Z"/><path class="cls-2" d="M59.16,33.84l-1.54.25,0.67,0.83V34.47C59.14,34.74,59,34.17,59.16,33.84Z"/><polygon class="cls-2" points="51.35 30.26 51.66 29.37 50.65 30.55 51.35 30.26"/><polygon class="cls-2" points="49.41 30.15 49.58 29.37 49.01 29.78 49.41 30.15"/><path class="cls-2" d="M93.16,21.86l0.44-.22A1.34,1.34,0,0,0,93.16,21.86Z"/><path class="cls-2" d="M90,21.79l-0.08.39C90.07,22,90.13,21.81,90,21.79Z"/><path class="cls-2" d="M31.36,27.22c0.57,0.73,1.19,1.87,1.13,1l-0.18-.87A0.93,0.93,0,0,1,31.36,27.22Z"/><path class="cls-2" d="M63.87,25.23l-0.16-.28-0.51.79Z"/><path class="cls-2" d="M64.63,21.69l0.79,0.62A2.77,2.77,0,0,0,64.63,21.69Z"/><path class="cls-2" d="M111,21l0.33-.42,0.34-.41C110.7,20.06,111.1,20.55,111,21Z"/><path class="cls-2" d="M29.75,28.14a3.12,3.12,0,0,0-1.15-.73C29.09,28,29.47,28.82,29.75,28.14Z"/><path class="cls-2" d="M91.87,31.07a0.6,0.6,0,0,0,.38-0.53A0.5,0.5,0,0,0,91.87,31.07Z"/><path class="cls-2" d="M27.23,27.13a2.91,2.91,0,0,0,.2.25,2.3,2.3,0,0,1,1.17,0A0.86,0.86,0,0,0,27.23,27.13Z"/><path class="cls-2" d="M68,42.18A1.26,1.26,0,0,1,67.91,42C67.87,42.16,67.93,42.18,68,42.18Z"/><path class="cls-2" d="M50.87,31.05A4.46,4.46,0,0,1,51.69,31,1.39,1.39,0,0,0,50.87,31.05Z"/><path class="cls-2" d="M41.69,28.89c0.42,0,.08-0.09,0,0h0Z"/><path class="cls-2" d="M43.26,32.52a0.64,0.64,0,0,0-.22.4A0.82,0.82,0,0,1,43.26,32.52Z"/><path class="cls-2" d="M22.08,31.18l0,0C22.1,31.37,22.09,31.33,22.08,31.18Z"/><path class="cls-2" d="M42.26,29.35A2,2,0,0,0,41.76,29,2.1,2.1,0,0,0,42.26,29.35Z"/><path class="cls-2" d="M42.22,28.94l0.35,0.12C42.64,28.92,42.6,28.83,42.22,28.94Z"/><path class="cls-2" d="M41.11,28.87a1.93,1.93,0,0,1,.65.16c-0.07-.07-0.1-0.12-0.08-0.15Z"/><path class="cls-2" d="M103.16,42.25l-0.11-.06C102.72,42.65,102.89,42.55,103.16,42.25Z"/><path class="cls-2" d="M42.42,18.81l-0.05,0,0.06,0V18.81Z"/><path class="cls-2" d="M44,18.34c-0.77,1-1.11.82-1.58,0.55l0.23,2.54Z"/><path class="cls-2" d="M100.72,21.57l-1-.77c1.23-1.3,2.13-.86,1.15-1.95-0.11,2.72-4,.32-4.12,3L96,21.31c0.19,0,.23-0.13.42-0.11-1.33-1.29-1,2-2.69,1.58-0.6-.21-1-0.6-0.6-0.93l-1.33.67c-0.39-.06-0.29-0.53.09-0.47l-2,.2,0-.08a9.2,9.2,0,0,1-1.28,1.35c-0.51-.4.26-0.28,0.13-0.63l-1.13.64c-0.45-.71.49-1.38,1.26-1.27-1-2.73-.94.67-3.16-0.95L86.8,21c-0.65-1.55-1.48-1-2.64-2,0.26,0.51,2.32,2.47,1.1,3.12a1.13,1.13,0,0,0-1.45.21c0-1-.63-0.74-1.42-0.71l0.09-1.28c-0.87.34-.82,1-1.35,1.56-1-.16-1.12-1.15-1.32-2-1.52-.26,1,1.63-0.82,1.8-1.26-.54-2.17,0-3.74.64-0.87-.48.19-0.77-0.11-1.16l-0.84,1c-0.19,0-.11-0.34-0.07-0.5C73.54,22,74.11,23,73,23.25c-0.37,1.39-2-2.17-3.44-.67-0.3-.38.21-0.77,0.14-1.27a10,10,0,0,0-3.15,2l-1.18-.94c0.84,1-.42,2.08-1.54,2.91a10.44,10.44,0,0,0,.71,1.13l-1.72.53a1.22,1.22,0,0,1,.35-1.16,4.25,4.25,0,0,0-.33.28c-0.55-.53-0.17-1.23.31-1.91,0.18,0.27.35,0.56,0.52,0.84a4.47,4.47,0,0,0,.91-2.31,1.07,1.07,0,0,1-.57.3,0.75,0.75,0,0,0,.17-0.51c0-.14-0.24.13-0.54,0.43l-0.24-1.45-0.14.56-2-1.09c-1.66,1.27-3.23,3.23-5.75,3.52,0.73-1,.34-1.68.52-2.91,0.5,1.38,1.94-.33,3.16.07a0.56,0.56,0,0,1-.24-1l-2.36.93c0.17-1-.38-0.81-0.91-1.3,0.19,2-1.83,1.11-2.83,1.6a1,1,0,0,1,1.43-1c-1-1.66-1.9,2.12-2.94.69,0.28,0,.41.14,0.56-0.18-0.72.51-2.22-.18-1.77-0.71l0.28,0c-1.78-.49-5.58-0.75-6.06.91A17.14,17.14,0,0,1,45,19.19l-2,2.65-1.93,2.67c0.44-1.42-.34-5,1.3-5.66a1.85,1.85,0,0,0-2-.13C40.7,19,41,20.89,40.54,21c-1-1.73-.7-0.94-2-2.44,0.44,0.35-.25,2.59-1,2.47,0.14-.33.09-2.26,0.38-2.48L37,19.6l-1,1.07c0.47-.38.18-1.9-0.2-2.56,0.17,0.44-1.59-.1-2.1.11l0.77,0.54c-2.08-.39-2.09,3.1-4.05,3,0.21-.47.52-2.88-0.58-3.12-0.22.59-.69,2-1.24,3.41a8.91,8.91,0,0,1-1.9,3.36l-0.41-.6-0.54.47-0.52.49A17.41,17.41,0,0,1,26.58,22a17.57,17.57,0,0,1,2.16-3.53c-0.86-.46-0.29-0.76-1.52-0.58-0.51-.57.58-1,1-1.07l-1.5,0c-0.75,0-1.53,0-1.53,0,0.34,1.29-2,1.74-1.68,2.83,0,0,.7-0.51,1.43-1s1.47-.93,1.47-0.93a3.71,3.71,0,0,1-.75,2.52,3.55,3.55,0,0,1-2.33,1.7c-0.63-.39-0.22-2.41-0.35-2.84-0.17.5-1.73,1.38-2,1.17l0.34-.49,0.35-.48a1.78,1.78,0,0,0-1.44,1.06,1.79,1.79,0,0,1-1.9.86,11.74,11.74,0,0,1-1.53.05c-0.57,0-1.13.25-.9,0.58,1.09,0,2.25,1.17,3.21,2.34a21.44,21.44,0,0,1,2,3l-0.31-.09A6.47,6.47,0,0,0,20,26.93a2.42,2.42,0,0,0-.38,0l-0.21,0H19.4l0-.11h0l0,0L19.26,27l-0.21.15-0.16,0a1.09,1.09,0,0,0-.3.15,1.62,1.62,0,0,1-2-.17,4.54,4.54,0,0,1-.48-0.52,1.51,1.51,0,0,0-.46-0.27,1.2,1.2,0,0,0-.88-0.08l0.13,0.05a0.21,0.21,0,0,1,.13.15c0.08,0.16.16,0.35,0.24,0.55a4.94,4.94,0,0,0,.25.54l0.21,0.32a0.62,0.62,0,0,1-.56.58,0.32,0.32,0,0,0-.18.34,2.1,2.1,0,0,0,.38,1c1.3-.2,2,2.73,1.43.13a3.43,3.43,0,0,1,1,1.09,2.77,2.77,0,0,0,1,1.09,2.47,2.47,0,0,1,1.48-1.28,5.51,5.51,0,0,1,2-.67,1.84,1.84,0,0,0-.17,1c1.75,0.84,2.65,1.69,4.45,2.1,0.1,0.36.91,0.92,0.42,1.43a1.8,1.8,0,0,1,1.21-.53c0.9,1.35-1.3,0-.71,1.5,0.22-.76,1.67-0.82,2.53-1.2-0.07-1.24-1.79-.51-2.7-0.18a5.32,5.32,0,0,1,3.89-3.66c1.52-.22.49,1.17,0.77,1,2.74,0.66,2.75-2.64,4.92-1.16,0.79,1.17-.23,2.13-0.12,2.92-1.27.27-1.78-.89-2.61-0.94L35.1,33a1.54,1.54,0,0,1-1.68.13c0.65,1,4.71.72,6.76,1.85,0.43-.31,1.14-0.61.88-1.07l-0.7.07c-0.52-.93,1.43-1,0.62-1.54,1-.5,2.14-1.34,3.37-0.7L44.44,33a0.81,0.81,0,0,0-1.16-.49c0.6-.48,1.78,1.87,2.56.34L45,31.91c1-.51,2.29-1.67,3.38-1.16-0.38-1.26-.28.11-0.92-1.39,0.49,1.83-2.91-.4-2,1.56-0.63-1.73-1.36-.86-2.28-2.37,0,0.4.29,0.81-.64,0.51a1.7,1.7,0,0,1-.25.33l-0.06,0,0,0.05c0,0.06-.05.07,0,0a1.38,1.38,0,0,1,.41.67c-0.59.87-2.11,0.67-2.69,1.08-0.55-.26.3-0.43,0-0.9l-0.86.63c0-.9-1.33-1.65.08-2l-1.2-.18a2.24,2.24,0,0,0-2.25-.58c-0.54-.26-1.56.82-1,0.18l-2,.32V28.41c-1.78-.35-4,1-5.51-1a2.4,2.4,0,0,1-2-.24l0.07-.79a1.51,1.51,0,0,1-1-.54c-0.27-.25-0.48-0.42-0.75-0.1a2.24,2.24,0,0,0,.07-1.06,0.57,0.57,0,0,0-.07-0.2,0,0,0,0,0,0,0l-0.22.26-0.36.38A8,8,0,0,1,20.74,27a1.62,1.62,0,0,1-.38.13,0.78,0.78,0,0,1-.21,0,0.72,0.72,0,0,1-.07.15c0,0.05,0,0,0-.07l0.07-.13,0,0,0,0h0l0.11,0.22h0l0.07,0,0.13,0.05,0.11,0.06,0,0,0.12,0.06a2.25,2.25,0,0,1,.45.31c0.07,0.06.11,0.11,0.2,0.19l0.32,0.27c1.12,1.27.44,0.56,0.76,0.35l-0.47-.77a0.48,0.48,0,0,1,.39-0.43,2.14,2.14,0,0,1,.8-0.05,5.71,5.71,0,0,0,2,0c0,0.35-.36.35-0.65,0.21,1,0.77,1.75.28,2.57-.3s1.69-1.16,2.55-.47a0.66,0.66,0,0,1,1,0,0.15,0.15,0,0,0-.1.05H30.8c0.18,0.15.37,0.32,0.57,0.46a1.8,1.8,0,0,0-.48-0.47,3.87,3.87,0,0,0,1.23-.38l0.2,1,0.11,0c0.47,0.36.39-.45,0.14-1.18a2.53,2.53,0,0,0,.66-0.57c0.35,1.55,1.31-.49,1.79,1.18,0.36-.8,2.5-0.48,2.89-2.15,0,0.22.14,0.34-.13,0.33a1.45,1.45,0,0,0,1.63,0l0.13,1.24,1.38-1.52c0.67,0.82.93,1.28,0.1,2.14,1.93-1.25,1.49-.39,3.19-1.63L44,26c0.55,0,1.55-.91,1.8-0.21,1,1.64,6,1,9.09,2.82-0.34-2.39,1.38,1.21,1.72-.57,0.12,0.57.54,0.93,0,1.35C58.31,29,59,30.5,60.29,29.11c0.13,0.57-.43.77-0.3,1.11,0.15-.1.57-0.42,0.71-0.08s-0.29.44-.58,0.65c1.71,0.08,2-1.61,2.3-3.18,0.78,0.83,1.22.77,1.92-.22,0.25,0.54.7,1.13-.36,1.23,0.58,0.12,3.53,1.06,3.69-.22,0.16,0.34.81,0.15,1,0a11.77,11.77,0,0,0,2.72.25L71,28.43c0.6-1.51,1.09-.28,2.14-0.4l0,0.16c2.33,1.23,1.05-.48,3.35.9l-0.09-1c0.31-2.05,2,1.3,3.43.56l-0.47-.56c0.77-.68,2,2.87,2.75,3.15,0.16,0.18-.27.28-0.5,0.41,1.94,1.28.29-1.25,1.77-1.5,0.25,0.68-.39,1.72.6,1.86,0.49,0.56,2.91-2.14,4.24-.82-0.29-.53-0.58-1.05.11-1.43,1-.17,2.81,2,3.76.36a0.63,0.63,0,0,1,.19.41c0.8-.42,2.59-0.7,3.07-1.6,0.75,3.32,4.93-1.64,4.94,1.41l2.45-.2-0.06.31a2.43,2.43,0,0,0,2.62-1.3c0.35,0.2.1,0.49,0.07,0.65,2.21,0.61,2.36.47,4.24-1l0.13,1c0.25-.27,1,0.16,1.85.58a3.44,3.44,0,0,0,2.64.51,0.91,0.91,0,0,1-.28.37,1,1,0,0,1,.64,0,0.63,0.63,0,0,1,.22.11,0.51,0.51,0,0,1,0,.09,0.87,0.87,0,0,0,.13.15l0.18,0.2L115.2,32l0,0.05h0l-0.2-.14h0l0,0,0.15-.17a4.78,4.78,0,0,1,.56-0.56,3,3,0,0,1,.42-0.32c0.54-.29.38-0.08,0-0.18a1.54,1.54,0,0,1-.31-0.08,1.84,1.84,0,0,1-.33-0.12l-0.3-.14,0,0,0.13,0.07,0.27,0.17,0.09,0.12a2.84,2.84,0,0,0,.14.32,0.68,0.68,0,0,1-.07.51v0h0l0.06-.06h0v0.17l0.12-.07h0l-0.06.06h0l0,0,0.07,0,0.24-.12a0.37,0.37,0,0,1,.24.06,1.08,1.08,0,0,1,.4.44c0.22,0.41.21,1.07,0.76,1a1.19,1.19,0,0,1-1.23.43c-0.43-.09-0.68-0.36-0.38-0.7l0.22,0.06a1,1,0,0,0-1.5-.41c-0.54.23-1.13,0.52-1.4-.06a23,23,0,0,1-5.53,1.87c-1.93.46-3.8,0.8-5.55,1.24l0.8,1.29-0.64.14-0.64.12c-0.41-.24-0.71-1,0.17-1.16-0.66-.68-1.29,1-1.26,1.36-1.85-.2.29-1.81-0.25-1.73l-0.67.26,0.19,0.13c-0.44.71-.38,1.35-1.46,1.47-0.72-.18-0.49-0.83-0.76-0.85,0-.1-0.11-0.14-0.4,0,0,0-.39,0-0.77,0s-0.77,0-.77,0L96.11,37l0.38,0.54c-0.64.65-1.52,0-.64,1.31a2.28,2.28,0,0,0-1.5-.88,14.33,14.33,0,0,0-2.09-.15c-0.73,0-1.44,0-2,0a2,2,0,0,1-1.17-.27,3.75,3.75,0,0,1-3.34.41c0.28,0.28.33,1.59-.76,1.29,0.37-1.3-.09-1.66-0.71-1.93a2.39,2.39,0,0,1-1.69-1.56c0.57,1.41-3.11-.23-2.22,1.77-0.87-.4.13-1-0.43-1.75-2.36.6-4.6-1.67-7.39-1.95-0.12.33,0.21,1-.49,1.34l-1-2c-0.58,0-.95,1.87-1.67.45,0.08,0.32.19,0.8-.2,0.83-2.5-1.44-5.39-1.7-8.29-2-0.73-.07-1.45-0.15-2.17-0.26a19,19,0,0,1-2.19-.36,16.17,16.17,0,0,1-4.42-1.66c0.81,0.72.26,0.74-.36,0.78,0.4,0.15,0,.87.06,1.34l-1.24-.63-1.28-.63c-0.38,1.28-2.71.34-2.83,1.61l0.76-.31c-0.44.8,0,1.58,0.55,2.41a5.19,5.19,0,0,1,1.12,2.67c0.46-.88,1.2-0.26,2,0.26A2.48,2.48,0,0,0,52,38.2a1.4,1.4,0,0,0,1.27-.72c0.36,0.41-.34.6-0.16,1.06A1.26,1.26,0,0,1,55,38l-0.12.19c2.72,0.06,3.78,1,6.7,2.06l-0.06-1a2,2,0,0,1,1,.86c1-1.27-1.83-.43-0.86-1.86,0.27,1,1.42,1.25,2.54,1.51s2.21,0.59,2.26,1.72c1,0.24-.07-1.14,1-0.9l0.14,0.64L68,40.57a1.46,1.46,0,0,1,.74,1.57,1.62,1.62,0,0,0-.68,0c0.71,0.88,2.51.33,2.77,0.62l-0.92-.59c2.94,0.11,6.3,1.68,9.39,1l-0.13-.48c2.31-.41,1.65.8,4.12,0.82l-0.1.09A2.46,2.46,0,0,1,85,43.3c-0.68.44,1,1.16,0.16,1.63,2.53-.59,1.31-0.57,3-2.08l0.32,0.77a2.28,2.28,0,0,1,1.87-1.12c-1,.62.75,1.14-0.42,2a3.06,3.06,0,0,0,3.11.12c0.8-.34,1.4-0.62,2.09.53,1.07-2.12-2.35-1-1.7-1.48-0.57-.64.92-1.59,1.72-1.44,0.79,0,1.63,2.57,3.81,2.2-0.21,0-.21.18-0.42,0.2,0.9,0.4,1.45-.95,2.58-0.31,0.28-1.33,1.28-.21,1.07-1.79l-0.9.39-0.91.37c1-.63,1.56-2.63,3.46-2.23a2.9,2.9,0,0,1-.74,1.21c0.63,0.32.89-.56,1.54-0.24,0.29,1.57-2.16,1-3.07,2.38,0.74,0.54,1.95-1.64,1.78.17,0.29-2.32,2.15-.29,3-2.32l0.2,0.93a2.31,2.31,0,0,1,.88-0.89l-0.33,1.41c0.78-1.36,2.44.14,3.29-.79-2.17.83-.88-0.89-2-1.21,2.19-2.16,2.4,1.78,5.18.19-0.36.29-1.7,0.06-1.25-.59a4.19,4.19,0,0,1,2.05.3c2-1.06-.7-0.76-0.07-1.67,1.15,0.76.81-.87,1.51-1.63l0.44,0.86c1.35-.34,1.29-0.92,1.16-1.41s-0.29-.91,1-1.34l-0.07.87-0.11.87,0.5-.53,0.49-.57,0.21,0.53,0.2,0.54a7.94,7.94,0,0,1,1.21-1.78l0.83-.84a8.56,8.56,0,0,0,1-1.2,0.78,0.78,0,0,1-.91-0.71,6.89,6.89,0,0,1,0-2.33c0.33-.75.53-0.57,0.68-0.55s0.12-.05.13-0.34a4.86,4.86,0,0,0-.37-1.72,2.8,2.8,0,0,1,1.11,1.28A2.11,2.11,0,0,1,123,32a8.39,8.39,0,0,1,.62,1.21,5,5,0,0,0,.63-3.86,8,8,0,0,0-1.5-3.15,3.9,3.9,0,0,1,.61,1.57,5,5,0,0,0-.62-0.76,6.2,6.2,0,0,0-1.46-1.17,5,5,0,0,0-.76-0.38l-0.34-.13L120,25.3h0l-0.19-.13h-0.47c-0.07-.48.31-0.58,0.68-0.68a1.09,1.09,0,0,0-.32-0.05h-0.17l-0.31-.06-0.66-.15L117.86,24a4.16,4.16,0,0,1,.8-0.89A1.47,1.47,0,0,1,119.4,23a2.71,2.71,0,0,1,.53.07c0.19,0,.47.14,0.53,0.14l-0.09,0L119.9,23l-0.71-.23-0.39-.11-0.31,0a10.49,10.49,0,0,0-1.58-.13c-0.08-.41-1.13-1.29-0.71-1.48a3.64,3.64,0,0,0-2.63,0,4.09,4.09,0,0,1-2.64.12,1,1,0,0,1-.63.37c-1.5-.26-2.82-1.25-4.51-0.16l-1-1.4c-1.3.34,1.29,1.75-.84,2.32-1.47.47-.57-1.19-1.1-1.57-0.72.72-2,2.18-3.35,1.05A3.28,3.28,0,0,1,100.72,21.57Zm-15.43.58c0.3-.19.91-0.81,1.12-0.24C86.05,23,85.8,22.48,85.29,22.15Zm-23.53,1c0.25-.3.58-0.11,0.93,0.29A1.09,1.09,0,0,1,61.76,23.17Zm-24.66,6,0,0C36.44,28.76,36.66,28.93,37.1,29.16Zm1.33,0.57a0.32,0.32,0,0,0,.12-0.39,0.63,0.63,0,0,1-.79.1C37.84,29.71,38,29.9,38.44,29.74Zm59.18,7L97.89,37C97.38,37.34,97.5,37.07,97.61,36.77Z"/><path class="cls-2" d="M64.53,22.1a1.47,1.47,0,0,1,.08.53A0.34,0.34,0,0,0,64.53,22.1Z"/><path class="cls-2" d="M110.86,21.13h0.05A0.57,0.57,0,0,0,111,21Z"/><path class="cls-2" d="M14.26,28.06a4.51,4.51,0,0,1,0-.59,3.87,3.87,0,0,1,.13-0.59,2.87,2.87,0,0,1,.17-0.43,0.74,0.74,0,0,1,.09-0.15l0.07,0a0.45,0.45,0,0,0-.17,0,0.11,0.11,0,0,0-.08,0,1.13,1.13,0,0,0-.09.19,2.79,2.79,0,0,0-.15.67,4.22,4.22,0,0,0,0,.48C14.24,27.76,14.24,27.9,14.26,28.06Z"/><path class="cls-2" d="M46,28.94l-0.92.15a1,1,0,0,1,.76.4C45.83,29.27,45.7,28.92,46,28.94Z"/><path class="cls-2" d="M53,35.74c0.14-.1.28,0,0.42-0.09l0-.45C52.86,35.17,52.43,35.49,53,35.74Z"/><path class="cls-2" d="M46.42,32.21c0,0.81.56,0.6,1.2,0.52H47.51C47.83,31.62,47.12,31.92,46.42,32.21Z"/><path class="cls-2" d="M47.77,32.73a1.47,1.47,0,0,1,.58,0C48.47,32.33,48.12,32.65,47.77,32.73Z"/><path class="cls-2" d="M40.26,29.4c0.27,0.24.31-1,.44-0.66C41.16,27.75,38.58,29.76,40.26,29.4Z"/><polygon class="cls-2" points="46.6 34.93 46.5 33.91 46.05 34.67 46.6 34.93"/><path class="cls-2" d="M41.77,33.64l1,0.39A0.37,0.37,0,0,1,43,33.72C42.43,33.62,41.78,33.34,41.77,33.64Z"/><path class="cls-2" d="M43,33.72a1.12,1.12,0,0,0,.82-0.07A2.46,2.46,0,0,0,43,33.72Z"/><polygon class="cls-2" points="45.2 35.07 44.93 34.83 44.24 34.68 45.2 35.07"/><path class="cls-2" d="M31.1,32.2L30,32.33c-0.16.32,0.1,0.57,0.52,0.5S31.22,32.55,31.1,32.2Z"/><path class="cls-2" d="M34,35.33a1.55,1.55,0,0,1-.38-0.81l-0.19,1.23Z"/><path class="cls-2" d="M30.8,35.22c-0.15.33-1.75,0.75-.33,0.87C30.64,35.77,31.78,35.64,30.8,35.22Z"/><path class="cls-2" d="M18.13,25.57a2,2,0,0,0-.17.28l0.9,0.48,0.89,0.49s-0.43-.28-0.83-0.59S18.13,25.57,18.13,25.57Z"/><path class="cls-2" d="M32.26,16.82c-1.47-.47-0.33,1.25-1.65.68C30.29,18,31.68,18,31.34,18.4,32.2,17.87,32.64,18.17,32.26,16.82Z"/><path class="cls-2" d="M31.34,18.4a2.72,2.72,0,0,0-.43.32A1.39,1.39,0,0,0,31.34,18.4Z"/><polygon class="cls-2" points="47.44 30.13 46.45 29.81 47.13 30.42 47.44 30.13"/><path class="cls-2" d="M45.83,31.82l-0.39-1.26-0.38,1.22A0.63,0.63,0,0,1,45.83,31.82Z"/><path class="cls-2" d="M83.07,19.49L83,19.8a0.66,0.66,0,0,0,.69.43Z"/><polygon class="cls-2" points="94.2 20.59 94 20.57 94.36 21.74 94.2 20.59"/><path class="cls-2" d="M103.56,19c-0.38,0-.83.23-1.21,0.18C103.17,19,103.69,20.47,103.56,19Z"/></g></svg>