<svg id="氣息" xmlns="http://www.w3.org/2000/svg" viewBox="0 0 180 58"><defs><style>.cls-1{opacity:0.4;}.cls-2{fill:#fff;}.cls-3{opacity:0.13;}</style></defs><title>fufubro_breath</title><g class="cls-1"><path class="cls-2" d="M155.3,20.92a0.43,0.43,0,0,0-.15-0.33l0,0.05-0.31-.42,0.06,0.13c0,0.1.11,0.21,0.17,0.31A0.63,0.63,0,0,0,155.3,20.92Z"/><path class="cls-2" d="M154,23.44L154,23.1l-0.07.47-0.1.46,0.12-.29Z"/><path class="cls-2" d="M151.28,24.08c0.58,1.36,1-.45,1.55-0.07L153,24.3l-0.07-1.17C152.4,23.44,151.82,24.41,151.28,24.08Z"/><path class="cls-2" d="M149.23,21.33c0.19,0.53-.23.53,0.37,0.11a1.2,1.2,0,0,1-.09-0.13A0.66,0.66,0,0,1,149.23,21.33Z"/><path class="cls-2" d="M149.51,21.31c0.28-.09-0.27-0.42,0,0h0Z"/><path class="cls-2" d="M148.23,21.85l0.31-.55a1.1,1.1,0,0,1-.4-0.59C147.79,21,147.92,21.35,148.23,21.85Z"/><path class="cls-2" d="M148,22.94l0.17-.24C148.13,22.57,148.07,22.53,148,22.94Z"/><path class="cls-2" d="M148.56,22.2l-0.36.5c0.09,0.22.17,0.68,0.17-.19C148.4,22.94,148.42,22.52,148.56,22.2Z"/><path class="cls-2" d="M148.83,22.38c0.26,0.27.58,0.41,0.27,1C149.81,23,149.52,22,148.83,22.38Z"/><path class="cls-2" d="M151.43,25.56l0.39,0.35,0.16-.52C151.9,25.65,151.32,25.12,151.43,25.56Z"/><path class="cls-2" d="M145.7,21.47a11.14,11.14,0,0,0,.31,1.17l0.24-.39A1.34,1.34,0,0,1,145.7,21.47Z"/><path class="cls-2" d="M146,22.64l-0.38.57C146,23.23,146.08,23,146,22.64Z"/><polygon class="cls-2" points="148.19 24.51 148.75 23.33 148.05 24.55 148.19 24.51"/><polygon class="cls-2" points="144.02 21.63 144.19 20.9 143.87 22.01 144.02 21.63"/><path class="cls-2" d="M142.92,21.88c0.12-.6-0.35-1-0.19-1.33a2.3,2.3,0,0,0-.69,1.12C142.26,21.4,142.54,21.44,142.92,21.88Z"/><path class="cls-2" d="M141.7,22.36a3.64,3.64,0,0,0,.33-0.69A1.91,1.91,0,0,0,141.7,22.36Z"/><path class="cls-2" d="M144.86,23.15a1.56,1.56,0,0,0-.45-0.82l0.27,0.83h0.18Z"/><path class="cls-2" d="M144.7,23.18v0H144.3Z"/><path class="cls-2" d="M144.91,23.15h0C144.89,23.23,144.9,23.26,144.91,23.15Z"/><path class="cls-2" d="M146.91,23.92c-0.19.51-.68,1.1,0,1.74C147,25.05,146.62,24.69,146.91,23.92Z"/><path class="cls-2" d="M145.25,24.18l0.5,0.14a1.52,1.52,0,0,1-.06-0.79Z"/><polygon class="cls-2" points="145.05 24.48 145.25 24.18 145.07 24.13 145.05 24.48"/><path class="cls-2" d="M142.59,23.08a0.83,0.83,0,0,1-.64.52,1.6,1.6,0,0,0,.85.18C142.81,23.51,142.88,23,142.59,23.08Z"/><path class="cls-2" d="M143.62,23.21l0,0.05C143.62,23.33,143.64,23.35,143.62,23.21Z"/><path class="cls-2" d="M139.44,23.81L139.49,24V23.82h-0.05Z"/><path class="cls-2" d="M142.86,23.94c0.22,0.14.32-.08,0.41-0.36a1.08,1.08,0,0,1-.47.2C142.8,23.91,142.8,24,142.86,23.94Z"/><path class="cls-2" d="M141,22.81a2.88,2.88,0,0,0,.4.44C141.31,23,141.06,22.59,141,22.81Z"/><path class="cls-2" d="M143.49,23l0,0C143.43,22.82,143.45,22.91,143.49,23Z"/><path class="cls-2" d="M143.49,23a2.39,2.39,0,0,0-.21.55,1.1,1.1,0,0,0,.31-0.32A1.48,1.48,0,0,1,143.49,23Z"/><path class="cls-2" d="M139.05,29.34c0-.8.49-1.55,1-0.75,0.43-.63-0.09-3.2-0.6-4.62a1.36,1.36,0,0,1-.41,1.16c0.2,0.43,1.14.93,0.79,1.68-0.61.46-.55-0.24-0.89-0.64,0.34,1-.72,1.49-0.48,2.92l0.53-.55A1.45,1.45,0,0,0,139.05,29.34Z"/><path class="cls-2" d="M140.4,24l0.19-.12a2.52,2.52,0,0,1-.76-1,1.59,1.59,0,0,0-.34,1l1,0Z"/><path class="cls-2" d="M141.46,23.77c-0.07.87-.52,1.28-0.15,2.18,0.58-.11.34-0.75,0.65-1.15-0.91.29,0.22-.5-0.49-0.93A1.13,1.13,0,0,1,142,23.6a2.45,2.45,0,0,1-.51-0.35l0,0.05h0c0,0.1.07,0.17,0,.11l0,0a2.47,2.47,0,0,1,0,.33c-0.28-.15-0.06-0.22,0-0.33V23.31h0l-0.88.55A1.17,1.17,0,0,0,141.46,23.77Z"/><path class="cls-2" d="M146.61,27.57a0.54,0.54,0,0,1-.06-0.19C146.51,27.49,146.5,27.57,146.61,27.57Z"/><path class="cls-2" d="M146.16,27.1c0.05-.13.07-0.47,0.3-0.41a0.91,0.91,0,0,1,.1.69,0.74,0.74,0,0,0-.08-1l-0.05.13a3,3,0,0,1-1-1.39A10.46,10.46,0,0,0,146.16,27.1Z"/><path class="cls-2" d="M143.77,25.68l-0.73.51,0.47,0.7-0.07-.44C143.91,26.57,143.76,26,143.77,25.68Z"/><polygon class="cls-2" points="139.32 23.39 139.35 22.48 139 23.79 139.32 23.39"/><polygon class="cls-2" points="138.32 23.57 138.31 22.77 138.07 23.27 138.32 23.57"/><path class="cls-2" d="M81,19.93l-0.29.13A0.74,0.74,0,0,0,81,19.93Z"/><path class="cls-2" d="M82.49,20.6l0.18-.35C82.52,20.42,82.43,20.56,82.49,20.6Z"/><path class="cls-2" d="M114.34,23.14c-0.1-.77-0.08-1.93-0.27-1.06l-0.13.86C114.15,22.82,114.26,22.94,114.34,23.14Z"/><path class="cls-2" d="M97,21.69V22l0.54-.67Z"/><path class="cls-2" d="M95.39,24.9l-0.19-.69A1.89,1.89,0,0,0,95.39,24.9Z"/><path class="cls-2" d="M73.69,18.86l-0.27.88C73.82,19.74,73.65,19.29,73.69,18.86Z"/><path class="cls-2" d="M128,24.26a1.37,1.37,0,0,0-.71-0.52C127.67,24.23,127.95,25,128,24.26Z"/><path class="cls-2" d="M85,11.61a0.72,0.72,0,0,0-.38.42A0.59,0.59,0,0,0,85,11.61Z"/><path class="cls-2" d="M126.5,23.74a2.36,2.36,0,0,0,.15.2,0.84,0.84,0,0,1,.67-0.21C127.07,23.36,126.78,23.13,126.5,23.74Z"/><path class="cls-2" d="M44.35,24.74l-0.11,0C44.3,24.79,44.33,24.78,44.35,24.74Z"/><path class="cls-2" d="M31.43,24.81a1.33,1.33,0,0,1,.24-0.38A0.43,0.43,0,0,0,31.43,24.81Z"/><path class="cls-2" d="M134.27,23.41c0.21-.07,0-0.1,0,0h0Z"/><path class="cls-2" d="M135.47,26.79a1,1,0,0,0-.07.43A1.28,1.28,0,0,1,135.47,26.79Z"/><path class="cls-2" d="M124.28,29.1h0C124.32,29.27,124.31,29.24,124.28,29.1Z"/><path class="cls-2" d="M134.6,23.79a1,1,0,0,0-.28-0.25A1.1,1.1,0,0,0,134.6,23.79Z"/><path class="cls-2" d="M134.54,23.38l0.19,0.08C134.75,23.31,134.73,23.22,134.54,23.38Z"/><path class="cls-2" d="M134,23.47a0.57,0.57,0,0,1,.35.08,0.17,0.17,0,0,1-.05-0.13Z"/><path class="cls-2" d="M58.73,16.84l-0.06-.07C58.52,17.16,58.6,17.08,58.73,16.84Z"/><path class="cls-2" d="M106.35,29.81l0,0,0,0Z"/><path class="cls-2" d="M105.36,30.1c0.73-.87.86-0.67,1-0.36l0.71-2.41Z"/><path class="cls-2" d="M77.27,18.83l0.22,0.9c-1,1-1.24.45-1.17,1.64,0.94-2.55,1.9.37,2.93-2.12l0.13,0.66c-0.08-.06-0.16.08-0.24,0,0.17,1.46,1.17-1.66,1.86-1a0.7,0.7,0,0,1,0,1l0.89-.37c0.17,0.12-.05.54-0.22,0.42l1.07,0.19,0,0.07a9.51,9.51,0,0,1,1.13-1c0.11,0.46-.23.22-0.3,0.56l0.8-.39a0.9,0.9,0,0,1-1.09.95c-0.51,2.72.71-.45,1.22,1.47l-0.65.11c-0.25,1.56.36,1.21,0.58,2.34,0.06-.52-0.25-2.72.6-3.1,0.09,0.26.27,0.44,0.8,0.07-0.37.89,0,.8,0.45,0.91L85.7,23.31A4,4,0,0,0,87,22.1c0.43,0.31.14,1.27-.07,2.09,0.68,0.5.09-1.68,1.08-1.53,0.44,0.72,1.09.42,2.14,0,0.27,0.59-.38.69-0.37,1.09L90.53,23a0.62,0.62,0,0,1-.14.48c0.48-.22.53-1.17,1.18-1.27,0.69-1.24.26,2.35,1.53,1.15a4.67,4.67,0,0,1-.53,1.16,7,7,0,0,0,2.34-1.37l0.29,1c-0.08-1.08,1-1.87,1.83-2.52,0-.5,0-0.93,0-1.15l1.08-.28a2.13,2.13,0,0,1-.58,1l0.27-.22A2.4,2.4,0,0,1,97,22.82L97,22a7.65,7.65,0,0,0-1.29,2,0.71,0.71,0,0,1,.4-0.2,1.29,1.29,0,0,0-.27.46c0,0.14.17-.09,0.43-0.33l-0.38,1.39,0.27-.5,0.71,1.28c1.33-1,2.82-2.65,4.26-2.68a9.27,9.27,0,0,0-1.24,2.68c0.19-1.35-1.16.11-1.68-.4a0.76,0.76,0,0,1-.2.93L99.63,26c-0.42.92-.06,0.8,0.07,1.31,0.57-1.94,1.36-.87,2.05-1.24-0.24.63-.61,1.22-1.11,0.83,0,1.65,1.71-1.82,1.81-.39-0.14,0-.18-0.17-0.36.12a0.55,0.55,0,0,1,.73.81l-0.14,0c0.81,0.6,2.75,1.18,3.54-.34-0.08.21-.91,1.84-1.1,2.14l3.81-4.62c-0.7,1.29-1.47,4.74-2.54,5.19a0.62,0.62,0,0,0,1,.33A4.56,4.56,0,0,1,108,28a8.76,8.76,0,0,0,.24,2.53c-0.11-.38,1-2.41,1.31-2.2a23,23,0,0,1-1,2.29l0.87-.87,0.86-.88a4.83,4.83,0,0,0-.72,2.44c0-.23.23-0.14,0.46,0a1.55,1.55,0,0,0,.82.27l-0.34-.66c1.28,0.78,2.08-2.68,3.08-2.35-0.21.43-.92,2.73-0.36,3.13,0.54-1,2.07-5.26,3-6l0.08,0.67,0.75-.66a30.91,30.91,0,0,1-3.28,6.42c0.35,0.58,0,.78.66,0.81a0.75,0.75,0,0,1-.7.89l1.5,0.6c0.1-1.34,1.33-1.18,1.38-2.32,0,0-.43.31-0.88,0.6l-0.91.58c0.13-1.35,1.42-3.64,2.36-3.33,0.2,0.55-.42,2.37-0.45,2.81,0.18-.45,1.05-0.8,1.12-0.46l-0.5.68c0.54,0.55,1.08-1.7,1.66-.36,0.23,0.11.59,1.77,0.68,1a29.89,29.89,0,0,1,.26-7.43,11.89,11.89,0,0,1,1.29,2.29c0.32,1.22-.7,2.84-0.44,3.88a2.49,2.49,0,0,1,.36-0.95c0.23,0.33-.16,1.13.38,1,0.15-1.36,1.07.17,0.3-1.14,0.53-.36.54,0.31,1.14,0.26a5.43,5.43,0,0,1,1.13-3.36,3.3,3.3,0,0,0,.12,1c1,0.15,1.58.78,2.55,0.79a1.85,1.85,0,0,1,.36,1.32,1.19,1.19,0,0,1,.57-0.74c0.58,1.18-.67.18-0.22,1.6,0-.79.78-1.09,1.2-1.59-0.14-1.22-1-.23-1.41.26A5.8,5.8,0,0,1,129,26.51c0.78-.43.36,1.09,0.49,0.84,1.5,0.26,1.2-3,2.45-1.78,0.52,1.06.08,2.14,0.21,2.91-0.64.42-1-.66-1.45-0.61l0.55,0.5c-0.2.36-.63,0.64-0.87,0.34,0.43,1,2.54.14,3.73,1a1.4,1.4,0,0,0,.34-1.18l-0.36.17c-0.37-.85.63-1.23,0.16-1.61,0.46-.63,1-1.61,1.66-1.15l0.19,1.22c0-.36-0.48-0.71-0.66-0.33,0.25-.55,1.14,1.61,1.36,0l-0.52-.82c0.45-.65,1-2,1.58-1.64-0.35-1.19-.13.15-0.64-1.24,0.47,1.74-1.52,0-.83,1.84-0.52-1.61-.79-0.66-1.43-2,0,0.4.24,0.76-.27,0.59a2.33,2.33,0,0,1-.09.36l0,0,0,0c0,0.06,0,.07,0,0a1.63,1.63,0,0,1,.28.6c-0.21.94-1,.94-1.26,1.44-0.31-.18.11-0.47-0.07-0.89l-0.38.74c-0.07-.9-0.84-1.46-0.16-2l-0.63,0c-0.39-.5-0.9-0.68-1.2-0.3-0.3-.19-0.73,1-0.48.3l-1,.58V24.06c-1-.09-2,1.5-3.11-0.12a1.06,1.06,0,0,1-1.21.24l-0.09-.78c-0.42.26-1.23-.81-1.42,0-0.39-2.09-2-.51-2.68-0.93l-0.08,1a2.65,2.65,0,0,0-1.62.55l0,0.9c-0.59.69-1.31-.75-2.14-0.73,0.09-.34.29-0.23,0.42,0-0.41-1-.91-0.75-1.45-0.37s-1.13.82-1.39,0c-0.24.28-.37,0.14-0.45-0.1a0.07,0.07,0,0,0,.06,0l-0.07,0c-0.05-.17-0.1-0.36-0.16-0.52a1.88,1.88,0,0,0,.11.51,1.18,1.18,0,0,0-.66.23l0.14-1-0.05,0a0.21,0.21,0,0,0,0-.09h0l-0.31,1.2h0l0-.17,0.14-.6,0.06-.25a0.7,0.7,0,0,0,0-.13l0,0.05,0,0.15a6.27,6.27,0,0,0-.17,1,2.52,2.52,0,0,0-.39.48c0.3-1.54-.59.37-0.35-1.32-0.44.7-1.39,0.12-2.17,1.64,0.07-.21,0-0.34.18-0.3-0.21-.29-0.41-0.59-0.84-0.24l0.34-1.18-1.23,1.28a2,2,0,0,1,.65-2c-1.44,1-.93.2-2.24,1.21l0.34-.72c-0.28-.09-1.13.71-1,0,0-1.64-2.92-1.46-3.94-3.42-0.61,2.27-.31-1.27-1.09.36a1.69,1.69,0,0,1,.47-1.26c-1,.16-0.85-1.32-2-0.15,0.13-.55.49-0.67,0.54-1-0.11.08-.44,0.33-0.4,0a0.82,0.82,0,0,1,.52-0.54c-0.85-.26-1.6,1.26-2.29,2.7-0.12-.87-0.36-0.86-1.07,0,0.06-.54,0-1.15.62-1.1-0.26-.19-1.44-1.45-2-0.28,0-.34-0.36-0.26-0.49-0.15a3.54,3.54,0,0,0-1.3-.63l0.09,0.27c-0.85,1.31-.66.09-1.24,0l0.08-.14c-0.73-1.52-.71.28-1.37-1.38l-0.31.91c-0.91,1.86-.55-1.55-1.53-1.1l0,0.61c-0.64.5,0.06-3-.21-3.41,0-.2.24-0.21,0.4-0.29-0.5-1.53-.61,1.11-1.44,1.08,0.13-.68.83-1.52,0.39-1.84,0-.61-2.25,1.46-2.42,0a1.4,1.4,0,0,1-.58,1.31c-0.58,0-.67-2.39-1.75-1.05A1,1,0,0,1,84.57,12c-0.55.23-1.56,0.15-2.12,0.89,0.8-3.25-3.06.58-2-2.29,0,0-1.34-.3-1.38-0.29L79.17,10c-0.87-.46-1.41.12-2,0.75a0.55,0.55,0,0,1,.09-0.64,7.12,7.12,0,0,0-.91-0.45C76.26,9.65,76.14,9.63,76,9.59a1.36,1.36,0,0,0-.33,0c-0.51.09-.79,0.51-1.38,1.33l-0.08-1c-0.29.57-1.79-1.59-3-.45A1,1,0,0,1,71.34,9C70,10.22,67.9,6.37,67.53,10l-0.86.93c1.18,0.22-.09,1.57.42,2.14-0.43.24-1.23-1-.68-1.23L66.5,12c0.1-1.89-1.49-.56-1.55-1.84a18.7,18.7,0,0,1-3.5-.12A13.91,13.91,0,0,0,58,10l0.5,1.4-0.77.06c-0.26-.3-0.47-1.08.09-1.12-0.44-.76-0.8.85-0.75,1.17-1.18-.38.1-1.75-0.23-1.73l-0.43.19,0.13,0.15c-0.25.65-.15,1.28-0.82,1.33-0.47-.21-0.4-0.84-0.58-0.86,0-.1-0.09-0.14-0.26,0l-1,.12,0.65,1c-0.29.66-.9,0.16-0.16,1.33A1.91,1.91,0,0,0,52,12.4c-0.85.26-1.61,0.68-1.91,0.44a1.83,1.83,0,0,1-1.61,1.33c0.26,0.16.81,1.34,0.17,1.41-0.75-2.58-1.5-.66-2.75-2.24,0.93,1-1.58,1.08-.15,2.42-0.58,0-.45-0.9-1.1-1.29a2.29,2.29,0,0,1-1.88,1.05,4.55,4.55,0,0,0-2.3.84,2.22,2.22,0,0,1,.66,1.26l-0.83-.5-0.84-.49c-0.18.33,0.88,1.85-.29,1.17a0.85,0.85,0,0,1,.48.71,4.12,4.12,0,0,0-2.26,1,12.07,12.07,0,0,0-1.73,1.74,12,12,0,0,1-.86.87,5.76,5.76,0,0,1-.94.78,4.9,4.9,0,0,1-1.19.57,6.23,6.23,0,0,1-1.51.33c0.81,0.1.67,0.37,0.47,0.65a3.22,3.22,0,0,1,1.05.84l-0.94.09c-0.48,0-.94.11-0.94,0.11,0.9,1-.8,1.22.14,2.08L31,27.07c0.88,1.31,3.11,1.38,4.57,2.63-0.51-.74.21-0.65,0.89-0.61s1.28,0,.65-1.13c0.42,0.11.36,0.53,0.76,0.75-0.48-.71-0.42-1,0.2-1.14l0.11,0.18a2.59,2.59,0,0,1,1.39-1,16.7,16.7,0,0,0,1.89-.56l-0.7-.64a1.14,1.14,0,0,1,.84.15c-0.31-.67-0.5-0.54-0.72-0.43s-0.42.25-.8-0.47a1.26,1.26,0,0,0,1.72-.09,1.09,1.09,0,0,1,1.7.21c0.42-.26-0.76-0.81-0.33-1.08l0.45,0.41-0.33-.7a1.68,1.68,0,0,1,1.19.85,0.5,0.5,0,0,0-.15.32c0.73,0.36.82-.85,1.08-0.73,0,0-.59-0.05-0.59-0.05,0.86-1.2,2.66-1.31,3.37-2.94l-0.28-.36c0.61-1.21,1,.08,1.87-0.69v0.11a0.89,0.89,0,0,1,.57-0.89c-0.08.6,0.86,0.75,0.71,1.43,0.73-1.25.27-.84,0.46-2.66L52,18.61c0-.72,0-1.06.47-1.43-0.28.76,0.69,1,.43,1.93,1.58,1.17,1.3-2.09,2.46.07,0-2.12-1.32-.85-1.13-1.35-0.44-.58.06-1.6,0.51-1.49,0.41-.06,1.3,2.38,2.22,2.11-0.1,0-.07.17-0.16,0.18,0.46,0.41.56-.83,1.17-0.09,0-1.26.59,0,.37-1.61l-0.83.53c0.42-.5.58-2.41,1.6-1.69a3.11,3.11,0,0,1-.33,1.05c0.33,0.41.42-.39,0.76,0,0.19,1.58-1,.54-1.35,1.83,0.38,0.61.8-1.32,0.84,0.42,0-2.21,1,.08,1.37-1.65l0.1,0.94a1.08,1.08,0,0,1,.43-0.63L60.72,19c0.38-1.11,1.15.78,1.57,0.15-1.05.16-.38-1.1-0.93-1.73,1.19-1.43,1.08,2.36,2.48,1.73-0.18.15-.8-0.47-0.54-1a2.13,2.13,0,0,1,.93,1c1-.27-0.24-1,0.13-1.57,0.44,1.13.45-.51,0.87-0.91l0.08,1c1.18,0.53.16-2,1.25-1.36L66.19,17.7l0.51-.39,0,1.1c0.53-.86.73-0.66,1.31-0.36-0.16-.68,0-1.75.52-1.8,0.37,0.56-.16.92,0.56,0.76-0.15.61-.3,1.37-0.64,0.49,0,0.32-.14.61-0.16,0.92,0.39,0.65.93,0.13,1.19,0.11a0.44,0.44,0,0,1-.29-0.22l1-1.36a1,1,0,0,1-.08.94,3.36,3.36,0,0,1,.66-0.65,3.18,3.18,0,0,1-.47,2l1-.9a3.24,3.24,0,0,1,.38,1.23c0.54,0.47,1.35-1.5,2.08-.88A0.69,0.69,0,0,1,74,18.28a2.58,2.58,0,0,1,.63.32l0.29,0.17a0.32,0.32,0,0,0,.16.09c0.08,0,.15-0.06.32-0.45,0,0,0,.35-0.07.7l-0.07.47a1.39,1.39,0,0,0,0,.22,1.57,1.57,0,0,0,.29-1,1.12,1.12,0,0,1,.57-1.11c0.74-.25-0.11,1.22,0,1.65,0.45-.62,1.57-1.74,1.82-0.45A0.88,0.88,0,0,1,77.27,18.83ZM85,21.14c-0.22.13-.75,0.59-0.64,0C84.9,20.2,84.83,20.74,85,21.14Zm12.46,2.74c-0.24.25-.34,0-0.39-0.39A0.39,0.39,0,0,1,97.42,23.88ZM132,24.28l0,0C131.58,24,131.71,24.11,132,24.28Zm0.74,0.4a0.55,0.55,0,0,0,0-.4,0.25,0.25,0,0,1-.39.2C132.39,24.73,132.49,24.91,132.69,24.68ZM55.12,10.91l0.2,0.21C55,11.48,55.09,11.21,55.12,10.91Z"/><path class="cls-2" d="M95.59,24.53A2.53,2.53,0,0,1,95.73,24,0.52,0.52,0,0,0,95.59,24.53Z"/><path class="cls-2" d="M73.74,18.7h0a1.11,1.11,0,0,0,0,.17Z"/><path class="cls-2" d="M121.13,32.81a1.07,1.07,0,0,1-.28-0.51A0.43,0.43,0,0,0,121.13,32.81Z"/><path class="cls-2" d="M136.44,22.87l-0.45.28a0.44,0.44,0,0,1,.43.29C136.41,23.21,136.3,22.89,136.44,22.87Z"/><path class="cls-2" d="M140.91,28.54c0.06-.12.15,0,0.2-0.15l-0.06-.45C140.76,28,140.59,28.38,140.91,28.54Z"/><path class="cls-2" d="M137.06,26c0.08,0.81.36,0.51,0.68,0.34h-0.06C137.71,25.25,137.38,25.65,137.06,26Z"/><path class="cls-2" d="M137.81,26.35a0.42,0.42,0,0,1,.3,0C138.12,25.86,138,26.23,137.81,26.35Z"/><path class="cls-2" d="M133.59,24.1c0.16,0.2.06-1,.16-0.71C133.88,22.35,132.77,24.68,133.59,24.1Z"/><polygon class="cls-2" points="137.48 28.7 137.3 27.7 137.17 28.52 137.48 28.7"/><path class="cls-2" d="M134.82,28.1l0.54,0.25a0.4,0.4,0,0,1,.13-0.35C135.16,28,134.79,27.8,134.82,28.1Z"/><path class="cls-2" d="M135.49,28a0.39,0.39,0,0,0,.42-0.18A0.79,0.79,0,0,0,135.49,28Z"/><polygon class="cls-2" points="136.77 29.04 136.6 28.84 136.22 28.79 136.77 29.04"/><path class="cls-2" d="M129.11,28.07l-0.58.29c-0.06.34,0.1,0.55,0.32,0.42A0.8,0.8,0,0,0,129.11,28.07Z"/><path class="cls-2" d="M130.92,30.78a2,2,0,0,1-.27-0.76v1.24Z"/><path class="cls-2" d="M129.21,31.11c-0.05.34-.85,1-0.1,0.91C129.17,31.68,129.75,31.38,129.21,31.11Z"/><polygon class="cls-2" points="120.39 29.36 120.53 29.35 120.63 27.32 120.39 29.36"/><path class="cls-2" d="M111.46,33.15c0.73,0.65.48-1.18,1.09-.43,0.29-.43-0.5-0.61-0.21-1C111.75,32.14,111.55,31.8,111.46,33.15Z"/><path class="cls-2" d="M112.34,31.74a2,2,0,0,0,.31-0.25A1,1,0,0,0,112.34,31.74Z"/><polygon class="cls-2" points="29.45 25.56 28.81 25.71 29.56 25.86 29.45 25.56"/><path class="cls-2" d="M30.11,27.21L29,26.55l0.78,0.92C29.78,27.35,29.82,27.11,30.11,27.21Z"/><path class="cls-2" d="M85.08,24l0.15-.28A0.4,0.4,0,0,0,85,23.21Z"/><polygon class="cls-2" points="80 20.92 80.09 20.98 80.34 19.82 80 20.92"/><path class="cls-2" d="M75.33,20.84c0.12,0.09.35-.12,0.47,0C75.45,20.93,75.7,19.43,75.33,20.84Z"/></g><g class="cls-3"><path class="cls-2" d="M72.65,42.77c17-2.58,33.47,7.35,50.82,5.56a52.61,52.61,0,0,0,14.27-3.88c2.61-1,5.21-2.16,6.79-3.63s1.95-3.39.09-4.78c-2.69-2-8.4-2.09-13.22-2-16.46.3-33.1,0-49.1-2-7.63-.95-15.2-2.29-23.06-2.29-6,0-13.14,1.38-14,4.38C44.73,36,47,37.81,50,38.9a50.59,50.59,0,0,0,10.31,2q26.09,3.34,52.52,5.94"/><path class="cls-2" d="M113,42c0.36,0.11.31-.73,0.38-0.88A0.66,0.66,0,0,0,113,42Z"/><polygon class="cls-2" points="106.76 43.2 106.91 42.87 105.92 43.6 106.76 43.2"/><path class="cls-2" d="M101.08,42.54c0.39,1.48,2.08,0,3,.62l0.13,0.34,0.57-1.09C103.58,42.46,101.9,43,101.08,42.54Z"/><path class="cls-2" d="M98.37,39.13c0.13,0.57-.71.4,0.69,0.25a1.12,1.12,0,0,1-.11-0.15A2.8,2.8,0,0,1,98.37,39.13Z"/><path class="cls-2" d="M98.95,39.23c0.6,0-.34-0.51,0,0h0Z"/><path class="cls-2" d="M96.15,39.23l0.84-.4c-0.13-.34-0.82-0.5-0.54-0.71C95.62,38.3,95.75,38.64,96.15,39.23Z"/><path class="cls-2" d="M95.29,40.18L95.72,40C95.67,39.88,95.56,39.82,95.29,40.18Z"/><path class="cls-2" d="M96.64,39.68L95.72,40c0.09,0.24.05,0.7,0.41-.11C96,40.32,96.24,39.93,96.64,39.68Z"/><path class="cls-2" d="M97.1,39.95c0.41,0.36,1,.62.12,1C98.75,40.94,98.63,39.92,97.1,39.95Z"/><path class="cls-2" d="M100.63,44l0.55,0.48,0.56-.42C101.46,44.25,100.64,43.53,100.63,44Z"/><path class="cls-2" d="M91.33,37.94a6.21,6.21,0,0,0,.19,1.23l0.62-.28A1.53,1.53,0,0,1,91.33,37.94Z"/><path class="cls-2" d="M91.52,39.17l-0.93.42C91.36,39.74,91.53,39.51,91.52,39.17Z"/><polygon class="cls-2" points="94.98 41.74 96.53 40.82 94.7 41.73 94.98 41.74"/><polygon class="cls-2" points="88.01 37.53 88.58 36.89 87.58 37.84 88.01 37.53"/><path class="cls-2" d="M85.79,37.4c0.43-.54-0.39-1,0-1.35a3.37,3.37,0,0,0-1.69.87A1.55,1.55,0,0,1,85.79,37.4Z"/><path class="cls-2" d="M83.29,37.49a4.52,4.52,0,0,0,.85-0.56A2.34,2.34,0,0,0,83.29,37.49Z"/><path class="cls-2" d="M89.12,39.27a1.3,1.3,0,0,0-.59-0.94l0.25,0.89Z"/><path class="cls-2" d="M88.79,39.25v0L88,39.09Z"/><path class="cls-2" d="M89.21,39.29H89.12C89.15,39.36,89.16,39.39,89.21,39.29Z"/><path class="cls-2" d="M92.78,40.72c-0.56.42-1.69,0.81-.73,1.65C92.48,41.82,91.93,41.34,92.78,40.72Z"/><path class="cls-2" d="M89.52,40.4l0.9,0.3a0.83,0.83,0,0,1,.16-0.78Z"/><polygon class="cls-2" points="89.03 40.61 89.52 40.4 89.18 40.28 89.03 40.61"/><path class="cls-2" d="M84.78,38.46a2.11,2.11,0,0,1-1.38.31,5.34,5.34,0,0,0,1.57.44C85.07,38.95,85.35,38.49,84.78,38.46Z"/><path class="cls-2" d="M86.72,38.92l-0.09,0C86.67,39,86.71,39.06,86.72,38.92Z"/><polygon class="cls-2" points="78.54 38.22 78.6 38.38 78.63 38.23 78.54 38.22"/><path class="cls-2" d="M85,39.37a0.7,0.7,0,0,0,.9-0.21,3.72,3.72,0,0,1-1,0C84.92,39.32,84.9,39.4,85,39.37Z"/><path class="cls-2" d="M81.89,37.73a4.27,4.27,0,0,0,.63.54C82.35,38,82,37.52,81.89,37.73Z"/><path class="cls-2" d="M86.52,38.71l0.06,0C86.47,38.48,86.48,38.57,86.52,38.71Z"/><path class="cls-2" d="M86.52,38.71a2.44,2.44,0,0,0-.59.46A2.41,2.41,0,0,0,86.63,39,1,1,0,0,1,86.52,38.71Z"/><path class="cls-2" d="M76.42,43.5a1.18,1.18,0,0,1,2.1-.44c1-.49.68-3.14,0.08-4.68-0.07.34-.11,0.66-1.08,1,0.27,0.47,1.91,1.23,1.06,1.86-1.26.27-1-.39-1.5-0.87,0.39,1-1.71,1.25-1.62,2.72l1.13-.39C76.57,42.94,76.15,43.26,76.42,43.5Z"/><path class="cls-2" d="M80.33,38.66l0.39-.06a3.27,3.27,0,0,1-1.18-1.21,1.37,1.37,0,0,0-.91.85l1.84,0.32Z"/><path class="cls-2" d="M82.41,38.79c-0.39.82-1.34,1.09-.89,2.07,1.11,0.07.86-.63,1.56-0.92-1.81,0,.57-0.42-0.66-1.05a3.48,3.48,0,0,1,1-.12,5.44,5.44,0,0,1-.88-0.49l0,0.06h0c0.06,0.12.08,0.18,0,.11h0a1.36,1.36,0,0,1-.12.31c-0.5-.23-0.06-0.23.12-0.31a1.19,1.19,0,0,0,0-.12h0l-1.84.27A4.28,4.28,0,0,0,82.41,38.79Z"/><path class="cls-2" d="M90.89,44.1a0.32,0.32,0,0,1,0-.21C90.73,44,90.67,44.05,90.89,44.1Z"/><path class="cls-2" d="M90.21,43.5a0.64,0.64,0,0,1,.7-0.3c0.34,0.3,0,.41-0.06.69,0.28-.2,1-0.51.21-1l-0.14.1a3.14,3.14,0,0,1-1.35-1.65A6.75,6.75,0,0,0,90.21,43.5Z"/><path class="cls-2" d="M86.23,41.35l-1.54.25,0.67,0.83V42C86.2,42.25,86.08,41.68,86.23,41.35Z"/><polygon class="cls-2" points="78.42 37.77 78.72 36.89 77.71 38.07 78.42 37.77"/><polygon class="cls-2" points="76.47 37.66 76.64 36.88 76.07 37.3 76.47 37.66"/><path class="cls-2" d="M120.22,29.38l0.44-.22A1.34,1.34,0,0,0,120.22,29.38Z"/><path class="cls-2" d="M117.06,29.31l-0.08.39C117.13,29.48,117.19,29.32,117.06,29.31Z"/><path class="cls-2" d="M58.43,34.73c0.57,0.73,1.19,1.87,1.13,1l-0.18-.87A0.93,0.93,0,0,1,58.43,34.73Z"/><path class="cls-2" d="M90.93,32.74l-0.16-.28-0.51.79Z"/><path class="cls-2" d="M91.69,29.21l0.79,0.62A2.77,2.77,0,0,0,91.69,29.21Z"/><path class="cls-2" d="M138,28.48l0.33-.42,0.34-.41C137.77,27.58,138.16,28.06,138,28.48Z"/><path class="cls-2" d="M56.82,35.65a3.12,3.12,0,0,0-1.15-.73C56.16,35.52,56.54,36.34,56.82,35.65Z"/><path class="cls-2" d="M118.94,38.58a0.6,0.6,0,0,0,.38-0.53A0.5,0.5,0,0,0,118.94,38.58Z"/><path class="cls-2" d="M54.29,34.64a2.91,2.91,0,0,0,.2.25,2.3,2.3,0,0,1,1.17,0A0.86,0.86,0,0,0,54.29,34.64Z"/><path class="cls-2" d="M95.09,49.69A1.26,1.26,0,0,1,95,49.56C94.93,49.67,95,49.69,95.09,49.69Z"/><path class="cls-2" d="M77.93,38.56a4.46,4.46,0,0,1,.82-0.09A1.39,1.39,0,0,0,77.93,38.56Z"/><path class="cls-2" d="M68.75,36.41c0.42,0,.08-0.09,0,0h0Z"/><path class="cls-2" d="M70.33,40a0.64,0.64,0,0,0-.22.4A0.82,0.82,0,0,1,70.33,40Z"/><path class="cls-2" d="M49.15,38.69l0,0C49.16,38.88,49.16,38.84,49.15,38.69Z"/><path class="cls-2" d="M69.32,36.87a2,2,0,0,0-.49-0.32A2.1,2.1,0,0,0,69.32,36.87Z"/><path class="cls-2" d="M69.29,36.45l0.35,0.12C69.7,36.44,69.67,36.34,69.29,36.45Z"/><path class="cls-2" d="M68.18,36.39a1.93,1.93,0,0,1,.65.16c-0.07-.07-0.1-0.12-0.08-0.15Z"/><path class="cls-2" d="M130.23,49.76l-0.11-.06C129.78,50.17,130,50.06,130.23,49.76Z"/><path class="cls-2" d="M69.48,26.32l-0.05,0,0.06,0V26.32Z"/><path class="cls-2" d="M71.07,25.85c-0.77,1-1.11.82-1.58,0.55l0.23,2.54Z"/><path class="cls-2" d="M127.79,29.08l-1-.77c1.23-1.3,2.13-.86,1.15-1.95-0.11,2.72-4,.32-4.12,3l-0.68-.57c0.19,0,.23-0.13.42-0.11-1.33-1.29-1,2-2.69,1.58-0.6-.21-1-0.6-0.6-0.93l-1.33.67c-0.39-.06-0.29-0.53.09-0.47l-2,.2,0-.08A9.2,9.2,0,0,1,115.71,31c-0.51-.4.26-0.28,0.13-0.63l-1.13.64c-0.45-.71.49-1.38,1.26-1.27-1-2.73-.94.67-3.16-0.95l1.06-.33c-0.65-1.55-1.48-1-2.64-2,0.26,0.51,2.32,2.47,1.1,3.12a1.13,1.13,0,0,0-1.45.21c0-1-.63-0.74-1.42-0.71l0.09-1.28c-0.87.34-.82,1-1.35,1.56-1-.16-1.12-1.15-1.32-2-1.52-.26,1,1.63-0.82,1.8-1.26-.54-2.17,0-3.74.64-0.87-.48.19-0.77-0.11-1.16l-0.84,1c-0.19,0-.11-0.34-0.07-0.5-0.69.36-.12,1.28-1.19,1.56-0.37,1.39-2-2.17-3.44-.67-0.3-.38.21-0.77,0.14-1.27a10,10,0,0,0-3.15,2l-1.18-.94c0.84,1-.42,2.08-1.54,2.91a10.44,10.44,0,0,0,.71,1.13l-1.72.53a1.22,1.22,0,0,1,.35-1.16,4.25,4.25,0,0,0-.33.28c-0.55-.53-0.17-1.23.31-1.91,0.18,0.27.35,0.56,0.52,0.84a4.47,4.47,0,0,0,.91-2.31,1.07,1.07,0,0,1-.57.3,0.75,0.75,0,0,0,.17-0.51c0-.14-0.24.13-0.54,0.43L90.5,28.9l-0.14.56-2-1.09c-1.66,1.27-3.23,3.23-5.75,3.52,0.73-1,.34-1.68.52-2.91,0.5,1.38,1.94-.33,3.16.07a0.56,0.56,0,0,1-.24-1L83.64,29c0.17-1-.38-0.81-0.91-1.3,0.19,2-1.83,1.11-2.83,1.6a1,1,0,0,1,1.43-1c-1-1.66-1.9,2.12-2.94.69,0.28,0,.41.14,0.56-0.18-0.72.51-2.22-.18-1.77-0.71l0.28,0c-1.78-.49-5.58-0.75-6.06.91A17.14,17.14,0,0,1,72,26.7l-2,2.65L68.13,32c0.44-1.42-.34-5,1.3-5.66a1.85,1.85,0,0,0-2-.13c0.29,0.24.56,2.17,0.13,2.27-1-1.73-.7-0.94-2-2.44,0.44,0.35-.25,2.59-1,2.47,0.14-.33.09-2.26,0.38-2.48l-1,1.06-1,1.07c0.47-.38.18-1.9-0.2-2.56,0.17,0.44-1.59-.1-2.1.11l0.77,0.54c-2.08-.39-2.09,3.1-4.05,3,0.21-.47.52-2.88-0.58-3.12-0.22.59-.69,2-1.24,3.41A8.91,8.91,0,0,1,53.77,33l-0.41-.6-0.54.47-0.52.49A19.47,19.47,0,0,1,55.8,26c-0.86-.46-0.29-0.76-1.52-0.58-0.51-.57.58-1,1-1.07l-1.5,0c-0.75,0-1.53,0-1.53,0,0.34,1.29-2,1.74-1.68,2.83,0,0,.7-0.51,1.43-1s1.47-.93,1.47-0.93a3.71,3.71,0,0,1-.75,2.52,3.55,3.55,0,0,1-2.33,1.7C49.71,29.06,50.12,27,50,26.62c-0.17.5-1.73,1.38-2,1.17l0.34-.49,0.35-.48a1.78,1.78,0,0,0-1.44,1.06,1.79,1.79,0,0,1-1.9.86,11.74,11.74,0,0,1-1.53.05c-0.57,0-1.13.25-.9,0.58,1.09,0,2.25,1.17,3.21,2.34a21.44,21.44,0,0,1,2,3l-0.31-.09a6.47,6.47,0,0,0-.65-0.13,2.42,2.42,0,0,0-.38,0l-0.21,0H46.46l0-.11h0l0,0-0.11.08-0.21.15-0.16,0a1.09,1.09,0,0,0-.3.15,1.62,1.62,0,0,1-2-.17,4.54,4.54,0,0,1-.48-0.52,1.51,1.51,0,0,0-.46-0.27,1.2,1.2,0,0,0-.88-0.08L42,33.83a0.21,0.21,0,0,1,.13.15c0.08,0.16.16,0.35,0.24,0.55a4.94,4.94,0,0,0,.25.54l0.21,0.32a0.62,0.62,0,0,1-.56.58,0.32,0.32,0,0,0-.18.34,2.1,2.1,0,0,0,.38,1c1.3-.2,2,2.73,1.43.13a3.43,3.43,0,0,1,1,1.09,2.77,2.77,0,0,0,1,1.09,2.47,2.47,0,0,1,1.48-1.28,5.51,5.51,0,0,1,2-.67,1.84,1.84,0,0,0-.17,1c1.75,0.84,2.65,1.69,4.45,2.1,0.1,0.36.91,0.92,0.42,1.43a1.8,1.8,0,0,1,1.21-.53c0.9,1.35-1.3,0-.71,1.5,0.22-.76,1.67-0.82,2.53-1.2-0.07-1.24-1.79-.51-2.7-0.18a5.32,5.32,0,0,1,3.89-3.66c1.52-.22.49,1.17,0.77,1,2.74,0.66,2.75-2.64,4.92-1.16,0.79,1.17-.23,2.13-0.12,2.92-1.27.27-1.78-.89-2.61-0.94l0.95,0.62a1.54,1.54,0,0,1-1.68.13c0.65,1,4.71.72,6.76,1.85,0.43-.31,1.14-0.61.88-1.07l-0.7.07c-0.52-.93,1.43-1,0.62-1.54,1-.5,2.14-1.34,3.37-0.7l0.09,1.25A0.81,0.81,0,0,0,70.34,40c0.6-.48,1.78,1.87,2.56.34l-0.8-.95c1-.51,2.29-1.67,3.38-1.16-0.38-1.26-.28.11-0.92-1.39,0.49,1.83-2.91-.4-2,1.56-0.63-1.73-1.36-.86-2.28-2.37,0,0.4.29,0.81-.64,0.51a1.7,1.7,0,0,1-.25.33l-0.06,0,0,0.05c0,0.06-.05.07,0,0a1.38,1.38,0,0,1,.41.67c-0.59.87-2.11,0.67-2.69,1.08-0.55-.26.3-0.43,0-0.9l-0.86.63c0-.9-1.33-1.65.08-2l-1.2-.18a2.24,2.24,0,0,0-2.25-.58c-0.54-.26-1.56.82-1,0.18l-2,.32V35.92c-1.78-.35-4,1-5.51-1a2.4,2.4,0,0,1-2-.24l0.07-.79a1.51,1.51,0,0,1-1-.54c-0.27-.25-0.48-0.42-0.75-0.1a2.24,2.24,0,0,0,.07-1.06,0.57,0.57,0,0,0-.07-0.2,0,0,0,0,0,0,0l-0.22.26-0.36.38a8,8,0,0,1-2.48,1.91,1.62,1.62,0,0,1-.38.13,0.78,0.78,0,0,1-.21,0,0.72,0.72,0,0,1-.07.15c0,0.05,0,0,0-.07l0.07-.13,0,0,0,0h0l0.11,0.22h0l0.07,0,0.13,0.05,0.11,0.06,0,0L47.92,35a2.25,2.25,0,0,1,.45.31c0.07,0.06.11,0.11,0.2,0.19l0.32,0.27C50,37,49.33,36.3,49.64,36.1l-0.47-.77a0.48,0.48,0,0,1,.39-0.43,2.14,2.14,0,0,1,.8-0.05,5.71,5.71,0,0,0,2,0c0,0.35-.36.35-0.65,0.21,1,0.77,1.75.28,2.57-.3s1.69-1.16,2.55-.47a0.66,0.66,0,0,1,1,0,0.15,0.15,0,0,0-.1.05h0.16c0.18,0.15.37,0.32,0.57,0.46A1.8,1.8,0,0,0,58,34.27a3.87,3.87,0,0,0,1.23-.38l0.2,1,0.11,0c0.47,0.36.39-.45,0.14-1.18a2.53,2.53,0,0,0,.66-0.57c0.35,1.55,1.31-.49,1.79,1.18,0.36-.8,2.5-0.48,2.89-2.15,0,0.22.14,0.34-.13,0.33a1.45,1.45,0,0,0,1.63,0l0.13,1.24L68,32.2c0.67,0.82.93,1.28,0.1,2.14,1.93-1.25,1.49-.39,3.19-1.63l-0.17.78c0.55,0,1.55-.91,1.8-0.21,1,1.64,6,1,9.09,2.82-0.34-2.39,1.38,1.21,1.72-.57,0.12,0.57.54,0.93,0,1.35,1.71-.34,2.39,1.14,3.69-0.25,0.13,0.57-.43.77-0.3,1.11,0.15-.1.57-0.42,0.71-0.08s-0.29.44-.58,0.65c1.71,0.08,2-1.61,2.3-3.18,0.78,0.83,1.22.77,1.92-.22,0.25,0.54.7,1.13-.36,1.23,0.58,0.12,3.53,1.06,3.69-.22,0.16,0.34.81,0.15,1,0a11.77,11.77,0,0,0,2.72.25l-0.35-.23c0.6-1.51,1.09-.28,2.14-0.4l0,0.16c2.33,1.23,1.05-.48,3.35.9l-0.09-1c0.31-2.05,2,1.3,3.43.56l-0.47-.56c0.77-.68,2,2.87,2.75,3.15,0.16,0.18-.27.28-0.5,0.41,1.94,1.28.29-1.25,1.77-1.5,0.25,0.68-.39,1.72.6,1.86,0.49,0.56,2.91-2.14,4.24-.82-0.29-.53-0.58-1.05.11-1.43,1-.17,2.81,2,3.76.36a0.63,0.63,0,0,1,.19.41c0.8-.42,2.59-0.7,3.07-1.6,0.75,3.32,4.93-1.64,4.94,1.41l2.45-.2-0.06.31a2.43,2.43,0,0,0,2.62-1.3c0.35,0.2.1,0.49,0.07,0.65,2.21,0.61,2.36.47,4.24-1l0.13,1c0.25-.27,1,0.16,1.85.58a3.44,3.44,0,0,0,2.64.51,0.91,0.91,0,0,1-.28.37,1,1,0,0,1,.64,0,0.63,0.63,0,0,1,.22.11,0.51,0.51,0,0,1,0,.09,0.87,0.87,0,0,0,.13.15l0.18,0.2,0.09,0.1,0,0.05h0l-0.2-.14h0l0,0,0.15-.17a4.78,4.78,0,0,1,.56-0.56,3,3,0,0,1,.42-0.32c0.54-.29.38-0.08,0-0.18a1.54,1.54,0,0,1-.31-0.08,1.84,1.84,0,0,1-.33-0.12l-0.3-.14,0,0,0.13,0.07,0.27,0.17,0.09,0.12a2.84,2.84,0,0,0,.14.32,0.68,0.68,0,0,1-.07.51v0h0l0.06-.06h0V39.2l0.12-.07h0l-0.06.06h0l0,0,0.07,0,0.24-.12a0.37,0.37,0,0,1,.24.06,1.08,1.08,0,0,1,.4.44c0.22,0.41.21,1.07,0.76,1a1.19,1.19,0,0,1-1.23.43c-0.43-.09-0.68-0.36-0.38-0.7l0.22,0.06a1,1,0,0,0-1.5-.41c-0.54.23-1.13,0.52-1.4-.06a23,23,0,0,1-5.53,1.87c-1.93.46-3.8,0.8-5.55,1.24l0.8,1.29-0.64.14-0.64.12c-0.41-.24-0.71-1,0.17-1.16-0.66-.68-1.29,1-1.26,1.36-1.85-.2.29-1.81-0.25-1.73l-0.67.26L127,43.29c-0.44.71-.38,1.35-1.46,1.47-0.72-.18-0.49-0.83-0.76-0.85,0-.1-0.11-0.14-0.4,0,0,0-.39,0-0.77,0s-0.77,0-.77,0l0.37,0.55,0.38,0.54c-0.64.65-1.52,0-.64,1.31a2.28,2.28,0,0,0-1.5-.88,14.33,14.33,0,0,0-2.09-.15c-0.73,0-1.44,0-2,0a2,2,0,0,1-1.17-.27,3.75,3.75,0,0,1-3.34.41c0.28,0.28.33,1.59-.76,1.29,0.37-1.3-.09-1.66-0.71-1.93a2.39,2.39,0,0,1-1.69-1.56c0.57,1.41-3.11-.23-2.22,1.77-0.87-.4.13-1-0.43-1.75-2.36.6-4.6-1.67-7.39-1.95-0.12.33,0.21,1-.49,1.34l-1-2c-0.58,0-.95,1.87-1.67.45,0.08,0.32.19,0.8-.2,0.83-2.5-1.44-5.39-1.7-8.29-2-0.73-.07-1.45-0.15-2.17-0.26a19,19,0,0,1-2.19-.36,16.17,16.17,0,0,1-4.42-1.66c0.81,0.72.26,0.74-.36,0.78,0.4,0.15,0,.87.06,1.34l-1.24-.63-1.28-.63c-0.38,1.28-2.71.34-2.83,1.61l0.76-.31c-0.44.8,0,1.58,0.55,2.41a5.19,5.19,0,0,1,1.12,2.67c0.46-.88,1.2-0.26,2,0.26a2.48,2.48,0,0,0,1.18.51A1.4,1.4,0,0,0,80.29,45c0.36,0.41-.34.6-0.16,1.06a1.26,1.26,0,0,1,1.92-.53l-0.12.19c2.72,0.06,3.78,1,6.7,2.06l-0.06-1a2,2,0,0,1,1,.86c1-1.27-1.83-.43-0.86-1.86,0.27,1,1.42,1.25,2.54,1.51S93.44,47.9,93.5,49c1,0.24-.07-1.14,1-0.9l0.14,0.64L95,48.09a1.46,1.46,0,0,1,.74,1.57,1.62,1.62,0,0,0-.68,0c0.71,0.88,2.51.33,2.77,0.62l-0.92-.59c2.94,0.11,6.3,1.68,9.39,1l-0.13-.48c2.31-.41,1.65.8,4.12,0.82l-0.1.09a2.46,2.46,0,0,1,1.89-.38c-0.68.44,1,1.16,0.16,1.63,2.53-.59,1.31-0.57,3-2.08l0.32,0.77A2.28,2.28,0,0,1,117.48,50c-1,.62.75,1.14-0.42,2a3.06,3.06,0,0,0,3.11.12c0.8-.34,1.4-0.62,2.09.53,1.07-2.12-2.35-1-1.7-1.48-0.57-.64.92-1.59,1.72-1.44,0.79,0,1.63,2.57,3.81,2.2-0.21,0-.21.18-0.42,0.2,0.9,0.4,1.45-.95,2.58-0.31,0.28-1.33,1.28-.21,1.07-1.79l-0.9.39-0.91.37c1-.63,1.56-2.63,3.46-2.23a2.9,2.9,0,0,1-.74,1.21c0.63,0.32.89-.56,1.54-0.24,0.29,1.57-2.16,1-3.07,2.38,0.74,0.54,1.95-1.64,1.78.17,0.29-2.32,2.15-.29,3-2.32l0.2,0.93a2.31,2.31,0,0,1,.88-0.89l-0.33,1.41c0.78-1.36,2.44.14,3.29-.79-2.17.83-.88-0.89-2-1.21,2.19-2.16,2.4,1.78,5.18.19-0.36.29-1.7,0.06-1.25-.59a4.19,4.19,0,0,1,2.05.3c2-1.06-.7-0.76-0.07-1.67,1.15,0.76.81-.87,1.51-1.63l0.44,0.86c1.35-.34,1.29-0.92,1.16-1.41s-0.29-.91,1-1.34l-0.07.87-0.11.87,0.5-.53,0.49-.57,0.21,0.53,0.2,0.54a7.94,7.94,0,0,1,1.21-1.78l0.83-.84a8.56,8.56,0,0,0,1-1.2,0.78,0.78,0,0,1-.91-0.71,6.89,6.89,0,0,1,0-2.33c0.33-.75.53-0.57,0.68-0.55s0.12-.05.13-0.34a4.86,4.86,0,0,0-.37-1.72,2.8,2.8,0,0,1,1.11,1.28,2.11,2.11,0,0,1-.4,2.11,8.39,8.39,0,0,1,.62,1.21,5,5,0,0,0,.63-3.86,8,8,0,0,0-1.5-3.15,3.9,3.9,0,0,1,.61,1.57,5,5,0,0,0-.62-0.76,6.2,6.2,0,0,0-1.46-1.17,5,5,0,0,0-.76-0.38l-0.34-.13-0.16-.06h0l-0.19-.13h-0.47c-0.07-.48.31-0.58,0.68-0.68a1.09,1.09,0,0,0-.32-0.05h-0.17l-0.31-.06-0.66-.15-0.68-.19a4.16,4.16,0,0,1,.8-0.89,1.47,1.47,0,0,1,.74-0.15,2.71,2.71,0,0,1,.53.07c0.19,0,.47.14,0.53,0.14l-0.09,0L147,30.52l-0.71-.23-0.39-.11-0.31,0A10.49,10.49,0,0,0,144,30c-0.08-.41-1.13-1.29-0.71-1.48a3.64,3.64,0,0,0-2.63,0,4.09,4.09,0,0,1-2.64.12,1,1,0,0,1-.63.37c-1.5-.26-2.82-1.25-4.51-0.16l-1-1.4c-1.3.34,1.29,1.75-.84,2.32-1.47.47-.57-1.19-1.1-1.57-0.72.72-2,2.18-3.35,1.05A3.28,3.28,0,0,1,127.79,29.08Zm-15.43.58c0.3-.19.91-0.81,1.12-0.24C113.12,30.53,112.86,30,112.36,29.67Zm-23.53,1c0.25-.3.58-0.11,0.93,0.29A1.09,1.09,0,0,1,88.83,30.69Zm-24.66,6,0,0C63.51,36.27,63.73,36.45,64.17,36.68Zm1.33,0.57a0.32,0.32,0,0,0,.12-0.39,0.63,0.63,0,0,1-.79.1C64.9,37.22,65.06,37.42,65.5,37.25Zm59.18,7L125,44.5C124.44,44.85,124.56,44.58,124.67,44.28Z"/><path class="cls-2" d="M91.59,29.62a1.47,1.47,0,0,1,.08.53A0.34,0.34,0,0,0,91.59,29.62Z"/><path class="cls-2" d="M137.93,28.64H138a0.57,0.57,0,0,0,.07-0.17Z"/><path class="cls-2" d="M41.32,35.57a4.51,4.51,0,0,1,0-.59,3.87,3.87,0,0,1,.13-0.59A2.87,2.87,0,0,1,41.66,34a0.74,0.74,0,0,1,.09-0.15l0.07,0a0.45,0.45,0,0,0-.17,0,0.11,0.11,0,0,0-.08,0,1.13,1.13,0,0,0-.09.19,2.79,2.79,0,0,0-.15.67,4.22,4.22,0,0,0,0,.48C41.3,35.27,41.31,35.41,41.32,35.57Z"/><path class="cls-2" d="M73,36.45l-0.92.15a1,1,0,0,1,.76.4C72.89,36.78,72.76,36.44,73,36.45Z"/><path class="cls-2" d="M80,43.25c0.14-.1.28,0,0.42-0.09l0-.45C79.93,42.68,79.5,43,80,43.25Z"/><path class="cls-2" d="M73.48,39.73c0,0.81.56,0.6,1.2,0.52H74.57C74.89,39.13,74.18,39.43,73.48,39.73Z"/><path class="cls-2" d="M74.83,40.24a1.47,1.47,0,0,1,.58,0C75.54,39.84,75.19,40.17,74.83,40.24Z"/><path class="cls-2" d="M67.32,36.91c0.27,0.24.31-1,.44-0.66C68.22,35.26,65.64,37.27,67.32,36.91Z"/><polygon class="cls-2" points="73.66 42.44 73.56 41.42 73.11 42.18 73.66 42.44"/><path class="cls-2" d="M68.83,41.15l1,0.39a0.37,0.37,0,0,1,.31-0.31C69.49,41.13,68.84,40.86,68.83,41.15Z"/><path class="cls-2" d="M70.1,41.23a1.12,1.12,0,0,0,.82-0.07A2.46,2.46,0,0,0,70.1,41.23Z"/><polygon class="cls-2" points="72.27 42.59 72 42.34 71.3 42.19 72.27 42.59"/><path class="cls-2" d="M58.16,39.71L57,39.84c-0.16.32,0.1,0.57,0.52,0.5S58.28,40.06,58.16,39.71Z"/><path class="cls-2" d="M61.09,42.85A1.55,1.55,0,0,1,60.71,42l-0.19,1.23Z"/><path class="cls-2" d="M57.87,42.73c-0.15.33-1.75,0.75-.33,0.87C57.7,43.29,58.84,43.15,57.87,42.73Z"/><path class="cls-2" d="M45.19,33.08a2,2,0,0,0-.17.28l0.9,0.48,0.89,0.49s-0.43-.28-0.83-0.59S45.19,33.08,45.19,33.08Z"/><path class="cls-2" d="M59.32,24.34c-1.47-.47-0.33,1.25-1.65.68-0.32.49,1.08,0.47,0.74,0.89C59.27,25.39,59.7,25.68,59.32,24.34Z"/><path class="cls-2" d="M58.41,25.91a2.72,2.72,0,0,0-.43.32A1.39,1.39,0,0,0,58.41,25.91Z"/><polygon class="cls-2" points="74.5 37.64 73.51 37.32 74.19 37.94 74.5 37.64"/><path class="cls-2" d="M72.9,39.34l-0.39-1.26L72.12,39.3A0.63,0.63,0,0,1,72.9,39.34Z"/><path class="cls-2" d="M110.14,27l-0.07.31a0.66,0.66,0,0,0,.69.43Z"/><polygon class="cls-2" points="121.26 28.11 121.07 28.08 121.43 29.25 121.26 28.11"/><path class="cls-2" d="M130.62,26.52c-0.38,0-.83.23-1.21,0.18C130.24,26.48,130.75,28,130.62,26.52Z"/></g></svg>