<svg id="progressbar-overrides-over" xmlns="http://www.w3.org/2000/svg" viewBox="0 0 460 300"><defs><style>.cls-1{fill:#ff7377;}.cls-2{fill:#ff8285;}</style></defs><title>20180407_呼呼哥_art-46</title><path class="cls-1" d="M238.26,153.86H211.92c-5.27,1.52-11.12-.36-17.37,0-6.25-.58-87.33.34-90.24,0-2.9-1.42-5.68.17-8.32,0-5.27.37-10,.68-13.86,0s-7-1-9.17,0c-2.15-.19-3.32-0.94-3.32,0-2,.37-3.89-0.75-5.23-0.57-1.34-.35-2.17-0.83-2.17-1.36V138.75c0-1.06,3.33-1.92,7.4-1.92a4.7,4.7,0,0,0,3.32,0,69.81,69.81,0,0,0,9.17,0c3.9,0.71,8.59,0,13.86,0,5.27,0.73,125.88.2,129.78,0,3.9-.67,7,0.52,9.17,0,2.15,0,3.32.09,3.32,0,2-.27,3.89.81,5.23,0.57,1.34,0.35,2.17.83,2.17,1.36v13.19C245.67,153,242.33,153.86,238.26,153.86Z"/><path class="cls-2" d="M238.75,155.11c-0.61,0-.39.2-0.48,0.24C239.29,155.29,238.72,155.05,238.75,155.11Z"/><polygon class="cls-2" points="246.43 149.78 246.52 149.95 246.3 148.53 246.43 149.78"/><path class="cls-2" d="M246.43,140.75c-0.37.85,0.06,3.27-.07,4.88l-0.08.27,0.3,0.73C246.53,144.66,246.33,142.12,246.43,140.75Z"/><path class="cls-2" d="M243.42,135.83c0.26,0-.2.12-0.24,0.13l0.37-.05a2.89,2.89,0,0,1,.66.13,8.57,8.57,0,0,1,.83.25l-0.25-.13-0.41-.14L244,135.9A1.06,1.06,0,0,0,243.42,135.83Z"/><path class="cls-2" d="M244.78,136.16l0.34,0.12,0.11,0a1.61,1.61,0,0,0-.3-0.15C244.71,136.06,244.44,136,244.78,136.16Z"/><path class="cls-2" d="M240.17,135.41l0.71,0.06,0.66,0.08c-0.21-.15-1.47-0.41-1-0.38a2.38,2.38,0,0,0-1.09,0A2.67,2.67,0,0,0,240.17,135.41Z"/><path class="cls-2" d="M238.73,135.58l0.39,0h0.39A1.35,1.35,0,0,0,238.73,135.58Z"/><path class="cls-2" d="M241.07,135.68l-0.75-.09c-0.39,0-.8,0-0.8,0a0.72,0.72,0,0,0,.73,0C240.1,135.68,240.44,135.62,241.07,135.68Z"/><path class="cls-2" d="M241.83,135.91c0.33,0.12.66,0.21,0.78,0.27s0.07,0.11-.51.05a2.58,2.58,0,0,0,1,.06l0.38-.09c0.09,0,.11,0,0.08-0.06s-0.5,0-.62,0S242.4,136,241.83,135.91Z"/><path class="cls-2" d="M246.05,140.28l-0.11.94,0.12,0.81A16.93,16.93,0,0,0,246.05,140.28Z"/><path class="cls-2" d="M232.32,135.22a1.53,1.53,0,0,0,.46.35l0.43,0,0.4,0A3.84,3.84,0,0,1,232.32,135.22Z"/><path class="cls-2" d="M232.78,135.57h-1.36C232.66,135.72,232.84,135.66,232.78,135.57Z"/><path class="cls-2" d="M238.49,136a8.09,8.09,0,0,1,1.3-.11A11.89,11.89,0,0,1,241,136a8.62,8.62,0,0,0-2.88.05l0.09,0.8a0,0,0,0,1,0,0,0.89,0.89,0,0,1-.05-0.13c0-.1,0-0.17-0.05-0.38l0-.21h0l0,0.21c0,0.21,0,.28.05,0.38a0.89,0.89,0,0,0,.05.13,0,0,0,0,0,0,0l-0.09-.79Z"/><path class="cls-2" d="M226.75,135l0.43-.13,0.43-.11s-0.39.08-.77,0.18-0.76.22-.76,0.22l0.33-.09Z"/><path class="cls-2" d="M223.38,135.23c0.58-.16-0.8-0.25-0.19-0.34a18.65,18.65,0,0,0-2.49.3A13.29,13.29,0,0,1,223.38,135.23Z"/><path class="cls-2" d="M219.47,135.36c0.39,0,.79-0.11,1.23-0.18A10.32,10.32,0,0,0,219.47,135.36Z"/><path class="cls-2" d="M229,135.37a2.56,2.56,0,0,0-1.17-.23l0.59,0.21H229Z"/><path class="cls-2" d="M228.44,135.36h0c-0.63,0-1.08,0-1.27,0C227.31,135.38,227.7,135.35,228.44,135.36Z"/><path class="cls-2" d="M229.14,135.37H229A0.15,0.15,0,0,0,229.14,135.37Z"/><path class="cls-2" d="M234.83,135.83l-0.24.07-0.14.05c-0.09,0-.2.05-0.3,0.08l-0.56.13c-0.3.06-.31,0.17,0.45,0.23,0.26-.1.17-0.16,0.16-0.22a0.11,0.11,0,0,1,.08-0.12l0.16-.08,0.12-.06Z"/><path class="cls-2" d="M229.83,135.68l0.75,0.08,0.74,0.09c0-.06-0.28-0.17.13-0.19h-1.62Z"/><polygon class="cls-2" points="229.08 135.72 229.83 135.68 229.27 135.63 229.08 135.72"/><path class="cls-2" d="M222,135.54a16.77,16.77,0,0,1-2.11.14c0.84,0,1.71,0,2.54,0C222.53,135.65,222.89,135.52,222,135.54Z"/><path class="cls-2" d="M225.08,135.56l-0.14,0C225,135.59,225.1,135.59,225.08,135.56Z"/><polygon class="cls-2" points="212.15 135.74 212.28 135.78 212.31 135.74 212.15 135.74"/><path class="cls-2" d="M222.56,135.76a4.71,4.71,0,0,0,1.36-.1c-0.46,0-1,0-1.51.06C222.36,135.75,222.35,135.77,222.56,135.76Z"/><path class="cls-2" d="M217.32,135.48l1.1,0.11A3.84,3.84,0,0,0,217.32,135.48Z"/><path class="cls-2" d="M224.74,135.51h0.09C224.62,135.46,224.65,135.48,224.74,135.51Z"/><path class="cls-2" d="M224.74,135.51c-0.32,0-.56.1-0.81,0.15,0.38,0,.72-0.06,1-0.09Z"/><path class="cls-2" d="M209.82,137.17A6.45,6.45,0,0,1,213,137c1.41-.16.48-0.83-0.75-1.19,0,0.09,0,.17-1.5.3,0.51,0.11,3.23.24,2,.43a6.91,6.91,0,0,1-2.51-.16c0.8,0.25-2.45.39-2,.76l1.69-.14C210,137,209.35,137.12,209.82,137.17Z"/><path class="cls-2" d="M215,135.78l0.6,0a15.3,15.3,0,0,1-2.07-.26,2.86,2.86,0,0,0-1.27.25h2.94Z"/><path class="cls-2" d="M218.33,135.73c-0.47.23-1.9,0.33-1,.56a9.91,9.91,0,0,0,2.28-.3c-2.83.08,0.81-.13-1.23-0.24,0.56,0,1.06-.06,1.53-0.07l-1.46-.09h0.08c0.12,0,.16,0,0,0h-0.06a0.32,0.32,0,0,1-.13.08c-0.82,0-.13-0.06.13-0.08l0,0h0l-2.84.14C216.25,135.78,217,135.76,218.33,135.73Z"/><path class="cls-2" d="M232.56,136.84c-0.09,0-.08,0-0.09-0.06C232.29,136.79,232.22,136.8,232.56,136.84Z"/><path class="cls-2" d="M231.41,136.6a3.65,3.65,0,0,1,1,0c0.57,0.11,0,.11,0,0.18,0.41,0,1.4-.08.17-0.25h-0.2a11.05,11.05,0,0,1-2.38-.6A5.16,5.16,0,0,0,231.41,136.6Z"/><path class="cls-2" d="M224.77,136.2l-2.35.14,1.21,0.18-0.06-.11C224.9,136.43,224.61,136.29,224.77,136.2Z"/><polygon class="cls-2" points="211.88 135.63 212.19 135.4 210.83 135.74 211.88 135.63"/><polygon class="cls-2" points="208.81 135.68 208.93 135.47 208.12 135.6 208.81 135.68"/><path class="cls-2" d="M73.81,152.27s0.2-.07.39-0.11l0.39-.1A5.17,5.17,0,0,0,73.81,152.27Z"/><path class="cls-2" d="M69.3,152.66l-0.08.11C69.39,152.69,69.45,152.64,69.3,152.66Z"/><path class="cls-2" d="M133.4,135.91c-1-.19-2.14-0.49-2-0.26l0.31,0.22A10.39,10.39,0,0,1,133.4,135.91Z"/><path class="cls-2" d="M81.79,136.9l0.29,0c0.23-.07.48-0.08,0.69-0.12A3.19,3.19,0,0,0,81.79,136.9Z"/><path class="cls-2" d="M81.13,137.87l-1.36-.08A11.65,11.65,0,0,0,81.13,137.87Z"/><path class="cls-2" d="M101.39,151.81a9.27,9.27,0,0,1,1-.2,2,2,0,0,0-1,0A0.35,0.35,0,0,1,101.39,151.81Z"/><path class="cls-2" d="M177.37,135.9c-0.87-.08-1.57-0.12-2.18-0.13A5.59,5.59,0,0,0,177.37,135.9Z"/><path class="cls-2" d="M72,154.9c0.2,0,.49,0,0.63,0s0.21,0,.2-0.05C72.14,154.83,71.95,154.83,72,154.9Z"/><path class="cls-2" d="M172.67,135.79l0.46,0.05c0.64,0,1.28-.07,2.06-0.06A8.51,8.51,0,0,0,172.67,135.79Z"/><path class="cls-2" d="M201,152.79l0.22,0S201.15,152.8,201,152.79Z"/><path class="cls-2" d="M229.83,154.84l-1.19,0A11,11,0,0,0,229.83,154.84Z"/><path class="cls-2" d="M196.46,135.65c0.65,0,.1,0,0,0h0Z"/><path class="cls-2" d="M199.63,136.52a0.36,0.36,0,0,0-.26.11A0.49,0.49,0,0,1,199.63,136.52Z"/><path class="cls-2" d="M166.18,137.19h-0.06C166.32,137.24,166.29,137.23,166.18,137.19Z"/><path class="cls-2" d="M197.44,135.75l-0.83-.06Z"/><path class="cls-2" d="M197.31,135.64l0.57,0C198,135.62,197.89,135.6,197.31,135.64Z"/><path class="cls-2" d="M195.55,135.67c0.37,0,.72,0,1.05,0-0.13,0-.18,0-0.15,0Z"/><path class="cls-2" d="M147.55,153.09l0.14,0C148.34,153,148.05,153,147.55,153.09Z"/><path class="cls-2" d="M116.45,138.19h0Z"/><path class="cls-2" d="M114.11,138.34a5.71,5.71,0,0,1,2.32-.17l-0.77-.65Z"/><path class="cls-2" d="M86.1,153l-0.79-.14-0.78-.15c1.9-.19,3.28-0.1,1.81-0.4-0.12.35-1.66,0.33-3.14,0.15-0.72-.09-1.55-0.23-2.17-0.27a1.5,1.5,0,0,0-1.15.15L78.79,152c0.32,0,.37,0,0.69.05a3.27,3.27,0,0,0-2-.08,11.37,11.37,0,0,1-2.55.34c-1,.07-1.84.24-1.12,0l-0.37.12-0.38.15-0.1,0,0,0-0.07,0a0.59,0.59,0,0,1-.31.06l-0.3,0c-0.56-.12-0.39-0.2.15-0.1-0.44-.06-0.87-0.15-1.37-0.24a4.5,4.5,0,0,0-1-.1,1.57,1.57,0,0,0-1.11.49,1.46,1.46,0,0,0-.34.64,2.12,2.12,0,0,0-.05.46l0.92-1.1-0.24,0,0,0a4.08,4.08,0,0,1-1.71.24c-0.73-.25.39,0,0.21-0.12,0,0-.4,0-0.84-0.09l-0.9-.13c-0.37-.17-0.14-0.22.32-0.18s1.09,0.17,1.62.27a2.77,2.77,0,0,0-1.64-.59c-0.33,0-.72-0.09-1.44-0.11H64.54L64.32,152a2.67,2.67,0,0,1-.38-0.17,0.75,0.75,0,0,1-.16-0.15l0.32,0.09,0.39,0.1h0.07a1.6,1.6,0,0,0-.09-0.15l-0.31-.19a0.32,0.32,0,0,1-.14-0.16,0.12,0.12,0,0,1,0-.14l0,0s0,0,0-.13l0.08-.69c0,0.11-.09.41-0.15,0.75a2.47,2.47,0,0,0-.21.27c-0.08.19,0,.47-0.4,0.23a3,3,0,0,1,0-.41l0-.55c0-.22,0-0.46-0.08-0.72,0.25,0,.19-1,0.17-2.3l0.33,0.09a8.9,8.9,0,0,0-.41-2.08,3.51,3.51,0,0,1,.5-2.21c0.05-2.46-.41,1.7-0.47-1.21,0-.51,0-1,0-1.44v-1c0-.11,0-0.25,0-0.27a0.56,0.56,0,0,1,.09-0.57,1.33,1.33,0,0,1,.28-0.22,1.66,1.66,0,0,1,.27-0.13l0.37-.15c1.29-.21-0.17.24,0.3,0.22l0.53-.26,0.56-.24c0.29,0,.21.06,0.17,0.1,1-.23,0-0.37,1.63-0.61a1.06,1.06,0,0,1,.64-0.12l0.54,0a5.71,5.71,0,0,1,.57.07,0.28,0.28,0,0,1,.14,0l0.13,0.08a4.56,4.56,0,0,0,1.91.32,4.63,4.63,0,0,0,.91-0.13,3.47,3.47,0,0,0,.41-0.13,1.4,1.4,0,0,1,.2-0.1c0.27,0.1-.12.2,0,0.33l0.1,0h0.22l0.43,0,0.69,0,1-.05c0.55,0,1-.09,2.23-0.26l1,0.11,1,0.09c-1.49-.22.41-0.52,2-0.89l-1.27-.2,1.29-.17a1.67,1.67,0,0,1,.55,0l0.42,0,0.4,0c0.3,0.09,0,.18-0.41.25,0.18,0,.35,0,0.48,0,0.91,0.22.42,0.36-.28,0.47-0.31-.1-0.62-0.24-0.89-0.33-0.61.25-1.22,0.51-1.07,0.69a7.67,7.67,0,0,1,.86-0.15c-0.17.07-.27,0.12-0.19,0.15a0.65,0.65,0,0,0,.27,0,0.92,0.92,0,0,1,.35-0.09L82.86,138l0.17-.13s0.88,0.17,1.77.26,1.76,0.15,1.76.15c2.51-.37,4.57-1.12,8.46-1.37-1,.29-0.2.45-0.24,0.77-1.06-.32-3,0.25-5,0.28,1.06,0,.83.15,0.57,0.21l3.56-.46c-0.07.26,0.76,0.17,1.69,0.26-0.23-.16,0-0.26.4-0.32H95.88c0.91-.07,2.84.08,3.82,0,0.08,0.17-.25.37-2.08,0.25,2,0.47,2.58-.54,4.52-0.16a2.2,2.2,0,0,0-.85,0c1-.13,3.51,0,2.92.17h-0.44c2.89,0.1,8.81.09,9.24-.35a1.75,1.75,0,0,1-.56.61l5.17-1.44c-0.46.37,1.29,1.28-1.11,1.48a15.48,15.48,0,0,0,3,0c-0.47-.05-1.17-0.55-0.53-0.58a30.19,30.19,0,0,0,3.39.59c-0.7-.08.08-0.67,1.19-0.65-0.17.09,0.09,0.58-.32,0.64l2.77-.57c-0.69.1-.12,0.49,0.5,0.66-0.29-.11,2.4,0,3.13,0l-1.17-.14c3.13,0.09,3.09-.81,6.19-0.78-0.38.12-.93,0.74,0.65,0.81a20,20,0,0,1,5.95-1.65l0.53,0.17,2.11-.19a68.86,68.86,0,0,1-7,1.75,6.94,6.94,0,0,0,2.08.19c0.62,0.16-1,.24-1.47.25l4.08,0.1c-0.18-.35,3.12-0.35,3-0.64l-4.43.36c-0.18-.35,2.56-1,5.45-0.92,0.74,0.14-.55.62-0.49,0.73a15.3,15.3,0,0,1,3-.14l-1.23.19c1.61,0.13,2.63-.46,4.56-0.13,0.67,0,2,.44,2.11.24-1.09-.39-1.3-1.62-0.58-1.91,0.23,0,3.51.37,4.27,0.57,1.1,0.31-1.65.74-.71,1a2.57,2.57,0,0,1,.9-0.25c0.7,0.08-.29.29,1.23,0.25,0.25-.35,3.1,0,0.72-0.3,1.49-.1,1.58.07,3.33,0.05-0.56-.23,1.57-0.78,3.06-0.88-0.09.09,0.25,0.2,0.41,0.26,3.05,0,4.69.18,7.54,0.17,0.26,0.08,1.64.18,1.05,0.34a8.46,8.46,0,0,1,1.66-.2c1.7,0.3-2,.05-0.66.41a19.13,19.13,0,0,1,3.52-.42c-0.39-.31-2.89-0.05-4.14.08,0-.43,2.17-0.9,5.15-1.11,2.37-.12,1,0.28,1.44.21,4.44,0.06,3.78-.77,7.47-0.47,1.47,0.27.07,0.55,0.39,0.75-1.93.11-3-.16-4.27-0.15l1.61,0.12a12.92,12.92,0,0,1-2.6.09c1.23,0.24,7.51,0,10.94.23,0.61-.1,1.66-0.2,1.16-0.31l-1.08,0c-1-.22,2-0.32.67-0.42a27.87,27.87,0,0,1,5.13-.3l0.39,0.31a5.54,5.54,0,0,0-1.92-.08c0.85-.14,3.14.41,4.08,0l-1.44-.21a30.71,30.71,0,0,1,5.08-.42c-0.83-.31-0.42,0-1.71-0.32,1.12,0.45-4.64,0-2.85.47-1.33-.42-2.29-0.17-4-0.52,0.05,0.1.61,0.2-.91,0.15a2.41,2.41,0,0,1-.33.09h0c-0.07,0-.07,0,0,0a3.27,3.27,0,0,1,.78.15c-0.76.24-3.18,0.25-4,.38-0.9,0,.38-0.12-0.12-0.23l-1.22.19c-0.12-.23-2.4-0.37-0.27-0.52H190.8a19.83,19.83,0,0,0-3.64-.07c-0.9,0-2.28.27-1.5,0.08l-3,.15,0-.06c-3,0-6.11.4-9.5,0a33.07,33.07,0,0,1-3.7.07l-0.33-.2c-1.28.07-3.85-.19-4.4,0-1.38-.53-6.23-0.1-8.48-0.2l-0.08.26c-1.55,0-3,.06-5,0.17l0.12,0.23c-1.66.19-4.27-.16-6.9-0.14a3.93,3.93,0,0,1,1.32,0c-3.14-.52-6.63.39-9.47,0a6.9,6.9,0,0,1-1.72,0h-0.12l-1-.12c0.3,0.06.58,0.1,0.83,0.12-0.55,0-1.38,0-2.19.09l-0.35-.25h-0.19c-0.8-.09-0.64.12-0.22,0.3-0.41,0-.79.09-1.08,0.15-0.65-.4-2.13.13-3-0.3-0.55.21-4.09,0.14-4.53,0.58,0-.06-0.27-0.08.17-0.09a13.23,13.23,0,0,0-2.63,0l-0.38-.32-2,.42c-1.2-.2-1.7-0.31-0.5-0.55-2.89.36-2.34,0.13-4.8,0.48l0.12-.2a16.12,16.12,0,0,1-2.81.1,45.08,45.08,0,0,0-5.74-.27c-1.31,0-2.7-.05-4.09-0.1s-2.73-.14-3.9-0.27H96l-0.89,0c1,0.57-2.38-.21-2.56.28-0.3-.13-1-0.18-0.2-0.34-2.58.26-3.86,0-5.59,0.38-0.29-.14.54-0.21,0.28-0.3a3,3,0,0,1-1.05,0c-0.25-.09.36-0.12,0.76-0.18-2.53,0-2.78.34-3,.76l-0.84-.2-0.36-.08a2,2,0,0,0-.46-0.05l-0.23,0-0.16,0-0.32.07a6.69,6.69,0,0,0-.66.2c-0.47-.12-1.23-0.21.37-0.35-0.45,0-1.83,0-3.1,0a7.73,7.73,0,0,0-2.52.14,6.48,6.48,0,0,0-1.52-.05l-0.66,0-0.38,0-0.33.08a6.45,6.45,0,0,1-.79.14,4.7,4.7,0,0,1-1.63-.08s-0.18,0-.31-0.09c0.09,0,.22.07,0.31,0.12l0.22,0.08a2.11,2.11,0,0,1-.27.06,2.23,2.23,0,0,1-.3,0,1.07,1.07,0,0,0-.29,0,25.75,25.75,0,0,0-2.59.07l0,0a8.37,8.37,0,0,0-2.73.38l-0.79.26a5.58,5.58,0,0,0-.85.35,1.82,1.82,0,0,0-1,1,1.72,1.72,0,0,1,.3-0.14,7.25,7.25,0,0,1,0,2.24,17.21,17.21,0,0,0-.18,3.38l0.14-.77c0.18,1.17-.72,3.27-0.79,4.44a1.34,1.34,0,0,1-.11-0.76c-0.31,3.07.32,0.4,0.4,2.69-0.17.42-.44-0.54-0.48,1a2.17,2.17,0,0,0,0,.42l0,0.93a2,2,0,0,0,.45,1.2,3.22,3.22,0,0,0,1.21.85,5.92,5.92,0,0,0,.7.26l0.57,0.15a1.84,1.84,0,0,0,.77.1l0.25,0H65a5.73,5.73,0,0,1,1.6.43c-0.43-.24-0.85-0.48.23-0.33a9.27,9.27,0,0,0,3,.33l0.81-1a0.46,0.46,0,0,1-.24,0l-0.27-.05-0.1,0h0l0,0,0,0,0,0a1,1,0,0,1,0,.12c0,0.1,0,.13,0,0.32a1.71,1.71,0,0,1,0,.2h0l0.69,0.15a5,5,0,0,0,1.57.12,0.93,0.93,0,0,1,.43.15,1.18,1.18,0,0,0,.75-0.22l0.29-.13a2.73,2.73,0,0,1,.26-0.1,7.5,7.5,0,0,1,1.22-.3c0.86-.14,1.73-0.16,2.1-0.26,0.53,0.45,2.4.55,4.17,0.74s3.51,0.17,3.47.57c0,0,1,0,2,0s1.95,0,1.95,0l-0.1.08a13.25,13.25,0,0,0,4.19-.52c0.57,0,.16.12,0.12,0.16l2.18-.07c0.27,0,.62,0,0.7,0a5.55,5.55,0,0,0,.8,0,17.14,17.14,0,0,0,3.25-.81l0.33,0.22a5,5,0,0,1,2.88.31,1.78,1.78,0,0,1,.23.11l0.41,0.19a4.76,4.76,0,0,0,.82.09c0.47,0,1,.06,1.41.07,0.92,0,1.86,0,2.74-.07a0.7,0.7,0,0,1-.39.11c4-.29,9.47.7,10.92-0.24l2.61-.24c-3.37-.06.5-0.41-0.89-0.55,1.33-.06,3.43.27,1.8,0.32l-0.26,0c-0.6.49,4.19,0.15,4.1,0.48,6.64-.06,13.11.17,19.33,0.16l-0.72-.37h2.17c0.57,0.08.77,0.29-.78,0.28a6.15,6.15,0,0,0,2.64-.27c3,0.14-1.18.45-.25,0.45l1.26,0-0.28,0a11.22,11.22,0,0,1,3-.31,3,3,0,0,1,1.07.24,1.75,1.75,0,0,0,.71,0l2.73,0-1.09-.29c1.21-.15,2.57,0,1.31-0.33,1.85,0.51,10.19.14,11.33,0.3a37.86,37.86,0,0,1,5.44-.2c-0.52-.06-0.82-0.4,1-0.36-0.65.69,3.28,0.29,4.72,0.8-1.29-.33,5.08-0.07,3.06-0.54,1.49,0.06.09,0.26,1.22,0.43a50,50,0,0,1,5.78,0c1,0.05,2.09.09,3.11,0.18l0.78,0.05h0.94c0.52,0,1.05,0,1.58,0,0.07-.09-0.65-0.24.28-0.35l1.13,0.27,1.12,0.3c0.86,0,.83-0.46,2.37,0-0.22-.1-0.54-0.24,0-0.22a34,34,0,0,0,6.61.42,15.62,15.62,0,0,0,3.42-.54,8.13,8.13,0,0,1,1.42-.06l1.65,0a127.3,127.3,0,0,1,13.21.38c-1.18-.18-0.39-0.19.51-0.2-0.59,0,0-.22-0.1-0.35l3.66,0.34c0.67-.34,3.92,0,4.3-0.35l-1.16.06c1.54-.38-2.16-0.85-1.93-1.35-1.72.44-4.55-.65-7.38,0-0.62-.1.53-0.16,0.2-0.27a9.36,9.36,0,0,1-3.19.16l0.18-.05c-2.26,0-3.87,0-5.55-.08l-2.66-.11-1.54-.06-0.85,0h-0.45a1.92,1.92,0,0,0-.72.07l0.31,0a2.46,2.46,0,0,1,.29.11,1.52,1.52,0,0,0-.54.06l-0.31.06-0.42.06c-0.24,0-.42,0-0.66,0-0.55.28,0.16,0.18,0.88,0l0.56-.13a1.48,1.48,0,0,1,.61,0c0.22,0,.28.09,0,0.19a1.29,1.29,0,0,0-.43-0.06l-0.49.06c-0.29,0-.63.1-1,0.14a23,23,0,0,1-2.54.2,10.57,10.57,0,0,1-4-.47c-1.66-.14.46,0.32-1.19,0.18l-0.43-.19-0.44.16a2.8,2.8,0,0,1-1.67-.49c0.27,0,.77,0,1.05,0a28.42,28.42,0,0,0-4.6-.24s0.42,0,.83.06l0.83,0.07c-0.59,0-1.19,0-1.81,0-0.31,0-.62,0-0.94,0l-0.79,0-1.94-.08-1.9,0c-2.53,0-5,0-7.24.13l0.34,0.12c-3.37.21-2.7-.13-6.41,0l0.13,0a17.52,17.52,0,0,1-2.74.16c0.94-.14-1.76-0.26-0.53-0.41a15.41,15.41,0,0,0-4.22.62l-0.56-.19a9.89,9.89,0,0,1-2.74.32c1.52-.17-1.18-0.29.52-0.51-3.88-.41-5.76.44-7.54-0.16-1.78.54,3.36,0.28,2.36,0.4,0.84,0.17-1.47.4-2.69,0.35s-2.11-.67-5.23-0.64c0.31,0,.33,0,0.64,0-1.17-.13-2.29.19-3.72,0-0.8.32-1.86,0-2.09,0.4l2.86-.11a27.87,27.87,0,0,1-5.81.38,10.61,10.61,0,0,1,1.55-.26c-0.78-.12-1.5.09-2.31,0,0.23-.41,3.48-0.11,5.21-0.43-0.84-.17-3.29.31-2.41-0.13-1.25.57-3.07-.05-5.18,0.39l0.14-.25a12.8,12.8,0,0,1-1.64.16l1.11-.32c-1.71.28-3.3-.22-4.94-0.06,3.43,0,.77.29,2.23,0.46-4.23.35-2.44-.63-7.18-0.48,0.64,0,2.41.13,1.41,0.25a20.61,20.61,0,0,1-2.65-.26c-3.14.07,0.48,0.25-.85,0.41-1.07-.29-1.54.13-2.92,0.23v-0.25c-3.58-.14-0.95.52-4.17,0.35l1.36-.35-1.68.1,0.35-.28a20.33,20.33,0,0,1-4.19.09c0.42,0.17-.23.45-1.82,0.46-1.08-.14.6-0.24-1.64-0.2a3.37,3.37,0,0,1,2-.13c0.1-.08.5-0.16,0.6-0.24a27.56,27.56,0,0,0-3.74,0,7.52,7.52,0,0,1,.88.06l-3.26.35c-0.51-.09-0.11-0.17.3-0.24-0.66,0-1.12.14-2.08,0.16,0.25-.2.19-0.41,1.56-0.5l-3.1.22c-0.21-.09-1.58-0.25-1.18-0.32a24.3,24.3,0,0,0-2.92.09l-0.21,0a0.49,0.49,0,0,1-.2-0.05,7.91,7.91,0,0,0-1.05-.28,11.79,11.79,0,0,0-2.08-.2c-0.14,0-.41.09-0.94,0.17-1.17.11-2.18,0.28-3.12,0.35l-0.68,0H95.92l-0.26,0c-0.57.05-1.16,0.13-1.78,0.24l-1.45-.27c-2,.19,2,0.35-1.31.67-2.31.21-.88-0.27-1.69-0.34a12.37,12.37,0,0,1-5.19.15C84.92,152.87,85.45,153,86.1,153Zm-22.69-1.32a0.94,0.94,0,0,0,.38.15L64,151.84a0.87,0.87,0,0,1,.26.15,1.15,1.15,0,0,1-.35,0,0.35,0.35,0,0,1-.19,0A0.67,0.67,0,0,1,63.41,151.63Zm21.95-14a4,4,0,0,1-1.54-.14C84.28,137.54,84.79,137.58,85.36,137.66Zm104-1.78h-0.05C188.21,135.8,188.59,135.84,189.32,135.88Zm2.2,0.1c0.22,0,.21-0.07.11-0.1a4.75,4.75,0,0,1-1.21.05A2.5,2.5,0,0,0,191.53,136Zm-37,18.75-0.43-.06C155,154.59,154.78,154.66,154.51,154.73Z"/><path class="cls-2" d="M81.22,137.76a0.32,0.32,0,0,1-.21-0.12C80.82,137.69,80.82,137.74,81.22,137.76Z"/><path class="cls-2" d="M101.21,151.86h0.09l0.09,0Z"/><path class="cls-2" d="M157.4,138.19a4.69,4.69,0,0,1-.88-0.13A1.19,1.19,0,0,0,157.4,138.19Z"/><path class="cls-2" d="M203.2,135.5l-1.41.07a7.11,7.11,0,0,1,1.27.07C203,135.59,202.76,135.51,203.2,135.5Z"/><path class="cls-2" d="M215.46,137c0.21,0,.44,0,0.64,0l-0.06-.12C215.16,136.82,214.55,136.92,215.46,137Z"/><path class="cls-2" d="M204.51,136.32a4.11,4.11,0,0,0,2,.09h-0.17C206.61,136.12,205.56,136.22,204.51,136.32Z"/><path class="cls-2" d="M206.73,136.4c0.3,0,.62,0,0.91,0A1.42,1.42,0,0,0,206.73,136.4Z"/><path class="cls-2" d="M194.32,135.83c0.47,0.05.29-.27,0.56-0.18C195.4,135.38,191.75,136,194.32,135.83Z"/><polygon class="cls-2" points="205.31 137 204.96 136.75 204.41 136.96 205.31 137"/><path class="cls-2" d="M197.51,136.86l1.58,0.06a0.65,0.65,0,0,1,.42-0.09A12.29,12.29,0,0,0,197.51,136.86Z"/><path class="cls-2" d="M199.51,136.83a9.68,9.68,0,0,0,1.27,0C200.51,136.78,199.92,136.8,199.51,136.83Z"/><polygon class="cls-2" points="203.16 137.09 202.69 137.04 201.57 137.03 203.16 137.09"/><path class="cls-2" d="M180.52,136.88l-1.72.08c-0.18.09,0.29,0.14,0.94,0.1C180.15,137,180.79,137,180.52,136.88Z"/><path class="cls-2" d="M185.74,137.56a2.46,2.46,0,0,1-.76-0.19l-0.05.32Z"/><path class="cls-2" d="M180.71,137.66c-0.17.09-2.5,0.26-.32,0.24C180.57,137.8,182.3,137.72,180.71,137.66Z"/><polygon class="cls-2" points="154.73 137.32 155.17 137.31 155.11 136.79 154.73 137.32"/><path class="cls-2" d="M131.83,138.58c2,0.13.49-.32,2.33-0.16,0.48-.12-1.51-0.13-1-0.24C131.91,138.31,131.27,138.24,131.83,138.58Z"/><path class="cls-2" d="M133.15,138.18l0.63-.08A5.79,5.79,0,0,0,133.15,138.18Z"/><polygon class="cls-2" points="234.64 155.12 235.96 155.23 235.11 155.05 234.64 155.12"/><path class="cls-2" d="M237.16,154.73l0.31,0.33,0.79-.3A4.37,4.37,0,0,1,237.16,154.73Z"/><path class="cls-2" d="M64,148.63l-0.08-.1a3.56,3.56,0,0,0-.11,1.13Z"/><path class="cls-2" d="M75.66,151.69l-0.35,0,0.33,0.13L76,152Z"/><path class="cls-2" d="M90.54,152.25c-0.6,0-1.3.1-1.89,0.1C89.94,152.28,90.72,152.62,90.54,152.25Z"/></svg>