<svg id="progressbar-overrides-over" xmlns="http://www.w3.org/2000/svg" viewBox="0 0 460 300"><defs><style>.cls-1{fill:#231815;}.cls-2{fill:#3a302e;}.cls-3{fill:#dcdddd;}.cls-4{fill:#fff;}</style></defs><title>20180407_呼呼哥_art</title><path class="cls-1" d="M384.22,162.78H336c-9.64,1.52-20.35-.36-31.77,0-11.42-.58-159.75.34-165.06,0-5.31-1.42-10.4.17-15.22,0-9.64.37-18.21,0.68-25.35,0s-12.85-1-16.78,0c-3.93-.19-6.07-0.94-6.07,0-3.72.37-7.11-.75-9.56-0.57-2.45-.35-4-0.83-4-1.36V147.67c0-1.06,6.09-1.92,13.54-1.92a15.29,15.29,0,0,0,6.07,0c3.93,0.07,9.64.33,16.78,0,7.14,0.71,15.71,0,25.35,0,9.64,0.73,230.26.2,237.4,0,7.14-.67,12.85.52,16.78,0,3.93,0,6.07.09,6.07,0,3.72-.27,7.11.81,9.56,0.57,2.45,0.35,4,.83,4,1.36v13.19C397.76,161.92,391.67,162.78,384.22,162.78Z"/><path class="cls-2" d="M385.06,165.21c-1.06,0-.68.39-0.84,0.46C386,165.57,385,165.1,385.06,165.21Z"/><polygon class="cls-2" points="399.24 156.92 399.41 157.22 399 154.71 399.24 156.92"/><path class="cls-2" d="M391.59,144.77a3,3,0,0,0,1.43.37,3.71,3.71,0,0,0,.52,0l0.32,0,0.36,0,0.66,0.09,0.78,0.12a6.25,6.25,0,0,1,3,1.11,1.19,1.19,0,0,1,.25.3,1.81,1.81,0,0,1,.1.35,3.23,3.23,0,0,1,.12.73,8,8,0,0,1,0,1.51l-0.16.64,0.09,0.25,0.2,0.44,0.29,0.64,0-1.44a16.61,16.61,0,0,0-.11-2,4.35,4.35,0,0,0-.17-0.9,1.76,1.76,0,0,0-.15-0.41,1.52,1.52,0,0,0-.32-0.35,4.88,4.88,0,0,0-1.67-.82,14.54,14.54,0,0,0-1.83-.4l-0.79-.12a3.26,3.26,0,0,0-.82-0.06l-0.37,0H393c-0.16,0-.33,0-0.49,0A8.07,8.07,0,0,1,391.59,144.77Z"/><path class="cls-2" d="M383,142.74c0.24,0.13-.13.19-0.22,0.2H383l0.45,0,0.32,0h0.15s0,0,0,0h0v0.29L384,144c0.07,0.64,0,.82.08,1.14a3.53,3.53,0,0,0,.1.45c0,0.1,0,.19.07,0.19l-0.2-2.91,0.86-.08-0.43-.05-0.44,0,0.21,3a0.07,0.07,0,0,1-.08-0.09,0.21,0.21,0,0,0,0-.08l0-.15a3.51,3.51,0,0,1-.09-0.67c0-.15,0-0.7-0.08-1.16l0-.73c0-.18,0-0.07,0-0.1h-0.15Z"/><path class="cls-2" d="M384.44,142.71c2-.1-1.31-0.18,0,0h0Z"/><path class="cls-2" d="M376.71,143s0.47-.08.9-0.2l1.44-.17a3.13,3.13,0,0,0-.57-0.1l-0.2,0h-0.34l-0.38,0h-0.14c-0.34,0-.62,0-0.32-0.11C375.22,142.62,375.56,142.75,376.71,143Z"/><path class="cls-2" d="M374.81,143.53l0.54,0,0.53,0A1.67,1.67,0,0,0,374.81,143.53Z"/><path class="cls-2" d="M378.31,143.08a4.65,4.65,0,0,0-.67.07c-0.19,0-.42.1-0.68,0.14-0.51.09-1.07,0.15-1.07,0.15,0.28,0.1.35,0.36,1-.11-0.08.11,0,.11,0.17,0.06l0.37-.12a2.32,2.32,0,0,1,.27-0.09A4,4,0,0,1,378.31,143.08Z"/><path class="cls-2" d="M379.71,143.19c1.26,0.16,2.87.28,0.63,0.5,2.14,0,3-.16,2.87-0.29A11.89,11.89,0,0,0,379.71,143.19Z"/><path class="cls-2" d="M390.72,145.42l0.8,0.19c0.4,0.1.79,0.17,0.79,0.17s0.35,0,.68-0.1l0.74-.15a5.56,5.56,0,0,1-1.81,0A2.37,2.37,0,0,0,390.72,145.42Z"/><path class="cls-2" d="M362.9,142.4c-0.14.16,0.81,0.36,1,.55l1.71-.21A12.18,12.18,0,0,1,362.9,142.4Z"/><path class="cls-2" d="M363.89,142.95l-1.28.2-1.21.22c1.07-.08,1.75-0.13,2.12-0.2S364,143,363.89,142.95Z"/><path class="cls-2" d="M374.41,144.31s1-.09,1.91-0.26c0.46-.08.91-0.17,1.22-0.26a4.86,4.86,0,0,1,.58-0.11l0.24,0-0.29,0-0.37.06-0.26.06c-0.38.09-.92,0.19-1.47,0.26-1.12.15-2.31,0.23-2.31,0.23Z"/><polygon class="cls-2" points="353.73 142.56 355.11 142.2 352.65 142.75 353.73 142.56"/><path class="cls-2" d="M347.54,142.66c1-.3-1.41-0.49-0.32-0.67a30.12,30.12,0,0,0-4.41.55A21.4,21.4,0,0,1,347.54,142.66Z"/><path class="cls-2" d="M340.64,142.87c0.69-.07,1.4-0.2,2.17-0.34A16.72,16.72,0,0,0,340.64,142.87Z"/><path class="cls-2" d="M357.37,143.35a4.25,4.25,0,0,0-1.92-.42l1,0.42h1Z"/><path class="cls-2" d="M356.44,143.36h-2.11Z"/><path class="cls-2" d="M357.61,143.35h-0.24A0.22,0.22,0,0,0,357.61,143.35Z"/><path class="cls-2" d="M368,143.63c-1.48.19-4.54,0.49-1.58,0.83C367.48,144.19,365.79,144,368,143.63Z"/><path class="cls-2" d="M358.78,143.87l2.53,0.07c-0.06-.11-0.53-0.25.17-0.41a3.31,3.31,0,0,1-.42.07l-0.92.11Z"/><polygon class="cls-2" points="357.54 144.02 358.77 143.87 357.84 143.84 357.54 144.02"/><path class="cls-2" d="M345.09,143.25a27,27,0,0,1-3.73.25c1.49,0.08,3,.12,4.48.11C346,143.47,346.68,143.23,345.09,143.25Z"/><path class="cls-2" d="M350.61,143.34l-0.25,0C350.51,143.4,350.63,143.42,350.61,143.34Z"/><path class="cls-2" d="M327.72,143.54l0.22,0.08,0.05-.07h-0.27Z"/><path class="cls-2" d="M346.09,143.68a7.89,7.89,0,0,0,2.42-.16c-0.83,0-1.72.08-2.67,0.09C345.74,143.67,345.73,143.71,346.09,143.68Z"/><path class="cls-2" d="M336.84,143.08c0.58,0.09,1.24.16,1.93,0.23A6.21,6.21,0,0,0,336.84,143.08Z"/><path class="cls-2" d="M350,143.25l0.17,0C349.78,143.14,349.83,143.19,350,143.25Z"/><path class="cls-2" d="M350,143.25a14.52,14.52,0,0,0-1.48.27c0.68,0,1.31-.09,1.85-0.15A2.27,2.27,0,0,1,350,143.25Z"/><path class="cls-2" d="M323.59,146.3c0.2-.4,3.13-0.77,5.66-0.36,2.49-.31.86-1.6-1.32-2.32-0.08.17-.08,0.33-2.64,0.58,0.9,0.21,5.69.49,3.53,0.85-3.4.22-2.78-.13-4.44-0.33,1.41,0.49-4.32.73-3.58,1.45l3-.26C323.85,146,322.77,146.2,323.59,146.3Z"/><path class="cls-2" d="M332.82,143.64l1.06-.05a24.69,24.69,0,0,1-3.65-.52c-1.76.2-2.12,0.35-2.24,0.48l5.2,0Z"/><path class="cls-2" d="M338.62,143.57c-0.82.44-3.36,0.63-1.8,1.09,3.1,0,2.17-.37,4-0.56-5,.13,1.43-0.25-2.18-0.48,1-.08,1.87-0.1,2.7-0.13-0.9,0-1.77-.11-2.59-0.19l0.11,0h0c0.22,0.05.29,0.09,0,.05h-0.1a0.56,0.56,0,0,1-.23.16c-1.45-.08-0.23-0.11.23-0.16a0.27,0.27,0,0,0,.06-0.06h0l-5,.25C334.94,143.65,336.27,143.63,338.62,143.57Z"/><path class="cls-2" d="M363.75,145.44c-0.16,0-.15-0.06-0.17-0.09C363.26,145.42,363.14,145.46,363.75,145.44Z"/><path class="cls-2" d="M361.67,145.31a5,5,0,0,1,1.84-.31c1,0.08,0,.21.07,0.35,0.71-.15,2.51-0.38.24-0.53l-0.36.08a12.42,12.42,0,0,1-4.26-.58A6.85,6.85,0,0,0,361.67,145.31Z"/><path class="cls-2" d="M350,144.58l-4.17.23,2.13,0.36-0.11-.22C350.23,145,349.72,144.76,350,144.58Z"/><polygon class="cls-2" points="327.24 143.33 327.79 142.87 325.38 143.52 327.24 143.33"/><polygon class="cls-2" points="321.82 143.4 322.02 143.01 320.59 143.25 321.82 143.4"/><path class="cls-2" d="M94.29,160l1.25,0C95,160,94.57,160,94.29,160Z"/><path class="cls-2" d="M85.07,159.85l-0.22.21C85.29,159.92,85.46,159.84,85.07,159.85Z"/><path class="cls-2" d="M188.73,143.62c-1.78-.37-3.78-0.94-3.56-0.5l0.55,0.43A16.68,16.68,0,0,1,188.73,143.62Z"/><path class="cls-2" d="M97.6,145.89L98.12,146a6.87,6.87,0,0,1,1.21-.38c-0.26,0-.55,0-0.84.08Z"/><path class="cls-2" d="M96.39,147.73L94,147.5A21.9,21.9,0,0,0,96.39,147.73Z"/><path class="cls-2" d="M142.49,160l1.43-.44C141.69,159.56,142.67,159.79,142.49,160Z"/><path class="cls-2" d="M266.32,143.69c-1.54-.17-2.77-0.24-3.84-0.26C264.33,143.68,265.83,144.05,266.32,143.69Z"/><path class="cls-2" d="M90.54,164.43a1.43,1.43,0,0,0,1-.22C90.82,164.25,90.39,164.32,90.54,164.43Z"/><path class="cls-2" d="M258,143.44l0.81,0.1c1.13-.07,2.26-0.13,3.63-0.11A13.64,13.64,0,0,0,258,143.44Z"/><path class="cls-2" d="M318.3,160.62l0.39,0.07C318.73,160.64,318.56,160.63,318.3,160.62Z"/><path class="cls-2" d="M369.33,164.69c-0.5,0-1.33,0-2.1,0A17.49,17.49,0,0,0,369.33,164.69Z"/><path class="cls-2" d="M300,143.27c1.15,0,.18,0,0,0h0Z"/><path class="cls-2" d="M305.61,145a0.61,0.61,0,0,0-.46.21A0.83,0.83,0,0,1,305.61,145Z"/><path class="cls-2" d="M246.58,146.16h-0.1C246.83,146.24,246.77,146.22,246.58,146.16Z"/><path class="cls-2" d="M301.75,143.46c-0.43-.05-0.93-0.1-1.47-0.13C300.51,143.37,301,143.41,301.75,143.46Z"/><path class="cls-2" d="M301.51,143.26l1,0C302.66,143.23,302.53,143.18,301.51,143.26Z"/><path class="cls-2" d="M298.42,143.3c0.66,0,1.27,0,1.86,0-0.23,0-.32-0.05-0.26-0.07Z"/><path class="cls-2" d="M224,161.37l0.25,0C225.43,161.22,224.93,161.25,224,161.37Z"/><path class="cls-2" d="M158.81,148.08l0.13,0-0.17,0Z"/><path class="cls-2" d="M154.68,148.39a9.19,9.19,0,0,1,4.09-.35l-1.36-1.26Z"/><path class="cls-2" d="M115.27,160.58l-2.88-.32c3.45-.71,6-0.58,3.25-1-0.18.68-3,.81-5.75,0.86s-5.51,0-5.73.69l-1.85-.36c0.53,0,.62,0,1.15,0-3.6-.82-2.66.84-7.48,0.24-1.67-.24-2.84-0.51-1.67-0.59l-1.9,0-1.91.08c-1.11-.06-0.83-0.3.28-0.22,0,0-1.46,0-2.94,0s-3,.18-3,0.18l0,0-1.83.6c-0.35.13-.73,0.25-1,0.38a1.15,1.15,0,0,1-.49.2,1,1,0,0,1-.35-0.13,0.46,0.46,0,0,1,.21,0c0.21,0,.46-0.06.35-0.14a1.36,1.36,0,0,1-.29,0c-0.12,0-.59,0-0.95,0H78.94c-0.62-.25-0.26-0.38.49-0.42s2.1,0,2.41,0a2.68,2.68,0,0,0-2.09-.61c-0.41,0-.87,0-1.52,0l-1.22,0H76.56a4.55,4.55,0,0,0-.68.05l-0.21,0-0.33.09-0.33.13a3,3,0,0,0-.48.29,2.51,2.51,0,0,0-.46.41,3.12,3.12,0,0,0-.41.63,2.33,2.33,0,0,0-.2.61,3.42,3.42,0,0,0-.07.59l2.17-2.39a9.13,9.13,0,0,1-1.88-.14,14.71,14.71,0,0,0,1.84-.18l-2.46,2.72a3.72,3.72,0,0,1,.07-0.66,2.61,2.61,0,0,1,.23-0.69,3.46,3.46,0,0,1,.48-0.73,3.08,3.08,0,0,1,.54-0.48,3.17,3.17,0,0,1,.95-0.47,3.54,3.54,0,0,1,.61-0.14,2.24,2.24,0,0,0-.62.06,2.79,2.79,0,0,0-1,.4,3.4,3.4,0,0,0-.6.47,3.64,3.64,0,0,0-.55.76,3,3,0,0,0-.29.76,4,4,0,0,0-.11.74l2.72-3a49.37,49.37,0,0,1-6-1.12c0.44,0.18,2,.72,3,1.12s1.56,0.75,0,.81a16.71,16.71,0,0,0-4-.36c0-.24-0.45-0.39-1.35-0.45-0.56,0-.74,0-1,0l-0.45-.06-0.3,0,0.18-.29,0.17-.29c-0.29,0-.55.09-0.78,0.09a0.5,0.5,0,0,1-.47-0.28,3.22,3.22,0,0,1,0-.39l0-.16,0-.32a6.09,6.09,0,0,1,.23-1.07,4.38,4.38,0,0,1,.62-1.18c0.1-4.34-.79,3-0.92-2.14a25.68,25.68,0,0,0,0-4,1.67,1.67,0,0,1,0-.53,1.1,1.1,0,0,1,.41-0.32,5.15,5.15,0,0,1,.56-0.26,2.72,2.72,0,0,1,.4-0.14l0.72-.18c2.41-.08-0.37.43,0.51,0.51l1-.37,1-.35c0.53,0,.37.14,0.29,0.23,1.81-.32.1-0.67,3-1a1.66,1.66,0,0,1,1.08-.2c0.27,0,.57,0,0.9.07L75,147.15a4.47,4.47,0,0,1,.48.07,0.61,0.61,0,0,1,.16,0l0.16,0.07a12,12,0,0,0,3.4.52,10.18,10.18,0,0,0,1.69-.13,7.39,7.39,0,0,0,.8-0.17c0.21-.07.27-0.11,0.44-0.16,0.45,0.1.34,0.2,0.15,0.3s-0.28.22-.24,0.34l4.48-.37c1-.1,1.84-0.22,3.92-0.56l1.77,0.21L94,147.5c-2.61-.45.72-1,3.59-1.61-0.93-.2-1.71-0.38-2.24-0.46l2.3-.24,0.87-.1a3,3,0,0,1,.46,0H100c0.54,0.14.07,0.34-.7,0.53,0.32,0,.62,0,0.85-0.08,1.62,0.34.76,0.66-.46,0.93l-0.83-.27a3.94,3.94,0,0,0-.77-0.2c-1.12.44-2.19,0.89-1.94,1.26a10.71,10.71,0,0,1,1.52-.23c-0.3.12-.49,0.22-0.34,0.28a1,1,0,0,0,.48-0.05c0.21-.05.62-0.16,0.81-0.23a0.71,0.71,0,0,1,.09.12l0.34,0.28,0.51,0.4,0.28-.26s1.54,0.22,3.08.38,3.08,0.27,3.08.27c4.39-.7,8.09-1.94,15-2.36-1.69.55-.35,0.86-0.43,1.48-1.88-.63-5.29.4-8.86,0.36,1.86,0,1.46.33,1,.44l6.32-.76c-0.13.51,1.35,0.35,3,.54-0.6-.47.44-0.66,2-0.75h-0.11c1.7-.05,4.05.06,5.4-0.1,0.15,0.33-.44.7-3.68,0.51,3.57,0.88,4.56-1.09,8-.4a3.55,3.55,0,0,0-1.49.11c1.8-.28,6.19,0,5.16.29h-0.77c5.11,0.15,15.55.1,16.31-.76a3.31,3.31,0,0,1-1,1.19l9.12-2.83c-0.8.73,2.27,2.48-2,2.88a25.41,25.41,0,0,0,5.28,0c-0.83-.11-2.06-1.06-0.93-1.13a48.45,48.45,0,0,0,6,1.14c-1.24-.16.14-1.3,2.1-1.26-0.31.17,0.16,1.13-.56,1.25l4.89-1.12c-1.22.2-.22,1,0.88,1.27-0.51-.22,4.23,0,5.53-0.08l-2.07-.26c5.52,0.18,5.45-1.58,10.93-1.52-0.66.23-1.64,1.43,1.15,1.57a32.73,32.73,0,0,1,10.5-3.21l0.93,0.33,3.72-.38a112.75,112.75,0,0,1-12.36,3.4c2.07,0.26.58,0.39,3.67,0.36,1.09,0.31-1.69.47-2.6,0.48l7.2,0.2c-0.32-.67,5.51-0.68,5.23-1.24l-7.82.7c-0.32-.67,4.52-1.91,9.63-1.79,1.3,0.27-1,1.2-.86,1.42a24.55,24.55,0,0,1,5.31-.28l-2.16.36c2.84,0.25,4.64-.89,8-0.25,1.18,0,3.52.86,3.72,0.47-1.92-.77-2.3-3.14-1-3.72,0.41,0.05,6.19.73,7.53,1.11,1.94,0.6-2.91,1.44-1.26,2a4.22,4.22,0,0,1,1.59-.48c1.24,0.16-.51.57,2.18,0.48,0.45-.68,5.47.05,1.27-0.58,2.63-.2,2.8.14,5.88,0.11-1-.44,2.77-1.5,5.41-1.7-0.16.17,0.44,0.4,0.72,0.5,5.39,0.05,8.29.36,13.31,0.36,0.46,0.16,2.89.36,1.86,0.66a13.62,13.62,0,0,1,2.94-.37c3,0.58-3.46.1-1.17,0.8,0.19-.4,4-0.55,6.22-0.8-0.68-.61-5.1-0.11-7.31.14,0-.84,3.84-1.73,9.09-2.13,4.18-.22,1.81.54,2.54,0.42,7.84,0.13,6.68-1.49,13.19-.89,2.59,0.53.12,1.07,0.69,1.46-3.4.21-5.22-.33-7.53-0.3l2.84,0.25a20.75,20.75,0,0,1-4.59.17c2.17,0.48,13.25.07,19.3,0.5,1.07-.18,2.93-0.37,2.05-0.59l-1.91.08c-1.76-.43,3.6-0.61,1.18-0.8a44.91,44.91,0,0,1,9.06-.56l0.68,0.61a8.91,8.91,0,0,0-3.38-.17c1.51-.28,5.55.81,7.2,0l-2.54-.42a48.86,48.86,0,0,1,9-.79c-1.46-.6-0.74.07-3-0.63,2,0.88-8.2,0-5,.9-2.34-.82-4-0.34-7.1-1,0.1,0.2,1.08.38-1.61,0.29a4,4,0,0,1-.59.18h-0.18l0.15,0c-0.12,0-.13,0,0.06,0a5.33,5.33,0,0,1,1.37.3c-1.33.47-5.61,0.46-7.06,0.71-1.6-.09.67-0.23-0.2-0.45l-2.16.36c-0.22-.45-4.24-0.74-0.48-1H290a31.89,31.89,0,0,0-6.42-.15c-1.6-.09-4,0.5-2.64.15l-5.31.29,0-.11c-5.24,0-10.78.76-16.77,0a53.13,53.13,0,0,1-6.53.13l-0.58-.39c-2.26.14-6.8-.38-7.77,0-2.44-1-11-.22-15-0.4l-0.15.51c-2.74,0-5.37.12-8.77,0.33l0.21,0.45c-2.93.37-7.54-.32-12.18-0.27a6.31,6.31,0,0,1,2.32,0c-5.54-1-11.69.74-16.72,0a11.08,11.08,0,0,1-3,0l0.31,0h-0.51l-1.74-.24a14,14,0,0,0,1.46.24c-1,0-2.43.06-3.87,0.18l-0.61-.48h-0.33c-1.41-.18-1.13.23-0.38,0.59a17.91,17.91,0,0,0-1.9.29c-1.14-.78-3.77.26-5.33-0.57-1,.4-7.22.29-8,1.14,0-.11-0.47-0.16.3-0.17a21.22,21.22,0,0,0-4.64,0l-0.68-.61-3.5.81c-2.12-.38-3-0.6-0.89-1.06-5.09.71-4.13,0.26-8.46,1l0.21-.4c-1.55,0-4,.53-5,0.2a65.79,65.79,0,0,0-9.5-.47c-4.3-.07-9.39-0.07-13.57-0.43H124l-2.84-.14c1.75,1.13-4.16-.45-4.49.47-0.53-.26-1.77-0.39-0.33-0.66-4.54.39-6.8-.25-9.88,0.51-0.51-.28,1-0.4.5-0.57a5,5,0,0,1-1.88.07c-0.45-.17.65-0.22,1.36-0.34-4.52,0-5,.76-5.37,1.55-0.57-.13-1.07-0.23-1.52-0.31l-0.33-.05-0.39,0a2.31,2.31,0,0,0-.43,0l-0.31,0a9.34,9.34,0,0,0-2.33.52c-0.82-.24-2.17-0.48.67-0.65l-5.52,0c-2.27,0-4.37,0-4.46.33a10.32,10.32,0,0,0-2.69,0l-1.22,0a5.32,5.32,0,0,0-1.2,0c-0.56.07-1,.11-1.48,0.14a16.68,16.68,0,0,1-3.39-.09l0.41,0.12,0.44,0.1a2.14,2.14,0,0,1-1,.22l-0.33,0a2.23,2.23,0,0,0-.33,0c-1.17,0-2.42-.17-4.31,0l0.08-.08a17.71,17.71,0,0,0-4.8.25c-0.36.08-.69,0.14-1.41,0.24-0.43.07-1,.14-1.66,0.29a4.84,4.84,0,0,0-2.34,1,3.82,3.82,0,0,1,.69,0,1.09,1.09,0,0,1-.13.52c-0.06.24,0,.54-0.06,0.89s-0.07.75-.1,1.21-0.09,1-.15,1.44a27.64,27.64,0,0,0-.35,6l0.27-1.36a5.47,5.47,0,0,1-.07,1.8c-0.06.33-.14,0.68-0.22,1s-0.19.92-.29,1.41a11,11,0,0,0-.21,1.59,2.13,2.13,0,0,0,.29,1.4A4.21,4.21,0,0,0,63,164c0.66,0.28-1.23-.13-2-0.69a6.45,6.45,0,0,0,2.25,1.13,9,9,0,0,0,1.44.33,2.4,2.4,0,0,0,.38,0l0.15,0a0.18,0.18,0,0,0,.1-0.15,0.33,0.33,0,0,1,.27-0.36c0.15-.06.43,0,0.77-0.1a5,5,0,0,1,1.09-.09c0.31,0.19.09,0.39,0.08,0.57s0.16,0.32,1.43.52a11,11,0,0,0,2.55.21A26.8,26.8,0,0,0,76,165l0.39-2.24a0.38,0.38,0,0,1-.25,0h0l0,0a1.42,1.42,0,0,1,.15.3,1.2,1.2,0,0,1,.07.25l0,0.13,0.05,0.21a4,4,0,0,1,.1.84H76.8a10,10,0,0,1,1.17.08,20.15,20.15,0,0,1,2.44.43c-0.84-.34-1.64-0.67.31-0.7l0.66,0a2.61,2.61,0,0,0,.82,0,8.73,8.73,0,0,1,1.36-.2,25.86,25.86,0,0,1,2.62,0,18.3,18.3,0,0,0,4.9-.16,0.69,0.69,0,0,1,.5.23c2.17-.12,7.06.19,8.46-0.15,1,0.92,4.48.9,7.67,0.69s6.09-.52,6.08.25l6.79-.29-0.17.16c1.08,0,2-.05,2.76-0.11l0.56,0,0.39,0c0.36,0,.69,0,1-0.08a13.25,13.25,0,0,0,2.72-.64c1,0,.29.22,0.22,0.31l6.34-.3c0.75,0,1.46-.08,2.29-0.07,0.42,0,.86,0,1.36,0l0.38,0,0.55,0.06a9.1,9.1,0,0,0,1.07-.1l0.55,0.51c1.52-.24,9.18.83,15.39,0.25a1.18,1.18,0,0,1-.68.22c7-.59,16.7,1.35,19.25-0.47l4.6-.46c-6-.12.88-0.79-1.57-1.08,2.34-.11,6.05.53,3.18,0.63l-0.45-.09c-1.05.94,7.4,0.31,7.24,1,11.72-.08,23.14.4,34.11,0.41l-1.27-.73,3.83,0c1,0.17,1.35.57-1.38,0.55a9.91,9.91,0,0,0,4.66-.52c5.35,0.28-2.09.86-.45,0.87l2.23-.06-0.5-.08a18.09,18.09,0,0,1,5.25-.59c2.08,0.14,1.07.45,1.88,0.47a2.82,2.82,0,0,0,1.25,0l4.82,0.05-1.93-.57c2.14-.29,4.53,0,2.31-0.63,3.27,1,18,.33,20,0.64a62,62,0,0,1,9.61-.37c-0.91-.12-1.45-0.77,1.7-0.69-1.15,1.34,5.78.59,8.33,1.55-2.28-.65,9-0.14,5.4-1.05,2.63,0.12.16,0.5,2.15,0.83a82.85,82.85,0,0,1,10.21,0c0.91,0,1.81.1,2.72,0.15l1.37,0.08c0.7,0,1.07,0,1.55,0l5.66,0.06c0.13-.17-1.15-0.48.5-0.69l4,1c1.53,0,1.45-.94,4.22-0.2-0.39-.17-1-0.42.06-0.42a71.74,71.74,0,0,0,11.66.36c1,0,2-.16,3-0.26l1.49-.21,0.19,0h1l5.83-.07a204.28,204.28,0,0,1,23.31.74c-2.09-.34-0.7-0.37.9-0.39-1-.08,0-0.43-0.18-0.67l6.46,0.66c1.18-.66,6.92,0,7.6-0.68l-2,.11c2.72-.75-3.8-1.66-3.41-2.62-3,.85-8-1.26-13,0-1.1-.2.94-0.31,0.35-0.53a15.06,15.06,0,0,1-5.63.31l0.32-.1c-8,.1-11.37-0.3-20.32-0.57l0.66,0.47-1.19-.06-0.93-.08-0.48,0h-0.88c-0.5.25-.43,0.33-0.07,0.33,0.18,0,.43,0,0.72,0a7.45,7.45,0,0,1,1.22-.08c1.37,0,2.77,0,1.77.44a6.07,6.07,0,0,0-1.32-.28,8.13,8.13,0,0,0-1-.08l-1.09.09c-1.36.13-3,.24-4.56,0.31-3.2.11-6.35-.06-7.17-0.62-2.92-.12.84,0.58-2.09,0.46l-0.77-.33-0.76.35c-1.93-.16-2.89-0.57-3-0.83,0.47,0.05,1.34,0,1.84,0-2.48-.48-7.13-0.2-8-0.32l2.87,0.27c-2,0-4.2,0-6.42,0-1.1,0-2.32.08-3.19,0l-3.39-.07c-4.46,0-8.88,0-12.78.28L288,161c-6,.39-4.77-0.25-11.31-0.07l0.24-.05a28.56,28.56,0,0,1-4.84.31c1.65-.26-3.11-0.51-0.94-0.8-6.46.45-3.19,0.35-7.46,1.18l-1-.37a16,16,0,0,1-4.84.62c2.68-.32-2.08-0.56.91-1-6.85-.8-10.17.84-13.31-0.34-3.14,1,5.93.56,4.17,0.78,1.48,0.33-2.59.77-4.74,0.67s-3.72-1.3-9.23-1.27c0.55,0,.58-0.07,1.13-0.07-2.06-.26-4,0.36-6.56-0.05-1.41.62-3.28,0-3.69,0.77l5-.2c-2.86.21-5.54,1.15-10.26,0.71a17.15,17.15,0,0,1,2.73-.49c-1.38-.23-2.65.16-4.08-0.07,0.41-.79,6.13-0.19,9.2-0.8-1.48-.33-5.8.59-4.26-0.27-2.21,1.1-5.42-.12-9.15.72l0.24-.48a20.6,20.6,0,0,1-2.9.3l2-.62c-3,.53-5.82-0.44-8.71-0.15,6.06,0,1.36.57,3.93,0.91-7.47.66-4.3-1.23-12.67-1,1.13-.07,4.25.27,2.48,0.5a33.36,33.36,0,0,1-4.68-.51c-5.54.12,0.85,0.49-1.51,0.78-1.89-.57-2.72.24-5.15,0.44l0-.48c-6.32-.29-1.67,1-7.36.65l2.4-.68-3,.18,0.61-.55a32.54,32.54,0,0,1-7.39.17c0.74,0.34-.41.88-3.21,0.9-1.91-.28,1.07-0.46-2.9-0.38a5.45,5.45,0,0,1,3.6-.24c0.18-.16.88-0.3,1.06-0.46a44.24,44.24,0,0,0-6.6-.06,12.12,12.12,0,0,1,1.55.11l-5.75.68c-0.91-.18-0.19-0.33.52-0.47-1.16.05-2,.28-3.68,0.32,0.44-.39.34-0.8,2.76-1l-5.48.44c-0.37-.17-2.81-0.47-2.1-0.61-3-.23-7.45.76-11.45,0.43a5.62,5.62,0,0,1-1.43.19l-1.27-.07a0.63,0.63,0,0,1-.27-0.07c-0.26-.07-0.51-0.15-0.77-0.21a20.4,20.4,0,0,0-3.13-.5,22,22,0,0,0-6.43.52l-1.28-.23-1.23-.26c-1.59.16-.81,0.34-0.27,0.55,0.27,0.1.48,0.21,0.27,0.33a6,6,0,0,1-2.15.33h-0.44l-0.38,0-0.56,0a6,6,0,0,1-.75,0,0.49,0.49,0,0,1-.5-0.22c-0.06-.2.22-0.47-0.51-0.54a27.06,27.06,0,0,1-9.37.78C113.12,160.59,114.1,160.67,115.27,160.58Zm-42.72,0a11.1,11.1,0,0,1,2.75-.1C74.52,161.11,73.83,160.85,72.54,160.59Zm31.39-13.53a6.92,6.92,0,0,1-2.7-.2A18.92,18.92,0,0,1,103.94,147.07Zm183.48-3.38-0.09,0C285.46,143.53,286.12,143.6,287.42,143.69Zm3.89,0.2c0.39-.07.36-0.14,0.2-0.2a7.64,7.64,0,0,1-2.14.1A4,4,0,0,0,291.31,143.89Zm-55,20.69-0.76-.12C237.27,164.31,236.79,164.44,236.31,164.58Z"/><path class="cls-2" d="M96.56,147.51a0.57,0.57,0,0,1-.37-0.25C95.86,147.35,95.85,147.45,96.56,147.51Z"/><path class="cls-2" d="M142.22,160.08h0.13a0.3,0.3,0,0,0,.13-0.09Z"/><path class="cls-2" d="M231.08,148.08a7.59,7.59,0,0,1-1.54-.25C229.49,147.95,229.86,148,231.08,148.08Z"/><path class="cls-2" d="M311.91,143l-2.49.13a11.43,11.43,0,0,1,2.24.15C311.61,143.19,311.13,143,311.91,143Z"/><path class="cls-2" d="M333.54,145.94c0.36-.06.77,0,1.13-0.07l-0.1-.22C333,145.67,331.94,145.85,333.54,145.94Z"/><path class="cls-2" d="M314.22,144.62c0.2,0.41,1.76.26,3.51,0.18h-0.31C317.93,144.23,316.07,144.43,314.22,144.62Z"/><path class="cls-2" d="M318.13,144.79c0.54,0,1.09,0,1.61,0C319.95,144.54,319.09,144.73,318.13,144.79Z"/><path class="cls-2" d="M296.24,143.61c0.83,0.1.52-.52,1-0.36C298.15,142.74,291.71,143.89,296.24,143.61Z"/><polygon class="cls-2" points="315.64 145.95 315.01 145.45 314.04 145.86 315.64 145.95"/><path class="cls-2" d="M301.86,145.62l2.79,0.13a1.08,1.08,0,0,1,.75-0.17A19.75,19.75,0,0,0,301.86,145.62Z"/><path class="cls-2" d="M305.4,145.58a15.52,15.52,0,0,0,2.24-.09C307.16,145.5,306.11,145.52,305.4,145.58Z"/><polygon class="cls-2" points="311.83 146.11 311 146.01 309.04 145.98 311.83 146.11"/><path class="cls-2" d="M271.89,145.59l-3,.15c-0.31.17,0.52,0.28,1.65,0.21C271.23,145.82,272.36,145.75,271.89,145.59Z"/><path class="cls-2" d="M281.1,146.94a4,4,0,0,1-1.34-.38l-0.09.62Z"/><path class="cls-2" d="M272.22,147.1c-0.3.17-4.42,0.5-.56,0.46C272,147.39,275,147.24,272.22,147.1Z"/><polygon class="cls-2" points="226.37 146.38 227.15 146.37 227.03 145.35 226.37 146.38"/><path class="cls-2" d="M186,148.81c3.61,0.25.86-.63,4.12-0.32,0.85-.24-2.66-0.25-1.8-0.46C186.1,148.29,185,148.14,186,148.81Z"/><path class="cls-2" d="M188.28,148c0.35,0,.72-0.09,1.11-0.15A9.37,9.37,0,0,0,188.28,148Z"/><polygon class="cls-2" points="377.83 165.23 380.15 165.45 378.65 165.1 377.83 165.23"/><path class="cls-2" d="M382.28,164.48l0.55,0.65,1.39-.59A7,7,0,0,1,382.28,164.48Z"/><path class="cls-2" d="M66.35,158.7l-0.06.15a0.23,0.23,0,0,0,.25.17h0.18l0.39,0c0.28,0,.56,0,0.89.06a10.89,10.89,0,0,0-1.14-.23C66.32,158.8,66.38,158.71,66.35,158.7Z"/><polygon class="cls-2" points="97.29 159.65 96.75 159.59 97.71 160.26 97.29 159.65"/><path class="cls-2" d="M123.26,159c-1.08,0-2.33.2-3.41,0.21C122.18,159.07,123.58,159.77,123.26,159Z"/><path class="cls-3" d="M384.22,153.86H336c-9.64,1.52-20.35-.36-31.77,0-11.42-.58-159.75.34-165.06,0-5.31-1.42-10.4.17-15.22,0-9.64.37-18.21,0.68-25.35,0s-12.85-1-16.78,0c-3.93-.19-6.07-0.94-6.07,0-3.72.37-7.11-.75-9.56-0.57-2.45-.35-4-0.83-4-1.36V138.75c0-1.06,6.09-1.92,13.54-1.92a15.29,15.29,0,0,0,6.07,0c3.93,0.07,9.64.33,16.78,0,7.14,0.71,15.71,0,25.35,0,9.64,0.73,230.26.2,237.4,0,7.14-.67,12.85.52,16.78,0,3.93,0,6.07.09,6.07,0,3.72-.27,7.11.81,9.56,0.57,2.45,0.35,4,.83,4,1.36v13.19C397.76,153,391.67,153.86,384.22,153.86Z"/><path class="cls-4" d="M385.06,156.29c-1.06,0-.68.39-0.84,0.46C386,156.65,385,156.18,385.06,156.29Z"/><polygon class="cls-4" points="399.24 148 399.41 148.3 399 145.79 399.24 148"/><path class="cls-4" d="M391.59,135.85a3,3,0,0,0,1.43.37,3.71,3.71,0,0,0,.52,0l0.32,0,0.36,0,0.66,0.09,0.78,0.12a6.25,6.25,0,0,1,3,1.11,1.18,1.18,0,0,1,.25.3,1.8,1.8,0,0,1,.1.35,3.23,3.23,0,0,1,.12.73,8,8,0,0,1,0,1.51l-0.16.64,0.09,0.25,0.2,0.44,0.29,0.64,0-1.44a16.61,16.61,0,0,0-.11-2,4.35,4.35,0,0,0-.17-0.9,1.76,1.76,0,0,0-.15-0.41,1.52,1.52,0,0,0-.32-0.35,4.88,4.88,0,0,0-1.67-.82,14.54,14.54,0,0,0-1.83-.4l-0.79-.12a3.27,3.27,0,0,0-.82-0.06l-0.37,0H393c-0.16,0-.33,0-0.49,0A8.1,8.1,0,0,1,391.59,135.85Z"/><path class="cls-4" d="M383,133.82c0.24,0.13-.13.19-0.22,0.2H383l0.45,0,0.32,0h0.15s0,0,0,0h0v0.29L384,135c0.07,0.64,0,.82.08,1.14a3.53,3.53,0,0,0,.1.45c0,0.1,0,.19.07,0.19l-0.2-2.91,0.86-.08-0.43-.05-0.44,0,0.21,3a0.07,0.07,0,0,1-.08-0.09,0.21,0.21,0,0,0,0-.08l0-.15a3.51,3.51,0,0,1-.09-0.67c0-.15,0-0.7-0.08-1.16l0-.73c0-.18,0-0.07,0-0.1h-0.15Z"/><path class="cls-4" d="M384.44,133.79c2-.1-1.31-0.18,0,0h0Z"/><path class="cls-4" d="M376.71,134.07s0.47-.08.9-0.2l1.44-.17a3.11,3.11,0,0,0-.57-0.1l-0.2,0h-0.34l-0.38,0h-0.14c-0.34,0-.62,0-0.32-0.11C375.22,133.69,375.56,133.83,376.71,134.07Z"/><path class="cls-4" d="M374.81,134.61l0.54,0,0.53,0A1.67,1.67,0,0,0,374.81,134.61Z"/><path class="cls-4" d="M378.31,134.16a4.67,4.67,0,0,0-.67.07c-0.19,0-.42.1-0.68,0.14-0.51.09-1.07,0.15-1.07,0.15,0.28,0.1.35,0.36,1-.11-0.08.11,0,.11,0.17,0.06l0.37-.12a2.32,2.32,0,0,1,.27-0.09A4,4,0,0,1,378.31,134.16Z"/><path class="cls-4" d="M379.71,134.26c1.26,0.16,2.87.28,0.63,0.5,2.14,0,3-.16,2.87-0.29A11.9,11.9,0,0,0,379.71,134.26Z"/><path class="cls-4" d="M390.72,136.49l0.8,0.19c0.4,0.1.79,0.17,0.79,0.17s0.35,0,.68-0.1l0.74-.15a5.56,5.56,0,0,1-1.81,0A2.37,2.37,0,0,0,390.72,136.49Z"/><path class="cls-4" d="M362.9,133.47c-0.14.16,0.81,0.36,1,.55l1.71-.21A12.18,12.18,0,0,1,362.9,133.47Z"/><path class="cls-4" d="M363.89,134l-1.28.2-1.21.22c1.07-.08,1.75-0.13,2.12-0.2S364,134.11,363.89,134Z"/><path class="cls-4" d="M374.41,135.39s1-.09,1.91-0.26c0.46-.08.91-0.17,1.22-0.26a4.83,4.83,0,0,1,.58-0.11l0.24,0-0.29,0-0.37.06-0.26.06c-0.38.09-.92,0.19-1.47,0.26-1.12.15-2.31,0.23-2.31,0.23Z"/><polygon class="cls-4" points="353.73 133.64 355.11 133.28 352.65 133.82 353.73 133.64"/><path class="cls-4" d="M347.54,133.73c1-.3-1.41-0.49-0.32-0.67a30.12,30.12,0,0,0-4.41.55A21.4,21.4,0,0,1,347.54,133.73Z"/><path class="cls-4" d="M340.64,133.94c0.69-.07,1.4-0.2,2.17-0.34A16.74,16.74,0,0,0,340.64,133.94Z"/><path class="cls-4" d="M357.37,134.42a4.25,4.25,0,0,0-1.92-.42l1,0.42h1Z"/><path class="cls-4" d="M356.44,134.43h-2.11Z"/><path class="cls-4" d="M357.61,134.42h-0.24A0.22,0.22,0,0,0,357.61,134.42Z"/><path class="cls-4" d="M368,134.71c-1.48.19-4.54,0.49-1.58,0.83C367.48,135.27,365.79,135,368,134.71Z"/><path class="cls-4" d="M358.78,134.94l2.53,0.07c-0.06-.11-0.53-0.25.17-0.41a3.32,3.32,0,0,1-.42.07l-0.92.11Z"/><polygon class="cls-4" points="357.54 135.09 358.77 134.94 357.84 134.92 357.54 135.09"/><path class="cls-4" d="M345.09,134.32a27,27,0,0,1-3.73.25c1.49,0.08,3,.12,4.48.11C346,134.55,346.68,134.3,345.09,134.32Z"/><path class="cls-4" d="M350.61,134.42l-0.25,0C350.51,134.48,350.63,134.49,350.61,134.42Z"/><path class="cls-4" d="M327.72,134.62l0.22,0.08,0.05-.07h-0.27Z"/><path class="cls-4" d="M346.09,134.76a7.89,7.89,0,0,0,2.42-.16c-0.83,0-1.72.08-2.67,0.09C345.74,134.74,345.73,134.78,346.09,134.76Z"/><path class="cls-4" d="M336.84,134.16c0.58,0.09,1.24.16,1.93,0.23A6.21,6.21,0,0,0,336.84,134.16Z"/><path class="cls-4" d="M350,134.33l0.17,0C349.78,134.22,349.83,134.26,350,134.33Z"/><path class="cls-4" d="M350,134.33a14.56,14.56,0,0,0-1.48.27c0.68,0,1.31-.09,1.85-0.15A2.27,2.27,0,0,1,350,134.33Z"/><path class="cls-4" d="M323.59,137.38c0.2-.4,3.13-0.77,5.66-0.36,2.49-.31.86-1.6-1.32-2.32-0.08.17-.08,0.33-2.64,0.58,0.9,0.21,5.69.49,3.53,0.85-3.4.22-2.78-.13-4.44-0.33,1.41,0.49-4.32.73-3.58,1.45l3-.26C323.85,137.09,322.77,137.27,323.59,137.38Z"/><path class="cls-4" d="M332.82,134.72l1.06-.05a24.67,24.67,0,0,1-3.65-.52c-1.76.2-2.12,0.35-2.24,0.48l5.2,0Z"/><path class="cls-4" d="M338.62,134.65c-0.82.44-3.36,0.63-1.8,1.09,3.1,0,2.17-.37,4-0.56-5,.13,1.43-0.25-2.18-0.48,1-.08,1.87-0.1,2.7-0.13-0.9,0-1.77-.11-2.59-0.19l0.11,0h0c0.22,0.05.29,0.09,0,.06h-0.1a0.56,0.56,0,0,1-.23.16c-1.45-.08-0.23-0.11.23-0.16a0.27,0.27,0,0,0,.06-0.06h0l-5,.25C334.94,134.72,336.27,134.71,338.62,134.65Z"/><path class="cls-4" d="M363.75,136.52c-0.16,0-.15-0.06-0.17-0.09C363.26,136.49,363.14,136.54,363.75,136.52Z"/><path class="cls-4" d="M361.67,136.39a5,5,0,0,1,1.84-.31c1,0.08,0,.21.07,0.35,0.71-.15,2.51-0.38.24-0.53l-0.36.08a12.43,12.43,0,0,1-4.26-.58A6.86,6.86,0,0,0,361.67,136.39Z"/><path class="cls-4" d="M350,135.66l-4.17.23,2.13,0.36-0.11-.22C350.23,136.11,349.72,135.83,350,135.66Z"/><polygon class="cls-4" points="327.24 134.41 327.79 133.95 325.38 134.6 327.24 134.41"/><polygon class="cls-4" points="321.82 134.48 322.02 134.08 320.59 134.32 321.82 134.48"/><path class="cls-4" d="M94.29,151.12l1.25,0C95,151.09,94.57,151.1,94.29,151.12Z"/><path class="cls-4" d="M85.07,150.93l-0.22.21C85.29,151,85.46,150.91,85.07,150.93Z"/><path class="cls-4" d="M188.73,134.7c-1.78-.37-3.78-0.94-3.56-0.5l0.55,0.43A16.66,16.66,0,0,1,188.73,134.7Z"/><path class="cls-4" d="M97.6,137l0.53,0.11a6.87,6.87,0,0,1,1.21-.38c-0.26,0-.55,0-0.84.08Z"/><path class="cls-4" d="M96.39,138.8L94,138.58A21.91,21.91,0,0,0,96.39,138.8Z"/><path class="cls-4" d="M142.49,151.08l1.43-.44C141.69,150.63,142.67,150.86,142.49,151.08Z"/><path class="cls-4" d="M266.32,134.76c-1.54-.17-2.77-0.24-3.84-0.26C264.33,134.75,265.83,135.13,266.32,134.76Z"/><path class="cls-4" d="M90.54,155.51a1.43,1.43,0,0,0,1-.22C90.82,155.33,90.39,155.4,90.54,155.51Z"/><path class="cls-4" d="M258,134.52l0.81,0.1c1.13-.07,2.26-0.13,3.63-0.11A13.63,13.63,0,0,0,258,134.52Z"/><path class="cls-4" d="M318.3,151.7l0.39,0.07C318.73,151.71,318.56,151.7,318.3,151.7Z"/><path class="cls-4" d="M369.33,155.76c-0.5,0-1.33,0-2.1,0A17.54,17.54,0,0,0,369.33,155.76Z"/><path class="cls-4" d="M300,134.35c1.15,0,.18,0,0,0h0Z"/><path class="cls-4" d="M305.61,136a0.61,0.61,0,0,0-.46.21A0.83,0.83,0,0,1,305.61,136Z"/><path class="cls-4" d="M246.58,137.23h-0.1C246.83,137.32,246.77,137.3,246.58,137.23Z"/><path class="cls-4" d="M301.75,134.54c-0.43-.05-0.93-0.1-1.47-0.13C300.51,134.45,301,134.49,301.75,134.54Z"/><path class="cls-4" d="M301.51,134.33l1,0C302.66,134.3,302.53,134.26,301.51,134.33Z"/><path class="cls-4" d="M298.42,134.37c0.66,0,1.27,0,1.86,0-0.23,0-.32-0.05-0.26-0.07Z"/><path class="cls-4" d="M224,152.44l0.25,0C225.43,152.3,224.93,152.33,224,152.44Z"/><path class="cls-4" d="M158.81,139.16l0.13,0-0.17,0Z"/><path class="cls-4" d="M154.68,139.47a9.2,9.2,0,0,1,4.09-.35l-1.36-1.26Z"/><path class="cls-4" d="M115.27,151.66l-2.88-.32c3.45-.71,6-0.58,3.25-1-0.18.68-3,.81-5.75,0.86s-5.51,0-5.73.69l-1.85-.36c0.53,0,.62,0,1.15,0-3.6-.82-2.66.84-7.48,0.25-1.67-.24-2.84-0.51-1.67-0.59l-1.9,0-1.91.08c-1.11-.06-0.83-0.3.28-0.23,0,0-1.46,0-2.94,0s-3,.18-3,0.18l0,0-1.83.6c-0.35.13-.73,0.25-1,0.38a1.15,1.15,0,0,1-.49.2,1,1,0,0,1-.35-0.13,0.47,0.47,0,0,1,.21,0c0.21,0,.46-0.06.35-0.14a1.35,1.35,0,0,1-.29,0c-0.12,0-.59,0-0.95,0H78.94c-0.62-.25-0.26-0.38.49-0.42s2.1,0,2.41,0a2.68,2.68,0,0,0-2.09-.61c-0.41,0-.87,0-1.52,0L77,151H76.56a4.53,4.53,0,0,0-.68.05l-0.21,0-0.33.09-0.33.13a3,3,0,0,0-.48.29,2.51,2.51,0,0,0-.46.41,3.12,3.12,0,0,0-.41.63,2.33,2.33,0,0,0-.2.61,3.43,3.43,0,0,0-.07.59l2.17-2.39a9.13,9.13,0,0,1-1.88-.14,14.72,14.72,0,0,0,1.84-.18l-2.46,2.72a3.72,3.72,0,0,1,.07-0.66,2.61,2.61,0,0,1,.23-0.69,3.46,3.46,0,0,1,.48-0.73,3.08,3.08,0,0,1,.54-0.48,3.17,3.17,0,0,1,.95-0.47,3.54,3.54,0,0,1,.61-0.14,2.24,2.24,0,0,0-.62.06,2.79,2.79,0,0,0-1,.4,3.4,3.4,0,0,0-.6.47,3.63,3.63,0,0,0-.55.76,3,3,0,0,0-.29.76,4,4,0,0,0-.11.74l2.72-3a49.35,49.35,0,0,1-6-1.12c0.44,0.18,2,.72,3,1.12s1.56,0.75,0,.81a16.7,16.7,0,0,0-4-.36c0-.24-0.45-0.39-1.35-0.45-0.56,0-.74,0-1,0l-0.45-.06-0.3,0,0.18-.29,0.17-.29c-0.29,0-.55.09-0.78,0.09a0.5,0.5,0,0,1-.47-0.28,3.21,3.21,0,0,1,0-.39l0-.16,0-.32a6.08,6.08,0,0,1,.23-1.07,4.38,4.38,0,0,1,.62-1.18c0.1-4.34-.79,3-0.92-2.14a25.68,25.68,0,0,0,0-4,1.67,1.67,0,0,1,0-.53,1.1,1.1,0,0,1,.41-0.32,5.15,5.15,0,0,1,.56-0.26,2.75,2.75,0,0,1,.4-0.14l0.72-.18c2.41-.08-0.37.43,0.51,0.51l1-.37,1-.35c0.53,0,.37.14,0.29,0.23,1.81-.32.1-0.67,3-1a1.66,1.66,0,0,1,1.08-.2c0.27,0,.57,0,0.9.07L75,138.22a4.44,4.44,0,0,1,.48.07,0.6,0.6,0,0,1,.16,0l0.16,0.07a12,12,0,0,0,3.4.52,10.18,10.18,0,0,0,1.69-.13,7.36,7.36,0,0,0,.8-0.17c0.21-.07.27-0.11,0.44-0.16,0.45,0.1.34,0.2,0.15,0.3s-0.28.22-.24,0.34l4.48-.37c1-.1,1.84-0.22,3.92-0.56l1.77,0.21L94,138.58c-2.61-.45.72-1,3.59-1.61-0.93-.2-1.71-0.38-2.24-0.46l2.3-.24,0.87-.1a3,3,0,0,1,.46,0H100c0.54,0.14.07,0.34-.7,0.53,0.32,0,.62,0,0.85-0.08,1.62,0.34.76,0.66-.46,0.93l-0.83-.27a4,4,0,0,0-.77-0.2c-1.12.44-2.19,0.89-1.94,1.26a10.72,10.72,0,0,1,1.52-.23c-0.3.12-.49,0.22-0.34,0.28a1,1,0,0,0,.48-0.05c0.21-.05.62-0.16,0.81-0.23a0.7,0.7,0,0,1,.09.12l0.34,0.28,0.51,0.4,0.28-.26s1.54,0.22,3.08.38,3.08,0.27,3.08.27c4.39-.7,8.09-1.94,15-2.36-1.69.55-.35,0.86-0.43,1.48-1.88-.63-5.29.4-8.86,0.36,1.86,0,1.46.33,1,.44l6.32-.76c-0.13.51,1.35,0.35,3,.54-0.6-.47.44-0.66,2-0.75h-0.11c1.7-.05,4.05.06,5.4-0.1,0.15,0.33-.44.7-3.68,0.51,3.57,0.88,4.56-1.09,8-.4a3.54,3.54,0,0,0-1.49.11c1.8-.28,6.19,0,5.16.29h-0.77c5.11,0.15,15.55.1,16.31-.76a3.32,3.32,0,0,1-1,1.19l9.12-2.83c-0.8.73,2.27,2.48-2,2.88a25.39,25.39,0,0,0,5.28,0c-0.83-.11-2.06-1.06-0.93-1.13a48.48,48.48,0,0,0,6,1.14c-1.24-.16.14-1.3,2.1-1.26-0.31.17,0.16,1.13-.56,1.25l4.89-1.12c-1.22.2-.22,1,0.88,1.27-0.51-.22,4.23,0,5.53-0.08l-2.07-.26c5.52,0.18,5.45-1.58,10.93-1.51-0.66.23-1.64,1.43,1.15,1.57a32.72,32.72,0,0,1,10.5-3.21l0.93,0.33,3.72-.38a112.78,112.78,0,0,1-12.36,3.4c2.07,0.26.58,0.39,3.67,0.36,1.09,0.31-1.69.47-2.6,0.48l7.2,0.2c-0.32-.67,5.51-0.68,5.23-1.24l-7.82.7c-0.32-.67,4.52-1.91,9.63-1.79,1.3,0.27-1,1.2-.86,1.42a24.56,24.56,0,0,1,5.31-.28l-2.16.36c2.84,0.25,4.64-.89,8-0.25,1.18,0,3.52.86,3.72,0.47-1.92-.77-2.3-3.14-1-3.72,0.41,0.05,6.19.73,7.53,1.11,1.94,0.6-2.91,1.44-1.26,2a4.22,4.22,0,0,1,1.59-.48c1.24,0.16-.51.57,2.18,0.48,0.45-.68,5.47.05,1.27-0.58,2.63-.2,2.8.14,5.88,0.11-1-.44,2.77-1.5,5.41-1.7-0.16.17,0.44,0.4,0.72,0.5,5.39,0.05,8.29.36,13.31,0.36,0.46,0.16,2.89.36,1.86,0.66a13.63,13.63,0,0,1,2.94-.37c3,0.58-3.46.1-1.17,0.8,0.19-.4,4-0.55,6.22-0.8-0.68-.61-5.1-0.11-7.31.14,0-.84,3.84-1.73,9.09-2.13,4.18-.22,1.81.54,2.54,0.42,7.84,0.13,6.68-1.49,13.19-.89,2.59,0.53.12,1.07,0.69,1.46-3.4.21-5.22-.33-7.53-0.3l2.84,0.25a20.76,20.76,0,0,1-4.59.17c2.17,0.48,13.25.07,19.3,0.5,1.07-.18,2.93-0.37,2.05-0.59l-1.91.08c-1.76-.43,3.6-0.61,1.18-0.8a44.92,44.92,0,0,1,9.06-.56l0.68,0.61a8.91,8.91,0,0,0-3.38-.17c1.51-.28,5.55.81,7.2,0l-2.54-.42a48.86,48.86,0,0,1,9-.79c-1.46-.6-0.74.07-3-0.63,2,0.88-8.2,0-5,.9-2.34-.82-4-0.34-7.1-1,0.1,0.2,1.08.38-1.61,0.29a4,4,0,0,1-.59.18h-0.18l0.15,0c-0.12,0-.13,0,0.06,0a5.33,5.33,0,0,1,1.37.3c-1.33.47-5.61,0.46-7.06,0.71-1.6-.09.67-0.23-0.2-0.45l-2.16.36c-0.22-.45-4.24-0.74-0.48-1H290a31.9,31.9,0,0,0-6.42-.15c-1.6-.09-4,0.5-2.64.15l-5.31.29,0-.11c-5.24,0-10.78.76-16.77,0a53.13,53.13,0,0,1-6.53.13l-0.58-.39c-2.26.14-6.8-.38-7.77,0-2.44-1-11-.22-15-0.4l-0.15.51c-2.74,0-5.37.12-8.77,0.33l0.21,0.45c-2.93.37-7.54-.32-12.18-0.27a6.31,6.31,0,0,1,2.32,0c-5.54-1-11.69.74-16.72,0a11.08,11.08,0,0,1-3,0l0.31,0h-0.51l-1.74-.24a14,14,0,0,0,1.46.24c-1,0-2.43.06-3.87,0.18l-0.61-.48h-0.33c-1.41-.18-1.13.23-0.38,0.59a17.91,17.91,0,0,0-1.9.29c-1.14-.78-3.77.26-5.33-0.57-1,.4-7.22.29-8,1.14,0-.11-0.47-0.16.3-0.17a21.23,21.23,0,0,0-4.64,0l-0.68-.61-3.5.81c-2.12-.38-3-0.6-0.89-1.06-5.09.71-4.13,0.26-8.46,1l0.21-.4c-1.55,0-4,.53-5,0.2a65.8,65.8,0,0,0-9.5-.47c-4.3-.07-9.39-0.07-13.57-0.43H124l-2.84-.14c1.75,1.13-4.16-.45-4.49.47-0.53-.26-1.77-0.39-0.33-0.66-4.54.39-6.8-.25-9.88,0.51-0.51-.28,1-0.4.5-0.57a5,5,0,0,1-1.88.07c-0.45-.17.65-0.22,1.36-0.34-4.52,0-5,.76-5.37,1.55-0.57-.13-1.07-0.23-1.52-0.31l-0.33-.05-0.39,0a2.31,2.31,0,0,0-.43,0l-0.31,0a9.34,9.34,0,0,0-2.33.52c-0.82-.24-2.17-0.48.67-0.65l-5.52,0c-2.27,0-4.37,0-4.46.33a10.32,10.32,0,0,0-2.69,0l-1.22,0a5.31,5.31,0,0,0-1.2,0c-0.56.07-1,.11-1.48,0.14a16.68,16.68,0,0,1-3.39-.09l0.41,0.12,0.44,0.1a2.14,2.14,0,0,1-1,.22L76,136a2.25,2.25,0,0,0-.33,0c-1.17,0-2.42-.17-4.31,0l0.08-.08a17.71,17.71,0,0,0-4.8.25c-0.36.08-.69,0.14-1.41,0.24-0.43.07-1,.14-1.66,0.29a4.84,4.84,0,0,0-2.34,1,3.8,3.8,0,0,1,.69,0,1.09,1.09,0,0,1-.13.52c-0.06.24,0,.54-0.06,0.89s-0.07.75-.1,1.21-0.09,1-.15,1.44a27.64,27.64,0,0,0-.35,6l0.27-1.36a5.47,5.47,0,0,1-.07,1.8c-0.06.33-.14,0.68-0.22,1s-0.19.92-.29,1.41a11,11,0,0,0-.21,1.59,2.13,2.13,0,0,0,.29,1.4,4.21,4.21,0,0,0,2.11,1.5c0.66,0.28-1.23-.13-2-0.69a6.45,6.45,0,0,0,2.25,1.13,9,9,0,0,0,1.44.33,2.4,2.4,0,0,0,.38,0l0.15,0a0.18,0.18,0,0,0,.1-0.15,0.33,0.33,0,0,1,.27-0.36c0.15-.06.43,0,0.77-0.1a5,5,0,0,1,1.09-.09c0.31,0.19.09,0.39,0.08,0.57s0.16,0.32,1.43.52a11,11,0,0,0,2.55.21A26.8,26.8,0,0,0,76,156.1l0.39-2.24a0.38,0.38,0,0,1-.25,0h0l0,0a1.42,1.42,0,0,1,.15.3,1.2,1.2,0,0,1,.07.25l0,0.13,0.05,0.21a4,4,0,0,1,.1.84H76.8a10,10,0,0,1,1.17.08,20.19,20.19,0,0,1,2.44.43c-0.84-.34-1.64-0.67.31-0.7l0.66,0a2.61,2.61,0,0,0,.82,0,8.7,8.7,0,0,1,1.36-.2,25.82,25.82,0,0,1,2.62,0,18.3,18.3,0,0,0,4.9-.16,0.69,0.69,0,0,1,.5.23c2.17-.12,7.06.19,8.46-0.15,1,0.92,4.48.9,7.67,0.69s6.09-.52,6.08.25l6.79-.29-0.17.16c1.08,0,2-.05,2.76-0.11l0.56,0,0.39,0c0.36,0,.69,0,1-0.08a13.25,13.25,0,0,0,2.72-.64c1,0,.29.22,0.22,0.31l6.34-.3c0.75,0,1.46-.08,2.29-0.07,0.42,0,.86,0,1.36,0l0.38,0,0.55,0.06A9.1,9.1,0,0,0,140,155l0.55,0.51c1.52-.24,9.18.83,15.39,0.25a1.18,1.18,0,0,1-.68.22c7-.59,16.7,1.35,19.25-0.47l4.6-.46c-6-.12.88-0.79-1.57-1.08,2.34-.11,6.05.53,3.18,0.63l-0.45-.09c-1.05.94,7.4,0.31,7.24,1,11.72-.08,23.14.4,34.11,0.41l-1.27-.73,3.83,0c1,0.17,1.35.57-1.38,0.55a9.91,9.91,0,0,0,4.66-.52c5.35,0.28-2.09.86-.45,0.87l2.23-.06-0.5-.08a18.09,18.09,0,0,1,5.25-.59c2.08,0.14,1.07.45,1.88,0.47a2.82,2.82,0,0,0,1.25,0L242,155.9l-1.93-.57c2.14-.29,4.53,0,2.31-0.63,3.27,1,18,.33,20,0.64a62,62,0,0,1,9.61-.37c-0.91-.12-1.45-0.77,1.7-0.69-1.15,1.34,5.78.59,8.33,1.55-2.28-.65,9-0.14,5.4-1.05,2.63,0.12.16,0.5,2.15,0.83a82.87,82.87,0,0,1,10.21,0c0.91,0,1.81.1,2.72,0.15l1.37,0.08c0.7,0,1.07,0,1.55,0l5.66,0.06c0.13-.17-1.15-0.48.5-0.69l4,1c1.53,0,1.45-.94,4.22-0.2-0.39-.17-1-0.42.06-0.42a71.74,71.74,0,0,0,11.66.36c1,0,2-.16,3-0.26l1.49-.21,0.19,0h1l5.83-.07a204.22,204.22,0,0,1,23.31.74c-2.09-.34-0.7-0.37.9-0.39-1-.08,0-0.43-0.18-0.67l6.46,0.66c1.18-.66,6.92,0,7.6-0.68l-2,.11c2.72-.75-3.8-1.66-3.41-2.62-3,.85-8-1.26-13,0-1.1-.2.94-0.31,0.35-0.53a15.06,15.06,0,0,1-5.63.31l0.32-.1c-8,.1-11.37-0.3-20.32-0.57l0.66,0.47-1.19-.06L335.9,152l-0.48,0h-0.88c-0.5.25-.43,0.33-0.07,0.33,0.18,0,.43,0,0.72,0a7.45,7.45,0,0,1,1.22-.08c1.37,0,2.77,0,1.77.44a6.07,6.07,0,0,0-1.32-.28,8.13,8.13,0,0,0-1-.08l-1.09.09c-1.36.13-3,.24-4.56,0.31-3.2.11-6.35-.05-7.17-0.62-2.92-.12.84,0.58-2.09,0.46l-0.77-.33-0.76.35c-1.93-.16-2.89-0.57-3-0.83,0.47,0.05,1.34,0,1.84,0-2.48-.48-7.13-0.2-8-0.32l2.87,0.27c-2,0-4.2,0-6.42,0-1.1,0-2.32.08-3.19,0l-3.39-.07c-4.46,0-8.88,0-12.78.28l0.59,0.23c-6,.39-4.77-0.25-11.31-0.07l0.24-.05a28.56,28.56,0,0,1-4.84.31c1.65-.26-3.11-0.51-0.94-0.8-6.46.45-3.19,0.35-7.46,1.18l-1-.37a16,16,0,0,1-4.84.62c2.68-.32-2.08-0.56.91-1-6.85-.8-10.17.84-13.31-0.34-3.14,1,5.93.56,4.17,0.78,1.48,0.33-2.59.77-4.74,0.67s-3.72-1.3-9.23-1.27c0.55,0,.58-0.07,1.13-0.07-2.06-.26-4,0.36-6.56-0.05-1.41.62-3.28,0-3.69,0.77l5-.2c-2.86.21-5.54,1.15-10.26,0.71a17.16,17.16,0,0,1,2.73-.49c-1.38-.23-2.65.16-4.08-0.07,0.41-.79,6.13-0.19,9.2-0.8-1.48-.33-5.8.59-4.26-0.27-2.21,1.1-5.42-.12-9.15.72l0.24-.48a20.58,20.58,0,0,1-2.9.3l2-.62c-3,.53-5.82-0.44-8.71-0.15,6.06,0,1.36.57,3.93,0.91-7.47.66-4.3-1.23-12.67-1,1.13-.07,4.25.27,2.48,0.5a33.34,33.34,0,0,1-4.68-.51c-5.54.12,0.85,0.49-1.51,0.78-1.89-.57-2.72.24-5.15,0.44l0-.48c-6.32-.29-1.67,1-7.36.65l2.4-.68-3,.18,0.61-.55a32.54,32.54,0,0,1-7.39.17c0.74,0.34-.41.88-3.21,0.9-1.91-.28,1.07-0.46-2.9-0.38a5.45,5.45,0,0,1,3.6-.24c0.18-.16.88-0.3,1.06-0.46a44.23,44.23,0,0,0-6.6-.06,12.12,12.12,0,0,1,1.55.11l-5.75.68c-0.91-.18-0.19-0.33.52-0.47-1.16.05-2,.28-3.68,0.32,0.44-.39.34-0.8,2.76-1l-5.48.44c-0.37-.17-2.81-0.47-2.1-0.61-3-.23-7.45.76-11.45,0.43a5.62,5.62,0,0,1-1.43.19l-1.27-.07a0.63,0.63,0,0,1-.27-0.07c-0.26-.07-0.51-0.15-0.77-0.21a20.4,20.4,0,0,0-3.13-.5A22,22,0,0,0,129,151l-1.28-.23-1.23-.26c-1.59.16-.81,0.34-0.27,0.55,0.27,0.1.48,0.21,0.27,0.33a6,6,0,0,1-2.15.33h-0.44l-0.38,0-0.56,0a6,6,0,0,1-.75,0,0.49,0.49,0,0,1-.5-0.22c-0.06-.2.22-0.47-0.51-0.54a27.06,27.06,0,0,1-9.37.78C113.12,151.66,114.1,151.74,115.27,151.66Zm-42.72,0a11.09,11.09,0,0,1,2.75-.1C74.52,152.18,73.83,151.93,72.54,151.67Zm31.39-13.53a6.91,6.91,0,0,1-2.7-.2A18.93,18.93,0,0,1,103.94,138.14Zm183.48-3.38-0.09,0C285.46,134.61,286.12,134.68,287.42,134.77Zm3.89,0.2c0.39-.07.36-0.14,0.2-0.2a7.63,7.63,0,0,1-2.14.1A4,4,0,0,0,291.31,135Zm-55,20.69-0.76-.12C237.27,155.39,236.79,155.51,236.31,155.65Z"/><path class="cls-4" d="M96.56,138.59a0.57,0.57,0,0,1-.37-0.25C95.86,138.43,95.85,138.52,96.56,138.59Z"/><path class="cls-4" d="M142.22,151.16h0.13a0.29,0.29,0,0,0,.13-0.09Z"/><path class="cls-4" d="M231.08,139.15a7.58,7.58,0,0,1-1.54-.25C229.49,139,229.86,139.12,231.08,139.15Z"/><path class="cls-4" d="M311.91,134.1l-2.49.13a11.42,11.42,0,0,1,2.24.15C311.61,134.27,311.13,134.11,311.91,134.1Z"/><path class="cls-4" d="M333.54,137c0.36-.06.77,0,1.13-0.07l-0.1-.22C333,136.74,331.94,136.93,333.54,137Z"/><path class="cls-4" d="M314.22,135.69c0.2,0.41,1.76.26,3.51,0.18h-0.31C317.93,135.31,316.07,135.5,314.22,135.69Z"/><path class="cls-4" d="M318.13,135.86c0.54,0,1.09,0,1.61,0C319.95,135.62,319.09,135.8,318.13,135.86Z"/><path class="cls-4" d="M296.24,134.69c0.83,0.1.52-.52,1-0.36C298.15,133.81,291.71,135,296.24,134.69Z"/><polygon class="cls-4" points="315.64 137.03 315.01 136.53 314.04 136.94 315.64 137.03"/><path class="cls-4" d="M301.86,136.7l2.79,0.13a1.08,1.08,0,0,1,.75-0.17A19.77,19.77,0,0,0,301.86,136.7Z"/><path class="cls-4" d="M305.4,136.66a15.56,15.56,0,0,0,2.24-.09C307.16,136.57,306.11,136.59,305.4,136.66Z"/><polygon class="cls-4" points="311.83 137.19 311 137.09 309.04 137.06 311.83 137.19"/><path class="cls-4" d="M271.89,136.66l-3,.15c-0.31.17,0.52,0.28,1.65,0.21C271.23,136.9,272.36,136.83,271.89,136.66Z"/><path class="cls-4" d="M281.1,138a4,4,0,0,1-1.34-.38l-0.09.62Z"/><path class="cls-4" d="M272.22,138.18c-0.3.17-4.42,0.5-.56,0.46C272,138.46,275,138.32,272.22,138.18Z"/><polygon class="cls-4" points="226.37 137.45 227.15 137.44 227.03 136.43 226.37 137.45"/><path class="cls-4" d="M186,139.89c3.61,0.25.86-.63,4.12-0.32,0.85-.24-2.66-0.25-1.8-0.46C186.1,139.36,185,139.22,186,139.89Z"/><path class="cls-4" d="M188.28,139.11c0.35,0,.72-0.09,1.11-0.15A9.36,9.36,0,0,0,188.28,139.11Z"/><polygon class="cls-4" points="377.83 156.31 380.15 156.52 378.65 156.18 377.83 156.31"/><path class="cls-4" d="M382.28,155.55l0.55,0.65,1.39-.59A7,7,0,0,1,382.28,155.55Z"/><path class="cls-4" d="M66.35,149.78l-0.06.15a0.23,0.23,0,0,0,.25.17h0.18l0.39,0c0.28,0,.56,0,0.89.06a10.92,10.92,0,0,0-1.14-.23C66.32,149.88,66.38,149.79,66.35,149.78Z"/><polygon class="cls-4" points="97.29 150.72 96.75 150.66 97.71 151.33 97.29 150.72"/><path class="cls-4" d="M123.26,150.13c-1.08,0-2.33.2-3.41,0.21C122.18,150.14,123.58,150.84,123.26,150.13Z"/></svg>