<svg id="圖層_64" data-name="圖層 64" xmlns="http://www.w3.org/2000/svg" viewBox="0 0 460 300"><defs><style>.cls-1{fill:#ff7377;}.cls-2{fill:#ff8285;}</style></defs><title>loading-progress-100</title><path class="cls-1" d="M384.22,153.86H336c-9.64,1.52-20.35-.36-31.77,0-11.42-.58-159.75.34-165.06,0-5.31-1.42-10.4.17-15.22,0-9.64.37-18.21,0.68-25.35,0s-12.85-1-16.78,0c-3.93-.19-6.07-0.94-6.07,0-3.72.37-7.11-.75-9.56-0.57-2.45-.35-4-0.83-4-1.36V138.75c0-1.06,6.09-1.92,13.54-1.92a15.29,15.29,0,0,0,6.07,0c3.93,0.07,9.64.33,16.78,0,7.14,0.71,15.71,0,25.35,0,9.64,0.73,230.26.2,237.4,0,7.14-.67,12.85.52,16.78,0,3.93,0,6.07.09,6.07,0,3.72-.27,7.11.81,9.56,0.57,2.45,0.35,4,.83,4,1.36v13.19C397.76,153,391.67,153.86,384.22,153.86Z"/><path class="cls-2" d="M385,155.11c-1,0-.67.2-0.83,0.24C386,155.29,385,155.05,385,155.11Z"/><polygon class="cls-2" points="398.52 148 398.61 148.3 398.4 145.79 398.52 148"/><path class="cls-2" d="M391.51,136.57a5,5,0,0,0,1.5.23,4.27,4.27,0,0,0,.47,0l0.34,0,0.33,0,1.18,0.18c0.42,0.07.8,0.14,1.29,0.27a3.7,3.7,0,0,1,1.48.7,0.91,0.91,0,0,1,.33.69,5.15,5.15,0,0,1,0,.8v0.67l0,0.55-0.08.47,0.3,1.28-0.06-2.78a6.61,6.61,0,0,0-.06-1,1.07,1.07,0,0,0-.43-0.81,4.64,4.64,0,0,0-1.74-.75c-0.48-.12-0.95-0.2-1.4-0.28a7.66,7.66,0,0,0-1.44-.16A9.4,9.4,0,0,1,391.51,136.57Z"/><path class="cls-2" d="M383,135.29c0.24,0.07-.13.1-0.22,0.1H384a0.16,0.16,0,0,1,0,.09,1.87,1.87,0,0,1,0,.29,3.51,3.51,0,0,0,.13.91c0,0.1,0,.19.07,0.19l-0.1-1.5,0.8-.06-0.39,0-0.41,0,0.1,1.55a0.07,0.07,0,0,1-.08-0.09,0.21,0.21,0,0,0,0-.08l0-.15a3.51,3.51,0,0,1-.09-0.67,4,4,0,0,0,0-.46,0.11,0.11,0,0,0,0-.06h-1Z"/><path class="cls-2" d="M384.51,135.25c1.83-.08-1.21-0.07,0,0h0Z"/><path class="cls-2" d="M376.78,135.46s0.51-.05,1-0.14l0.31,0h0.27l0.36,0,0.35,0a5.57,5.57,0,0,0-.57-0.05,6.35,6.35,0,0,0-.9,0c-0.4,0-.69,0-0.36,0C375.16,135.29,375.56,135.35,376.78,135.46Z"/><path class="cls-2" d="M374.78,135.74l1.11,0A3.56,3.56,0,0,0,374.78,135.74Z"/><path class="cls-2" d="M378.32,135.45H378l-0.21,0c-0.2,0-.47.08-0.76,0.1-0.56.07-1.14,0.09-1.14,0.09a1.26,1.26,0,0,0,1-.07c-0.09.06,0,.06,0.18,0l0.41-.08,0.27-.06,0.08,0,0.17,0Z"/><path class="cls-2" d="M379.7,135.5c1.25,0.08,2.86.15,0.63,0.26C384.57,135.76,384,135.49,379.7,135.5Z"/><path class="cls-2" d="M390.68,136.86l0.81,0.14c0.41,0.07.81,0.12,0.81,0.12s0.35,0,.7,0,0.69-.09.72-0.09a7.33,7.33,0,0,1-1.82,0A4.9,4.9,0,0,0,390.68,136.86Z"/><path class="cls-2" d="M363,135a4.06,4.06,0,0,0,.95.26l1.67-.12C364.75,135.12,363.11,135.14,363,135Z"/><path class="cls-2" d="M363.94,135.3l-1.25.13-1.21.16C363.64,135.43,364.1,135.39,363.94,135.3Z"/><path class="cls-2" d="M374.38,136.14s1,0,2-.12c0.48,0,1-.11,1.29-0.18l0.23,0,0.16,0h0.09c-0.28,0-.36.06-0.59,0.09-0.41.07-1,.13-1.56,0.17-1.16.08-2.35,0.09-2.35,0.09Z"/><polygon class="cls-2" points="353.74 135.21 355.12 135.02 352.66 135.31 353.74 135.21"/><path class="cls-2" d="M347.55,135.28c1-.15-1.41-0.25-0.32-0.34-1.68,0-3.12.17-4.41,0.29A41.43,41.43,0,0,1,347.55,135.28Z"/><path class="cls-2" d="M340.65,135.4c0.69,0,1.4-.11,2.17-0.18C342.09,135.26,341.37,135.31,340.65,135.4Z"/><path class="cls-2" d="M357.38,135.61a7.6,7.6,0,0,0-1.92-.21l1,0.21h1Z"/><path class="cls-2" d="M356.45,135.62h0Z"/><path class="cls-2" d="M357.62,135.61h-0.24A0.4,0.4,0,0,0,357.62,135.61Z"/><path class="cls-2" d="M368,135.65c-1.46.07-4.49,0.25-1.56,0.42C367.47,135.93,365.79,135.79,368,135.65Z"/><path class="cls-2" d="M358.8,135.87l2.56,0c-0.05-.06-0.52-0.12.18-0.22a3.22,3.22,0,0,1-.43,0l-0.94.06Z"/><polygon class="cls-2" points="357.54 135.95 358.8 135.87 357.85 135.86 357.54 135.95"/><path class="cls-2" d="M345.09,135.59c-1.12.1-2.35,0.11-3.73,0.13,1.49,0,3,.05,4.48,0C346,135.7,346.69,135.57,345.09,135.59Z"/><path class="cls-2" d="M350.61,135.62h-0.25C350.52,135.66,350.64,135.66,350.61,135.62Z"/><path class="cls-2" d="M327.72,135.77l0.22,0,0.05,0h-0.27Z"/><path class="cls-2" d="M346.09,135.81a15.17,15.17,0,0,0,2.42-.09c-0.83,0-1.72,0-2.67,0C345.75,135.8,345.73,135.82,346.09,135.81Z"/><path class="cls-2" d="M336.84,135.52l1.93,0.11A11.88,11.88,0,0,0,336.84,135.52Z"/><path class="cls-2" d="M350,135.58h0.17C349.79,135.52,349.83,135.55,350,135.58Z"/><path class="cls-2" d="M350,135.58c-0.57,0-1,.09-1.48.14,0.68,0,1.31,0,1.86-.08Z"/><path class="cls-2" d="M323.59,137.2a19.73,19.73,0,0,1,5.66-.19c2.49-.16.86-0.83-1.32-1.19-0.08.09-.08,0.17-2.64,0.3,0.9,0.11,5.69.24,3.53,0.43a21.23,21.23,0,0,1-4.44-.17c1.41,0.25-4.32.38-3.58,0.75l3-.14C323.85,137,322.76,137.15,323.59,137.2Z"/><path class="cls-2" d="M332.83,135.81l1.06,0c-1.2,0-2.07-.11-3.65-0.26a8.31,8.31,0,0,0-2.24.25h5.2Z"/><path class="cls-2" d="M338.62,135.77c-0.82.23-3.36,0.33-1.8,0.56a30.44,30.44,0,0,0,4-.3c-5,.08,1.44-0.13-2.18-0.24,1,0,1.87-.06,2.7-0.07l-2.59-.09h0.13c0.22,0,.29,0,0,0h-0.1a0.69,0.69,0,0,1-.23.08c-1.45,0-.23-0.06.23-0.08l0.06,0h0l-5,.14C334.94,135.81,336.27,135.8,338.62,135.77Z"/><path class="cls-2" d="M363.75,136.59c-0.16,0-.15,0-0.16,0C363.26,136.59,363.14,136.61,363.75,136.59Z"/><path class="cls-2" d="M361.68,136.59a8.56,8.56,0,0,1,1.85-.22c1,0,0,.11.06,0.18,0.71-.1,2.5-0.23.25-0.28l-0.36,0a19.55,19.55,0,0,1-4.25-.21A10.3,10.3,0,0,0,361.68,136.59Z"/><path class="cls-2" d="M350,136.27l-4.17.13,2.12,0.18-0.11-.11C350.23,136.5,349.72,136.36,350,136.27Z"/><polygon class="cls-2" points="327.24 135.66 327.8 135.43 325.39 135.76 327.24 135.66"/><polygon class="cls-2" points="321.82 135.71 322.02 135.5 320.59 135.63 321.82 135.71"/><path class="cls-2" d="M94.21,152.27l1.23,0C94.86,152.27,94.48,152.27,94.21,152.27Z"/><path class="cls-2" d="M85.16,152.09l-0.22.12C85.37,152.12,85.54,152.07,85.16,152.09Z"/><path class="cls-2" d="M188.73,135.91c-1.78-.19-3.78-0.49-3.56-0.26l0.55,0.22C187,135.83,187.92,135.86,188.73,135.91Z"/><path class="cls-2" d="M97.59,136.92l0.52,0a6.57,6.57,0,0,1,1.21-.18c-0.26,0-.54,0-0.83,0Z"/><path class="cls-2" d="M96.36,137.88L94,137.79C94.53,137.84,95.29,137.87,96.36,137.88Z"/><path class="cls-2" d="M142.48,152.45l1.43-.22C141.67,152.22,142.65,152.34,142.48,152.45Z"/><path class="cls-2" d="M266.32,135.92c-1.54-.08-2.77-0.12-3.84-0.13A17.2,17.2,0,0,0,266.32,135.92Z"/><path class="cls-2" d="M90.59,154.43a2.52,2.52,0,0,0,1-.09C90.86,154.34,90.43,154.37,90.59,154.43Z"/><path class="cls-2" d="M258,135.79l0.81,0.05c1.13,0,2.26-.07,3.63-0.06A26.35,26.35,0,0,0,258,135.79Z"/><path class="cls-2" d="M318.24,152.9l0.4,0A0.68,0.68,0,0,0,318.24,152.9Z"/><path class="cls-2" d="M369.33,154.84l-2.1,0C367.61,154.87,368.24,154.87,369.33,154.84Z"/><path class="cls-2" d="M300,135.67c1.15,0,.18,0,0,0h0Z"/><path class="cls-2" d="M305.61,136.54a0.9,0.9,0,0,0-.46.11A1.27,1.27,0,0,1,305.61,136.54Z"/><path class="cls-2" d="M246.58,137.2h-0.1A0.67,0.67,0,1,0,246.58,137.2Z"/><path class="cls-2" d="M301.75,135.77l-1.47-.06Z"/><path class="cls-2" d="M301.52,135.66l1,0C302.67,135.64,302.54,135.62,301.52,135.66Z"/><path class="cls-2" d="M298.42,135.68c0.66,0,1.27,0,1.86,0-0.23,0-.32,0-0.26,0Z"/><path class="cls-2" d="M224,153.08l0.25,0A2.39,2.39,0,1,0,224,153.08Z"/><path class="cls-2" d="M158.81,138.18h0Z"/><path class="cls-2" d="M154.68,138.33a17.56,17.56,0,0,1,4.09-.17l-1.36-.65Z"/><path class="cls-2" d="M115.3,152.87l-2.89-.14c3.47-.4,6-0.38,3.28-0.58-0.19.35-3,.46-5.79,0.49s-5.57,0-5.78.32l-1.88-.23c0.54,0,.63,0,1.16,0-3.65-.5-2.71.36-7.5-0.14-1.67-.19-2.83-0.37-1.68-0.37l-1.88,0H90.45c-1.1,0-.82-0.17.27-0.11,0,0-1.44-.05-2.89,0s-2.92.15-2.92,0.15l0,0c-0.42.09-1.09,0.23-1.78,0.41-0.34.1-.69,0.18-1,0.29l-0.23.07-0.11,0a0.82,0.82,0,0,1-.23,0c-0.7-.09-0.52-0.1-0.21-0.1h0.37c0.07,0,.1,0,0-0.05H81.47l-1.06,0-1.55-.07c-0.63-.16-0.28-0.21.47-0.19l1.37,0.06,0.79,0a1,1,0,0,0,.5,0,1.63,1.63,0,0,1-.51-0.14l-0.67-.13a9.85,9.85,0,0,0-1.19-.1c-0.42,0-.88,0-1.52-0.07L77,152.18a4.59,4.59,0,0,0-.89,0,1.63,1.63,0,0,0-.36.09l-0.21.08a1.8,1.8,0,0,0-.28.17,1.54,1.54,0,0,0-.51.6,1.8,1.8,0,0,0-.16.71l1.12-1.23a12.45,12.45,0,0,1-2,0,16.37,16.37,0,0,0,2-.12l-1.27,1.4a1.94,1.94,0,0,1,.17-0.79,2.17,2.17,0,0,1,.27-0.42,1.76,1.76,0,0,1,.31-0.28,1.84,1.84,0,0,1,.57-0.28,2.16,2.16,0,0,1,.41-0.09,1.62,1.62,0,0,0-.41,0,1.7,1.7,0,0,0-.6.24,2,2,0,0,0-.34.27,2.25,2.25,0,0,0-.31.43,2.06,2.06,0,0,0-.23.86l1.4-1.55a33.32,33.32,0,0,1-6.39-.78l3.11,0.76c1.06,0.24,1.66.44,0,.42a36,36,0,0,0-4-.42,1.88,1.88,0,0,0-1.27-.27c-0.21,0-.43,0-0.68,0H66.25L66,152c-0.46-.07-1-0.15-1.46-0.26l0.21-.29-0.63-.12H63.93a1.08,1.08,0,0,1-.27,0,0.26,0.26,0,0,1-.14-0.14L63.46,151a0.73,0.73,0,0,1-.06-0.28,10,10,0,0,1,.5-3.91c0.05-4.34-.41,3-0.47-2.14,0.06-1.78.06-3.38,0-4.92a1.39,1.39,0,0,1,0-.5,1.14,1.14,0,0,1,.46-0.28s0.32-.11.51-0.16l0.65-.17q0.68-.16,1.45-0.31c2.46-.19-0.4.25,0.49,0.23l1.07-.25,1.08-.23c0.54,0,.37.06,0.29,0.1,1.85-.22.12-0.36,3.05-0.59a10.42,10.42,0,0,1,3.13,0h0.08l0.08,0a12.24,12.24,0,0,0,3.3.4,12.9,12.9,0,0,0,1.68-.12c0.27,0,.54-0.08.8-0.14a3,3,0,0,1,.6-0.11c0.9,0.11-.44.19-0.17,0.33,5-.16,4.32-0.08,8.46-0.4l1.77,0.11L94,137.79c-2.6-.22.72-0.52,3.6-0.88l-2.23-.2,2.3-.16,0.85-.07c0.34,0,.56,0,0.78,0l0.72,0c0.55,0.09.08,0.18-.68,0.25,0.32,0,.61,0,0.85,0,1.64,0.22.78,0.37-.42,0.47l-0.83-.17a4.31,4.31,0,0,0-.8-0.11c-1.13.25-2.2,0.5-2,.69,0.3,0,.88-0.1,1.52-0.14-0.3.07-.49,0.12-0.35,0.15a2,2,0,0,0,.47,0l0.85-.13a4.57,4.57,0,0,0,.49.23l0.52,0.23,0.27-.12s1.52,0.17,3.05.27,3,0.16,3,.16c4.36-.36,8.09-1.08,14.95-1.35-1.7.3-.36,0.44-0.45,0.77-1.88-.31-5.3.27-8.86,0.29,1.86,0,1.45.15,1,.22l6.33-.47c-0.14.26,1.35,0.17,3,.25-0.6-.24.44-0.34,2-0.4h-0.06c1.69,0,4,.1,5.35,0,0.15,0.17-.45.37-3.64,0.22,3.52,0.51,4.52-.52,7.94-0.14a6.74,6.74,0,0,0-1.49,0c1.8-.13,6.19,0,5.16.17h-0.77c5.11,0.09,15.54.09,16.3-.35a2.62,2.62,0,0,1-1,.61l9.11-1.45c-0.8.37,2.27,1.28-2,1.48a49.17,49.17,0,0,0,5.28,0c-0.83-.06-2.07-0.55-0.93-0.58,3.11,0.43,2.16.23,6,.59-1.24-.08.14-0.67,2.1-0.65-0.31.09,0.16,0.58-.56,0.64l4.89-.57c-1.22.1-.22,0.49,0.88,0.66-0.51-.11,4.23,0,5.53,0l-2.07-.14c5.52,0.09,5.45-.81,10.93-0.78-0.66.12-1.64,0.74,1.15,0.81a56.88,56.88,0,0,1,10.5-1.65l0.93,0.17,3.72-.19c-2.31.45-8.81,1.39-12.36,1.75a21.44,21.44,0,0,0,3.67.19c1.09,0.16-1.69.24-2.6,0.25l7.2,0.1c-0.32-.35,5.51-0.35,5.23-0.64l-7.82.36c-0.32-.34,4.52-1,9.63-0.92,1.3,0.14-1,.62-0.86.73a47.47,47.47,0,0,1,5.31-.14l-2.16.19c2.84,0.13,4.64-.46,8-0.13,1.18,0,3.52.44,3.72,0.24-1.92-.39-2.3-1.62-1-1.91,0.41,0,6.19.37,7.53,0.57,1.94,0.31-2.91.74-1.26,1a7.34,7.34,0,0,1,1.59-.25c1.24,0.08-.51.29,2.18,0.25,0.45-.35,5.47,0,1.27-0.3,2.63-.1,2.8.07,5.88,0.05-1-.23,2.77-0.77,5.41-0.88-0.16.09,0.44,0.2,0.72,0.26,5.39,0,8.28.18,13.31,0.18,0.46,0.08,2.89.18,1.86,0.34a25.9,25.9,0,0,1,2.94-.19c3,0.3-3.46.05-1.17,0.41a58.86,58.86,0,0,1,6.22-.42c-0.68-.31-5.1-0.05-7.31.08,0-.43,3.84-0.89,9.09-1.11,4.18-.12,1.81.28,2.54,0.21,7.84,0.06,6.68-.77,13.19-0.47,2.58,0.27.12,0.55,0.69,0.75-3.4.11-5.22-.17-7.53-0.15l2.84,0.13a40.17,40.17,0,0,1-4.59.09c2.17,0.25,13.25,0,19.3.24,1.07-.1,2.93-0.2,2.05-0.31l-1.91,0c-1.76-.22,3.6-0.32,1.18-0.42a87,87,0,0,1,9.06-.3l0.68,0.31a17.09,17.09,0,0,0-3.38-.08c1.51-.14,5.55.41,7.2,0l-2.54-.21c2.58-.17,5.77-0.51,9-0.42-1.46-.31-0.74,0-3-0.32,2,0.45-8.2,0-5,.47-2.34-.42-4-0.17-7.1-0.52,0.09,0.1,1.08.2-1.61,0.15-0.12,0-.41.07-0.59,0.09h0a0.3,0.3,0,1,0,.06,0,9.72,9.72,0,0,1,1.37.16c-1.33.24-5.61,0.24-7.06,0.37-1.6,0,.67-0.12-0.2-0.23l-2.16.19c-0.21-.23-4.24-0.37-0.48-0.52H290a62,62,0,0,0-6.42-.07c-1.6,0-4,.26-2.64.08l-5.31.15,0-.06c-5.24,0-10.78.4-16.77,0-1.76.06-3.59,0.13-6.53,0.07l-0.58-.2c-2.26.07-6.8-.19-7.77,0-2.44-.54-11-0.11-15-0.2l-0.15.26c-2.74,0-5.37.07-8.77,0.17l0.21,0.23c-2.93.19-7.54-.16-12.18-0.14a12.17,12.17,0,0,1,2.32,0c-5.54-.52-11.69.38-16.72,0a21.43,21.43,0,0,1-3,0h-0.2l-1.74-.12c0.52,0.06,1,.1,1.46.12-1,0-2.43,0-3.87.09l-0.61-.25h-0.33c-1.41-.09-1.13.12-0.38,0.3-0.72,0-1.39.09-1.9,0.15-1.14-.4-3.77.13-5.33-0.3-1,.21-7.22.15-8,0.58,0-.06-0.47-0.08.3-0.09a41.15,41.15,0,0,0-4.64,0l-0.68-.32-3.5.41c-2.12-.2-3-0.31-0.89-0.55-5.09.36-4.13,0.13-8.46,0.48l0.21-.2a48.33,48.33,0,0,1-5,.09c-3.09-.39-14.54-0.13-23.13-0.6H124l-2.83-.06c1.74,0.57-4.15-.2-4.49.29-0.52-.13-1.76-0.18-0.33-0.34-4.54.26-6.81,0-9.91,0.36-0.51-.14,1-0.21.5-0.29a9.4,9.4,0,0,1-1.89,0c-0.45-.09.66-0.11,1.37-0.17-4.57,0-5,.32-5.4.73l-1.54-.21-0.67-.08a5.23,5.23,0,0,0-.7,0,18.62,18.62,0,0,0-2.34.31c-0.82-.12-2.18-0.22.69-0.34-0.81,0-3.27,0-5.55,0a23.88,23.88,0,0,0-4.47.14,20.19,20.19,0,0,0-2.69,0l-1.22,0H82a3.29,3.29,0,0,0-.56.05c-0.57.08-1.05,0.12-1.52,0.15a16,16,0,0,1-3.55-.11l0.45,0.1,0.46,0.08a3.33,3.33,0,0,1-1.2,0l-0.17,0H75.69c-1.14,0-2.44-.08-4.36,0l0.08,0a26.19,26.19,0,0,0-4.75.32l-1.37.22C65,137,64.54,137,64,137.15l-0.44.09c-0.17,0-.39.1-0.6,0.17a2.73,2.73,0,0,0-1.24.73,2,2,0,0,1,.52-0.15c0,0.1-.14.22-0.24,0.44a3.91,3.91,0,0,0-.05.89c0,0.38,0,.75,0,1.14l-0.08,1.29a53.35,53.35,0,0,0-.18,6l0.14-1.36a19,19,0,0,1-.3,3.92l-0.08.54-0.08.74a1.73,1.73,0,0,0,.31,1.42,3.28,3.28,0,0,0,1.18.8L63.44,154l0.43,0.13c0.23,0.08,0,.05-0.3,0l-0.3-.07-0.45-.13a5.41,5.41,0,0,1-.82-0.33,6.13,6.13,0,0,0,1.36.58c0.29,0.09.53,0.16,0.74,0.21a8.42,8.42,0,0,0,.91.18c0.4,0.05.45,0,.47-0.06s0-.15.21-0.18h0.23a2.05,2.05,0,0,0,.5,0,5.28,5.28,0,0,1,1.05,0c0.69,0.24-1,.33,1.63.65a19.07,19.07,0,0,0,2.51.26A23.23,23.23,0,0,0,75.9,155l0.5-1.15a0.38,0.38,0,0,1-.25,0h0l0,0a1.42,1.42,0,0,1,.15.3,1.2,1.2,0,0,1,.07.25l0,0.13s0,0,0,0a1.65,1.65,0,0,1,.41,0c0.38,0,.82.05,1.24,0.1,0.85,0.1,1.68.22,2.41,0.34-0.83-.21-1.63-0.41.28-0.35l0.57,0,0.35,0a0.92,0.92,0,0,0,.43,0l0.66-.14,0.63-.09a25.81,25.81,0,0,1,2.71-.15c1.86,0,3.69.08,5-.06a1.07,1.07,0,0,1,.51.13c2.18,0,7.09.36,8.46,0.24,1,0.52,4.46.6,7.63,0.49s6.07-.3,6.06.1l6.77-.25-0.17.09c1.08,0,2-.06,2.76-0.11l1-.06c0.34,0,.66,0,0.94,0a18.9,18.9,0,0,0,2.68-.4c1,0,.28.1,0.2,0.15,3.18-.22,4.85-0.34,6.41-0.37,0.77,0,1.52,0,2.38,0,0.43,0,.89.07,1.4,0.13l0.87,0.14c0.41,0,.66,0,1,0l0.55,0.27c1.48-.1,9.16.45,15.36,0.15a2,2,0,0,1-.68.12c7-.31,16.7.68,19.25-0.26l4.6-.24c-6-.06.89-0.41-1.56-0.55,2.34-.06,6.05.26,3.18,0.32l-0.45,0c-1.06.49,7.4,0.15,7.24,0.48,11.72-.06,23.13.17,34.11,0.16l-1.27-.37h3.83c1,0.08,1.35.29-1.38,0.28a18.72,18.72,0,0,0,4.66-.27c5.35,0.14-2.09.45-.45,0.45l2.23,0-0.5,0a34.43,34.43,0,0,1,5.25-.31,8.78,8.78,0,0,1,1.88.24,5.4,5.4,0,0,0,1.25,0l4.82,0-1.93-.29c2.14-.15,4.53,0,2.31-0.33,3.27,0.51,18,.15,20,0.31,3-.22,5.95-0.22,9.61-0.19-0.91-.06-1.45-0.4,1.7-0.36-1.15.69,5.78,0.3,8.33,0.8-2.28-.34,9-0.06,5.4-0.54,2.63,0.07.16,0.26,2.16,0.43,3.14-.13,6.59-0.06,10.22,0,0.91,0,1.82.07,2.74,0.11l1.39,0.06c0.6,0,1,0,1.49,0,1.87,0,3.78,0,5.71,0,0.12-.09-1.17-0.27.49-0.35l4.06,0.62c1.53,0,1.43-.45,4.21,0-0.39-.09-1-0.24.05-0.22a85.54,85.54,0,0,0,11.57.23c1,0,2-.15,2.94-0.25l1.47-.21a11.53,11.53,0,0,1,1.32,0l5.83,0c7.79,0,15.6,0,23.31.38-2.09-.18-0.7-0.19.9-0.2-1,0,0-.22-0.18-0.35l6.46,0.34c1.18-.34,6.92,0,7.6-0.35l-2,.06c2.72-.38-3.8-0.85-3.41-1.35-3,.44-8-0.65-13,0-1.1-.1.94-0.16,0.35-0.27a28.9,28.9,0,0,1-5.63.16l0.32-.05c-8,.05-11.37-0.16-20.32-0.3L338,153l-1.19,0-0.87,0-0.4,0h-0.29l-0.6,0c-0.52.16-.46,0.2-0.09,0.18l0.73-.07,0.48-.06a1.68,1.68,0,0,1,.37,0h0.26c1.37,0,2.77,0,1.77.23a11.19,11.19,0,0,0-1.32-.14l-0.43,0a5.08,5.08,0,0,0-.54,0l-1,.11c-1.38.16-3,.28-4.63,0.35a31.19,31.19,0,0,1-7.25-.33c-2.94-.12.85,0.32-2.09,0.2l-0.77-.19-0.75.16a7.68,7.68,0,0,1-3-.5c0.47,0,1.34,0,1.84,0-2.5-.31-7.11-0.26-8-0.32l2.86,0.18c-2,0-4.17-.09-6.37-0.07-1.08,0-2.27.08-3.25,0l-3.36-.07c-4.45,0-8.87,0-12.77.11l0.59,0.12c-6,.19-4.77-0.14-11.3,0l0.24,0c-1.31.11-3.05,0.17-4.84,0.16,1.65-.14-3.11-0.26-0.94-0.41a47.28,47.28,0,0,0-7.46.61l-1-.19a30.35,30.35,0,0,1-4.84.32c2.68-.17-2.08-0.29.91-0.51-6.85-.41-10.17.44-13.31-0.16-3.14.54,5.93,0.28,4.17,0.4,1.48,0.17-2.6.4-4.74,0.35s-3.72-.67-9.23-0.64c0.55,0,.58,0,1.13,0-2.06-.13-4,0.19-6.56,0-1.42.32-3.28,0-3.69,0.4l5-.11a86.07,86.07,0,0,1-10.26.38c0.37-.08,1.77-0.2,2.73-0.26-1.38-.12-2.65.09-4.08,0,0.41-.41,6.14-0.11,9.2-0.43-1.48-.17-5.8.31-4.26-0.13-2.21.57-5.42-.06-9.15,0.38l0.25-.25c-0.59,0-1.81.16-2.9,0.16l2-.32c-3,.28-5.82-0.22-8.71-0.06,6.06,0,1.36.29,3.92,0.46-7.47.35-4.3-.63-12.67-0.48,1.13,0,4.25.13,2.48,0.25-1.59,0-3.7-.13-4.68-0.26-5.54.07,0.85,0.25-1.51,0.41-1.89-.29-2.72.13-5.15,0.23l0-.25c-6.32-.14-1.67.52-7.36,0.35l2.4-.35-3,.1,0.61-.28a62.81,62.81,0,0,1-7.39.1c0.73,0.17-.41.45-3.21,0.47-1.91-.14,1.07-0.24-2.9-0.19a10.29,10.29,0,0,1,3.6-.13c0.18-.08.88-0.16,1.06-0.24-2.06-.16-5.16,0-6.6,0,0.55,0,1.21,0,1.55.05l-5.75.35c-0.91-.09-0.19-0.17.52-0.24-1.16,0-2,.14-3.68.17,0.44-.2.34-0.41,2.76-0.51l-5.48.23c-0.37-.09-2.81-0.24-2.1-0.32-3-.12-7.45.39-11.47,0.21a9.85,9.85,0,0,1-1.46.09l-1.36-.05a1.28,1.28,0,0,1-.44-0.09c-0.24-.06-0.48-0.13-0.72-0.18a20.1,20.1,0,0,0-2.94-.41,28.26,28.26,0,0,0-6.25.41l-1.27-.06-1.25-.08c-3.35.23,3.33,0.34-2.27,0.65-0.58,0-1,0-1.32,0H122.3a0.66,0.66,0,0,1-.5-0.1c-0.05-.1.23-0.24-0.5-0.27a49.64,49.64,0,0,1-9.4.53C113.14,152.9,114.13,152.93,115.3,152.87Zm-42.84-.14c0.82,0,2.37-.11,2.93,0A5.34,5.34,0,0,1,72.45,152.73Zm31.5-15.08a12.28,12.28,0,0,1-2.69-.15C102.05,137.51,103,137.56,103.95,137.65Zm183.47-1.75h-0.09C285.46,135.82,286.12,135.86,287.42,135.9Zm3.89,0.1c0.39,0,.36-0.07.2-0.1a14.71,14.71,0,0,1-2.14.05A7.66,7.66,0,0,0,291.31,136Zm-55,18.72-0.76-.06C237.26,154.58,236.79,154.64,236.31,154.72Z"/><path class="cls-2" d="M96.53,137.77a0.66,0.66,0,0,1-.36-0.12C95.84,137.7,95.83,137.75,96.53,137.77Z"/><path class="cls-2" d="M142.21,152.49h0.13l0.13,0Z"/><path class="cls-2" d="M231.08,138.2a14.25,14.25,0,0,1-1.54-.13A3.43,3.43,0,0,0,231.08,138.2Z"/><path class="cls-2" d="M311.92,135.52l-2.49.07a22,22,0,0,1,2.24.08C311.61,135.61,311.14,135.53,311.92,135.52Z"/><path class="cls-2" d="M333.54,137c0.36,0,.77,0,1.13,0l-0.1-.12C333,136.86,331.94,137,333.54,137Z"/><path class="cls-2" d="M314.22,136.34c0.2,0.21,1.76.13,3.5,0.09h-0.31C317.93,136.14,316.08,136.24,314.22,136.34Z"/><path class="cls-2" d="M318.13,136.43c0.54,0,1.09,0,1.61,0A4.33,4.33,0,0,0,318.13,136.43Z"/><path class="cls-2" d="M296.24,135.85c0.83,0.05.52-.27,1-0.18C298.15,135.4,291.71,136,296.24,135.85Z"/><polygon class="cls-2" points="315.64 137.03 315.01 136.77 314.04 136.98 315.64 137.03"/><path class="cls-2" d="M301.86,136.88l2.79,0.07a1.87,1.87,0,0,1,.75-0.09C303.68,136.85,301.8,136.8,301.86,136.88Z"/><path class="cls-2" d="M305.4,136.85c0.89,0,1.75,0,2.24,0C307.16,136.81,306.11,136.82,305.4,136.85Z"/><polygon class="cls-2" points="311.83 137.12 311 137.06 309.04 137.05 311.83 137.12"/><path class="cls-2" d="M271.89,136.89l-3,.08c-0.31.09,0.52,0.14,1.65,0.1C271.23,137,272.36,137,271.89,136.89Z"/><path class="cls-2" d="M281.09,137.58a7.13,7.13,0,0,1-1.34-.19l-0.09.32Z"/><path class="cls-2" d="M272.22,137.67c-0.3.09-4.42,0.26-.56,0.24C272,137.82,275,137.74,272.22,137.67Z"/><polygon class="cls-2" points="226.37 137.32 227.15 137.32 227.03 136.79 226.37 137.32"/><path class="cls-2" d="M186,138.58c3.61,0.13.86-.32,4.11-0.16,0.85-.12-2.66-0.13-1.8-0.24C186.11,138.31,185,138.23,186,138.58Z"/><path class="cls-2" d="M188.28,138.18l1.11-.08C188.76,138.13,188.47,138.16,188.28,138.18Z"/><polygon class="cls-2" points="377.83 155.12 380.15 155.23 378.65 155.05 377.83 155.12"/><path class="cls-2" d="M382.28,154.73l0.55,0.33,1.39-.3A13.57,13.57,0,0,1,382.28,154.73Z"/><path class="cls-2" d="M66.22,151.47l-0.18.05,0.24,0.09,0,0a0.15,0.15,0,0,0,.11,0c0.39,0,.86,0,1.46.06,0,0-.49-0.09-1-0.14A1.06,1.06,0,0,1,66.22,151.47Z"/><polygon class="cls-2" points="97.16 152.18 96.62 152.12 97.61 152.51 97.16 152.18"/><path class="cls-2" d="M123.33,151.95c-1.08,0-2.34.14-3.42,0.17C122.25,152,123.63,152.31,123.33,151.95Z"/></svg>